<?xml version="1.0" encoding="utf-8"?>
<!-- Generator: Adobe Illustrator 18.0.0, SVG Export Plug-In . SVG Version: 6.00 Build 0)  -->
<!DOCTYPE svg PUBLIC "-//W3C//DTD SVG 1.1//EN" "http://www.w3.org/Graphics/SVG/1.1/DTD/svg11.dtd">
<svg version="1.1" id="Layer_1" xmlns="http://www.w3.org/2000/svg" xmlns:xlink="http://www.w3.org/1999/xlink" x="0px" y="0px"
	 viewBox="4.2 322.4 603.9 178.2" enable-background="new 4.2 322.4 603.9 178.2" xml:space="preserve">
<g>
	<g>
		<line fill="#FFFFFF" x1="278.2" y1="500.1" x2="278.2" y2="498.8"/>
	</g>
	<g>
		<path fill="#FFFFFF" d="M57.9,386.8c0,10.7-7.7,12.2-13.9,12.2h-8.4v-24.7h5.3C46.5,374.2,57.9,374.4,57.9,386.8 M56.9,350.3
			c0,7.8-5,14-21.2,14v-26.1h7.7C51.7,338.3,56.9,343.3,56.9,350.3 M92.4,388c0-17.7-17.3-22.2-23-22.2v-0.7
			c5.7-0.5,19.6-6.3,19.6-20c0-17.3-18.6-20.1-33.9-20.1H4.2v87.1h53.9C70.9,412.2,92.4,408.5,92.4,388"/>
		<path fill="#FFFFFF" d="M203.1,375.9v-50.8h-31.6v54.6c0,10.1-3.5,17.3-14.7,17.3c-10.9,0-14.3-7.2-14.3-17.3v-54.6h-31.6v50.8
			c0,26.1,19.5,40.1,45.9,40.1C183.4,416,203.1,401.9,203.1,375.9"/>
		<g>
			<path fill="#FFFFFF" d="M311.5,384.9c0-19.5-20-26.3-33.8-30.3c-15.5-4.5-25.3-5.1-25.3-11.5c0-5.8,8.4-7.2,15.4-7.2
				c6.9,0,19.5,3.5,26.6,10l12.2-10c-10-9.2-21.7-13.6-39.2-13.6c-17.4,0-43.1,6.2-43.1,30.7c0,19.5,20.4,24.9,32.6,28.4
				c12.6,3.6,24.9,5.4,24.9,13.1c0,6.1-10.9,6.6-15.5,6.6c-11.8,0-25-7.4-31.2-13.8l-12.6,10.5c5.7,6.9,20.4,17.2,43.8,17.2
				C289.3,415,311.5,406.2,311.5,384.9"/>
		</g>
		<polygon fill="#FFFFFF" points="424.9,412.2 424.9,325.1 393.3,325.1 393.3,360.3 360.9,360.3 360.9,325.1 329.3,325.1 
			329.3,412.2 360.9,412.2 360.9,375.7 393.3,375.7 393.3,412.2 		"/>
		<polygon fill="#FFFFFF" points="524.5,397.6 524.5,396.5 482.5,396.5 482.5,375.7 519.6,375.7 519.6,360.3 482.5,360.3 
			482.5,340.7 519.6,340.7 519.6,339.7 513.1,325.1 450.7,325.1 450.7,412.2 517.9,412.2 		"/>
		<polygon fill="#FFFFFF" points="541.4,325.1 541.4,412.2 601.6,412.2 608.1,397.6 608.1,396.5 573,396.5 573,325.1 		"/>
		<path fill="#FFFFFF" d="M597.2,326.6h2.1v-1.4h-5.7v1.4h2.1v5.5h1.6V326.6z M606.2,327.4v4.7h1.5v-6.9h-1.6l-1.8,2.9l-1.8-2.9
			h-1.7v6.9h1.5v-4.7l1.9,3h0.1L606.2,327.4z"/>
	</g>
	<g>
		<path fill="#FFFFFF" d="M278.3,498.8v1.3"/>
	</g>
	<path fill="#FFFFFF" d="M167,479.1h0.5v17.6c0,0.5,0,2.1-2.2,2.1H164v1.4h10.5v-1.4h-1.3c-2.2,0-2.2-1.6-2.2-2.1l0-15.4
		c0-2.5,1.7-2.2,3.5-2.2v-1.4H166l-4.8,16.6h-0.1l-4.7-16.6h-8.6v1.4h1.3c2.2,0,2.2,1.6,2.2,2.1v15.5c0,0.5,0,2.1-2.2,2.1h-1.3v1.4
		h8.5v-1.4h-1.3c-2.2,0-2.2-1.6-2.2-2.1v-17.6h0.5l6,21h1.7L167,479.1z"/>
	<path fill="#FFFFFF" d="M161,500.1h-1.7l-6-21h-0.5v17.6c0,0.5,0,2.1,2.2,2.1h1.3v1.4h-8.5v-1.4h1.3c2.2,0,2.2-1.6,2.2-2.1v-15.5
		c0-0.5,0-2.1-2.2-2.1h-1.3v-1.4h8.6l4.7,16.6h0.1l4.8-16.6h8.5v1.4c-1.8,0-3.5-0.3-3.5,2.2l0,15.4c0,0.5,0,2.1,2.2,2.1h1.3v1.4H164
		v-1.4h1.3c2.2,0,2.2-1.6,2.2-2.1v-17.6H167L161,500.1z"/>
	<path fill="#FFFFFF" d="M178.3,487.3c0,1.2,0.6,2.1,1.9,2.1c1.4,0,2.1-0.8,2.1-2.1c0-0.7-0.5-1.2-0.5-1.4c0-0.9,1.6-0.9,2.2-0.9
		c2.3,0,3.5,1.2,3.5,3.7v2.2c-2.6,0.1-5.3,0.4-7.3,1.5c-1.8,1-2.9,2-2.9,4.2c0,2.4,1.7,4.1,4.2,4.1c2.6,0,4.2-1.1,6.1-2.7
		c0.4,1.4,0.9,2.7,2.6,2.7c1.1,0,2.9-1.3,2.9-2.1c0-0.1-0.1-0.3-0.3-0.3c-0.5,0-0.7,0.6-1.3,0.6c-0.8,0-0.8-1.1-0.8-1.8v-7
		c0-1.3-0.1-2.5-0.4-3.2c-0.8-2.3-4-3.1-6.2-3.1C180.7,483.7,178.3,485.1,178.3,487.3z M187.5,492.1c0,1.4,0.2,2.7-0.4,4.1
		c-0.7,1.4-2.3,2.6-3.9,2.6c-1.5,0-2.4-1.1-2.4-2.6C180.8,492.5,184.8,492.3,187.5,492.1z"/>
	<path fill="#FFFFFF" d="M184.2,483.7c2.2,0,5.4,0.8,6.2,3.1c0.3,0.7,0.3,1.9,0.4,3.2v7c0,0.6-0.1,1.8,0.8,1.8
		c0.5,0,0.8-0.6,1.3-0.6c0.2,0,0.3,0.3,0.3,0.3c0,0.8-1.8,2.1-2.9,2.1c-1.7,0-2.2-1.2-2.6-2.7c-1.9,1.6-3.5,2.7-6.1,2.7
		c-2.4,0-4.2-1.7-4.2-4.1c0-2.2,1.1-3.2,2.9-4.2c2.1-1.1,4.7-1.4,7.3-1.5v-2.2c0-2.5-1.2-3.7-3.5-3.7c-0.6,0-2.2,0-2.2,0.9
		c0,0.2,0.5,0.7,0.5,1.4c0,1.4-0.7,2.1-2.1,2.1c-1.3,0-1.9-0.8-1.9-2.1C178.3,485.1,180.8,483.7,184.2,483.7z M180.9,496.1
		c0,1.5,0.9,2.6,2.4,2.6c1.6,0,3.2-1.1,3.9-2.6c0.6-1.4,0.4-2.7,0.4-4.1C184.8,492.3,180.9,492.5,180.9,496.1z"/>
	<path fill="#FFFFFF" d="M211,476.5c-1.1,0.2-2.1,0.4-3.2,0.4c-1,0.1-2.1,0.1-3.1,0.1v1.2c2.1,0.1,3-0.4,3.1,2.1v6.2l-0.1,0.1
		c-1.1-1.8-2.5-3-4.8-3c-4.6,0-7,4.7-7,8.7c0,3.8,2.7,8.2,6.9,8.2c2.6,0,4.2-1.6,5.2-3.8h0.1v3.8c0.9-0.3,1.8-0.4,2.6-0.5
		c0.8,0,1.7-0.1,2.5-0.1v-1.3c-2.1,0.1-2.2-0.3-2.2-2.3V476.5z M199.5,492.4c0-2.5,0.5-7.2,3.9-7.2c3.7,0,4.3,4.5,4.3,7.3
		c0,2.6-1.1,6.5-4.3,6.5C200.3,499,199.5,494.9,199.5,492.4z"/>
	<path fill="#FFFFFF" d="M211,496.4c0,2,0.1,2.4,2.2,2.3v1.3c-0.8,0-1.7,0.1-2.5,0.1c-0.9,0.1-1.8,0.2-2.6,0.5v-3.8H208
		c-1,2.1-2.6,3.8-5.2,3.8c-4.2,0-6.9-4.3-6.9-8.2c0-4,2.3-8.7,7-8.7c2.3,0,3.6,1.2,4.8,3l0.1-0.1v-6.2c-0.1-2.5-1-2-3.1-2.1v-1.2
		c1,0,2.1,0,3.1-0.1c1-0.1,2.1-0.2,3.2-0.4V496.4z M203.5,499c3.2,0,4.3-4,4.3-6.5c0-2.8-0.6-7.3-4.3-7.3c-3.4,0-3.9,4.7-3.9,7.2
		C199.5,494.9,200.3,499,203.5,499z"/>
	<path fill="#FFFFFF" d="M231.8,492.1c0-4.3-3-8.4-7.6-8.4c-4.6,0-7.6,4.1-7.6,8.5c-0.1,4.1,3,8.4,7.6,8.4c3.7,0,6-1.7,7.6-4.2
		l-1.1-0.7c-1.1,1.6-3.1,3.1-5.2,3.1c-3.5,0-5.4-2.9-5.4-6.7H231.8z M220,490.8c0-2.2,1.1-5.8,4.1-5.8c3,0,4.1,3.6,4.1,5.8H220z"/>
	<path fill="#FFFFFF" d="M220.1,492c0,3.8,1.9,6.7,5.4,6.7c2,0,4.1-1.4,5.2-3.1l1.1,0.7c-1.6,2.5-4,4.2-7.6,4.2
		c-4.7,0-7.7-4.3-7.6-8.4c0-4.4,3-8.5,7.6-8.5c4.6,0,7.6,4.1,7.6,8.4H220.1z M228.3,490.8c0-2.2-1.1-5.8-4.1-5.8
		c-3,0-4.1,3.6-4.1,5.8H228.3z"/>
	<path fill="#FFFFFF" d="M243.2,487.3c0,1.2,0.6,2.1,1.9,2.1c1.4,0,2.1-0.8,2.1-2.1c0-0.7-0.5-1.2-0.5-1.4c0-0.9,1.6-0.9,2.2-0.9
		c2.3,0,3.5,1.2,3.5,3.7v2.2c-2.6,0.1-5.3,0.4-7.3,1.5c-1.8,1-2.9,2-2.9,4.2c0,2.4,1.7,4.1,4.2,4.1c2.6,0,4.2-1.1,6.1-2.7
		c0.4,1.4,0.9,2.7,2.6,2.7c1.1,0,2.9-1.3,2.9-2.1c0-0.1-0.1-0.3-0.3-0.3c-0.5,0-0.7,0.6-1.3,0.6c-0.8,0-0.8-1.1-0.8-1.8v-7
		c0-1.3-0.1-2.5-0.4-3.2c-0.8-2.3-4-3.1-6.2-3.1C245.6,483.7,243.2,485.1,243.2,487.3z M252.4,492.1c0,1.4,0.2,2.7-0.4,4.1
		c-0.7,1.4-2.3,2.6-3.9,2.6c-1.5,0-2.4-1.1-2.4-2.6C245.7,492.5,249.6,492.3,252.4,492.1z"/>
	<path fill="#FFFFFF" d="M249,483.7c2.2,0,5.4,0.8,6.2,3.1c0.3,0.7,0.3,1.9,0.4,3.2v7c0,0.6-0.1,1.8,0.8,1.8c0.5,0,0.8-0.6,1.3-0.6
		c0.2,0,0.3,0.3,0.3,0.3c0,0.8-1.8,2.1-2.9,2.1c-1.7,0-2.2-1.2-2.6-2.7c-1.9,1.6-3.5,2.7-6.1,2.7c-2.4,0-4.2-1.7-4.2-4.1
		c0-2.2,1.1-3.2,2.9-4.2c2.1-1.1,4.7-1.4,7.3-1.5v-2.2c0-2.5-1.2-3.7-3.5-3.7c-0.6,0-2.2,0-2.2,0.9c0,0.2,0.5,0.7,0.5,1.4
		c0,1.4-0.7,2.1-2.1,2.1c-1.3,0-1.9-0.8-1.9-2.1C243.2,485.1,245.6,483.7,249,483.7z M245.7,496.1c0,1.5,0.9,2.6,2.4,2.6
		c1.6,0,3.2-1.1,3.9-2.6c0.6-1.4,0.4-2.7,0.4-4.1C249.7,492.3,245.7,492.5,245.7,496.1z"/>
	<path fill="#FFFFFF" d="M278.2,498.8c-0.6,0-2.3,0.2-2.3-1.8v-7.8c0-3-1.1-5.5-4.6-5.5c-2.6,0-4.2,1.6-5.3,3.8H266v-3.8
		c-1.7,0.5-3.8,0.7-5.6,0.7v1.3c1.6,0.1,2.3,0,2.3,1.8v9.4c0,2-1.7,1.8-2.3,1.8v1.3h7.8v-1.3c-0.9,0-2.3,0.2-2.3-1.8v-5
		c0-2.7,1.1-6.5,4.4-6.5c2.6,0,2.4,3.4,2.4,4v7.4c0,2-1.7,1.8-2.3,1.8v1.3h7.8"/>
	<path fill="#FFFFFF" d="M278.3,500.1h-7.9v-1.3c0.6,0,2.3,0.2,2.3-1.8v-7.4c0-0.6,0.2-4-2.4-4c-3.3,0-4.4,3.8-4.4,6.5v5
		c0,2,1.4,1.8,2.3,1.8v1.3h-7.8v-1.3c0.6,0,2.3,0.2,2.3-1.8v-9.5c0-1.8-0.8-1.8-2.3-1.8v-1.3c1.7-0.1,3.9-0.2,5.6-0.7v3.8h0.1
		c1-2.2,2.7-3.8,5.3-3.8c3.5,0,4.6,2.5,4.6,5.5v7.8c0,2,1.7,1.8,2.3,1.8"/>
	<path fill="#FFFFFF" d="M296.4,476.5c-1.1,0.2-2.1,0.4-3.2,0.4c-1,0.1-2.1,0.1-3.1,0.1v1.2c2.1,0.1,3-0.4,3.1,2.1v6.2l-0.1,0.1
		c-1.1-1.8-2.5-3-4.8-3c-4.6,0-7,4.7-7,8.7c0,3.8,2.7,8.2,6.9,8.2c2.6,0,4.2-1.6,5.2-3.8h0.1v3.8c0.9-0.3,1.8-0.4,2.6-0.5
		c0.8,0,1.7-0.1,2.5-0.1v-1.3c-2.1,0.1-2.2-0.3-2.2-2.3V476.5z M284.9,492.4c0-2.5,0.5-7.2,3.9-7.2c3.7,0,4.3,4.5,4.3,7.3
		c0,2.6-1.1,6.5-4.3,6.5C285.6,499,284.9,494.9,284.9,492.4z"/>
	<path fill="#FFFFFF" d="M296.4,496.4c0,2,0.1,2.4,2.2,2.3v1.3c-0.8,0-1.7,0.1-2.5,0.1c-0.9,0.1-1.8,0.2-2.6,0.5v-3.8h-0.1
		c-1,2.1-2.6,3.8-5.2,3.8c-4.2,0-6.9-4.3-6.9-8.2c0-4,2.3-8.7,7-8.7c2.3,0,3.6,1.2,4.8,3l0.1-0.1v-6.2c-0.1-2.5-1-2-3.1-2.1v-1.2
		c1,0,2.1,0,3.1-0.1c1-0.1,2.1-0.2,3.2-0.4V496.4z M288.9,499c3.2,0,4.3-4,4.3-6.5c0-2.8-0.6-7.3-4.3-7.3c-3.4,0-3.9,4.7-3.9,7.2
		C284.9,494.9,285.7,499,288.9,499z"/>
	<path fill="#FFFFFF" d="M329,479.1h0.5v17.6c0,0.5,0,2.1-2.2,2.1H326v1.4h10.5v-1.4h-1.3c-2.2,0-2.2-1.6-2.2-2.1l0-15.4
		c0-2.5,1.7-2.2,3.5-2.2v-1.4H328l-4.8,16.6h-0.1l-4.7-16.6h-8.6v1.4h1.3c2.2,0,2.2,1.6,2.2,2.1v15.5c0,0.5,0,2.1-2.2,2.1h-1.3v1.4
		h8.5v-1.4h-1.3c-2.2,0-2.2-1.6-2.2-2.1v-17.6h0.5l6,21h1.7L329,479.1z"/>
	<path fill="#FFFFFF" d="M323,500.1h-1.7l-6-21h-0.5v17.6c0,0.5,0,2.1,2.2,2.1h1.3v1.4h-8.5v-1.4h1.3c2.2,0,2.2-1.6,2.2-2.1v-15.5
		c0-0.5,0-2.1-2.2-2.1h-1.3v-1.4h8.6l4.7,16.6h0.1l4.8-16.6h8.5v1.4c-1.8,0-3.5-0.3-3.5,2.2l0,15.4c0,0.5,0,2.1,2.2,2.1h1.3v1.4H326
		v-1.4h1.3c2.2,0,2.2-1.6,2.2-2.1v-17.6h-0.5L323,500.1z"/>
	<path fill="#FFFFFF" d="M354.4,492.1c0-4.3-3-8.4-7.6-8.4c-4.6,0-7.6,4.1-7.6,8.5c-0.1,4.1,3,8.4,7.6,8.4c3.7,0,6-1.7,7.6-4.2
		l-1.1-0.7c-1.1,1.6-3.1,3.1-5.2,3.1c-3.5,0-5.4-2.9-5.4-6.7H354.4z M342.7,490.8c0-2.2,1.1-5.8,4.1-5.8c3,0,4.1,3.6,4.1,5.8H342.7z
		"/>
	<path fill="#FFFFFF" d="M342.8,492c0,3.8,1.9,6.7,5.4,6.7c2,0,4.1-1.4,5.2-3.1l1.1,0.7c-1.6,2.5-4,4.2-7.6,4.2
		c-4.7,0-7.7-4.3-7.6-8.4c0-4.4,3-8.5,7.6-8.5s7.6,4.1,7.6,8.4H342.8z M351,490.8c0-2.2-1.1-5.8-4.1-5.8c-3,0-4.1,3.6-4.1,5.8H351z"
		/>
	<path fill="#FFFFFF" d="M359.1,487.3c0,1.2,0.6,2.1,1.9,2.1c1.4,0,2.1-0.8,2.1-2.1c0-0.7-0.5-1.2-0.5-1.4c0-0.9,1.6-0.9,2.2-0.9
		c2.3,0,3.5,1.2,3.5,3.7v2.2c-2.6,0.1-5.3,0.4-7.3,1.5c-1.8,1-2.9,2-2.9,4.2c0,2.4,1.7,4.1,4.2,4.1c2.6,0,4.2-1.1,6.1-2.7
		c0.4,1.4,0.9,2.7,2.6,2.7c1.1,0,2.9-1.3,2.9-2.1c0-0.1-0.1-0.3-0.3-0.3c-0.5,0-0.7,0.6-1.3,0.6c-0.8,0-0.8-1.1-0.8-1.8v-7
		c0-1.3-0.1-2.5-0.4-3.2c-0.8-2.3-4-3.1-6.2-3.1C361.6,483.7,359.1,485.1,359.1,487.3z M368.3,492.1c0,1.4,0.2,2.7-0.4,4.1
		c-0.7,1.4-2.3,2.6-3.9,2.6c-1.5,0-2.4-1.1-2.4-2.6C361.6,492.5,365.6,492.3,368.3,492.1z"/>
	<path fill="#FFFFFF" d="M365,483.7c2.2,0,5.4,0.8,6.2,3.1c0.3,0.7,0.3,1.9,0.4,3.2v7c0,0.6-0.1,1.8,0.8,1.8c0.5,0,0.8-0.6,1.3-0.6
		c0.2,0,0.3,0.3,0.3,0.3c0,0.8-1.8,2.1-2.9,2.1c-1.7,0-2.2-1.2-2.6-2.7c-1.9,1.6-3.5,2.7-6.1,2.7c-2.4,0-4.2-1.7-4.2-4.1
		c0-2.2,1.1-3.2,2.9-4.2c2.1-1.1,4.7-1.4,7.3-1.5v-2.2c0-2.5-1.2-3.7-3.5-3.7c-0.6,0-2.2,0-2.2,0.9c0,0.2,0.5,0.7,0.5,1.4
		c0,1.4-0.7,2.1-2.1,2.1c-1.3,0-1.9-0.8-1.9-2.1C359.2,485.1,361.6,483.7,365,483.7z M361.7,496.1c0,1.5,0.9,2.6,2.4,2.6
		c1.6,0,3.2-1.1,3.9-2.6c0.6-1.4,0.4-2.7,0.4-4.1C365.6,492.3,361.7,492.5,361.7,496.1z"/>
	<path fill="#FFFFFF" d="M376.9,494.6v5.8h1.3c0.1-1.5,1.6-1,2.4-0.5c0.6,0.3,2.2,0.6,2.9,0.6c2.8,0,5-2.2,5-5c0-2.7-1.7-4-4.1-4.8
		c-1.6-0.6-5-1.3-5-3.5c0-1.4,1.1-2.3,2.4-2.3c2.3,0,3.9,1.7,4.7,3.7h1.3v-4.8h-1.3c0,0.6-0.2,1-0.9,1c-0.4,0-1.8-1.2-3.6-1.2
		c-2.6,0-4.8,1.8-4.8,4.5c0,6.3,9,4.3,9,8.5c0,1.7-1.3,2.6-2.8,2.6c-2.9,0-4.5-2.1-5.3-4.6H376.9z"/>
	<path fill="#FFFFFF" d="M378.2,494.6c0.8,2.5,2.4,4.6,5.3,4.6c1.6,0,2.8-1,2.8-2.6c0-4.2-9.1-2.2-9.1-8.5c0-2.7,2.2-4.5,4.8-4.5
		c1.8,0,3.2,1.2,3.6,1.2c0.7,0,0.9-0.4,0.9-1h1.3v4.8h-1.3c-0.8-2-2.4-3.7-4.7-3.7c-1.4,0-2.4,0.9-2.4,2.3c0,2.2,3.4,2.9,5,3.5
		c2.4,0.8,4.1,2.1,4.1,4.8c0,2.8-2.2,5-5,5c-0.7,0-2.3-0.3-2.9-0.6c-0.8-0.5-2.3-1-2.4,0.5h-1.3v-5.8H378.2z"/>
	<path fill="#FFFFFF" d="M404.1,500.6c1.7-0.5,3.8-0.7,5.5-0.7v-1.3c-1.5-0.1-2.3,0-2.3-1.8v-13.3c-1.7,0.5-3.8,0.7-5.6,0.7v1.3
		c1.6,0.1,2.3,0,2.3,1.8v5c0,2.7-1.1,6.5-4.4,6.5c-2.6,0-2.4-3.4-2.4-4v-11.3c-1.7,0.5-3.8,0.7-5.6,0.7v1.3c1.6,0.1,2.3,0,2.3,1.8
		v7.8c0,3,1.1,5.5,4.6,5.5c2.6,0,4.2-1.6,5.3-3.8h0.1V500.6z"/>
	<path fill="#FFFFFF" d="M404.1,496.8L404.1,496.8c-1.1,2.2-2.8,3.8-5.4,3.8c-3.5,0-4.6-2.5-4.6-5.5v-7.8c0-1.8-0.8-1.8-2.3-1.8
		v-1.3c1.7-0.1,3.9-0.2,5.6-0.7v11.3c0,0.6-0.2,4,2.4,4c3.3,0,4.4-3.8,4.4-6.5v-5c0-1.8-0.8-1.8-2.3-1.8v-1.3
		c1.7-0.1,3.9-0.2,5.6-0.7v13.3c0,1.8,0.8,1.8,2.3,1.8v1.3c-1.7,0.1-3.8,0.2-5.5,0.7V496.8z"/>
	<path fill="#FFFFFF" d="M417.7,483.6c-1.8,0.4-3.6,0.6-5.3,0.6v1.3c1.8,0.1,2.6,0,2.6,1.8v9.7c0,2-1.7,1.8-2.6,1.8v1.3h8.8v-1.3
		c-1.2,0-2.9,0.2-2.9-1.8v-6.6c0-2.5,1.5-5.1,3.9-5.1c-0.1,0.3-0.3,0.8-0.3,1.4c0,1.1,0.6,2.1,1.9,2.1c1.1,0,2.1-1,2.1-2.1
		c0-1.7-1.4-2.9-3-2.9c-2.5,0-4.4,1.9-5,4.6h-0.1V483.6z"/>
	<path fill="#FFFFFF" d="M417.8,488.2L417.8,488.2c0.6-2.6,2.6-4.6,5.1-4.6c1.7,0,3,1.2,3,2.9c0,1.1-1,2.1-2.1,2.1
		c-1.4,0-1.9-1-1.9-2.1c0-0.6,0.2-1,0.3-1.4c-2.4,0-3.9,2.6-3.9,5.1v6.6c0,2,1.7,1.8,2.9,1.8v1.3h-8.8v-1.3c0.9,0,2.6,0.2,2.6-1.8
		v-9.7c0-1.8-0.8-1.8-2.6-1.8v-1.3c1.7,0,3.5-0.2,5.3-0.6V488.2z"/>
	<path fill="#FFFFFF" d="M443.4,492.1c0-4.3-3-8.4-7.6-8.4c-4.6,0-7.6,4.1-7.6,8.5c-0.1,4.1,3,8.4,7.6,8.4c3.7,0,6-1.7,7.6-4.2
		l-1.1-0.7c-1.1,1.6-3.1,3.1-5.2,3.1c-3.5,0-5.4-2.9-5.4-6.7H443.4z M431.6,490.8c0-2.2,1.1-5.8,4.1-5.8c3,0,4.1,3.6,4.1,5.8H431.6z
		"/>
	<path fill="#FFFFFF" d="M431.7,492c0,3.8,1.9,6.7,5.4,6.7c2,0,4.1-1.4,5.2-3.1l1.1,0.7c-1.6,2.5-4,4.2-7.6,4.2
		c-4.7,0-7.7-4.3-7.6-8.4c0-4.4,3-8.5,7.6-8.5c4.6,0,7.6,4.1,7.6,8.4H431.7z M439.9,490.8c0-2.2-1.1-5.8-4.1-5.8
		c-3,0-4.1,3.6-4.1,5.8H439.9z"/>
	<path fill="#FFFFFF" d="M461.9,476.5c-1.1,0.2-2.1,0.4-3.2,0.4c-1,0.1-2.1,0.1-3.1,0.1v1.2c2.1,0.1,3-0.4,3.1,2.1v6.2l-0.1,0.1
		c-1.1-1.8-2.5-3-4.8-3c-4.6,0-7,4.7-7,8.7c0,3.8,2.7,8.2,6.9,8.2c2.6,0,4.2-1.6,5.2-3.8h0.1v3.8c0.9-0.3,1.8-0.4,2.6-0.5
		c0.8,0,1.7-0.1,2.5-0.1v-1.3c-2.1,0.1-2.2-0.3-2.2-2.3V476.5z M450.4,492.4c0-2.5,0.5-7.2,3.9-7.2c3.7,0,4.3,4.5,4.3,7.3
		c0,2.6-1.1,6.5-4.3,6.5C451.2,499,450.4,494.9,450.4,492.4z"/>
	<path fill="#FFFFFF" d="M462,496.4c0,2,0.1,2.4,2.2,2.3v1.3c-0.8,0-1.7,0.1-2.5,0.1c-0.9,0.1-1.8,0.2-2.6,0.5v-3.8H459
		c-1,2.1-2.6,3.8-5.2,3.8c-4.2,0-6.9-4.3-6.9-8.2c0-4,2.3-8.7,7-8.7c2.3,0,3.6,1.2,4.8,3l0.1-0.1v-6.2c-0.1-2.5-1-2-3.1-2.1v-1.2
		c1,0,2.1,0,3.1-0.1c1-0.1,2.1-0.2,3.2-0.4V496.4z M454.5,499c3.2,0,4.3-4,4.3-6.5c0-2.8-0.6-7.3-4.3-7.3c-3.4,0-3.9,4.7-3.9,7.2
		C450.5,494.9,451.2,499,454.5,499z"/>
</g>
</svg>
