<?xml version="1.0" encoding="utf-8"?>
<!-- Generator: Adobe Illustrator 17.1.0, SVG Export Plug-In . SVG Version: 6.00 Build 0)  -->
<!DOCTYPE svg PUBLIC "-//W3C//DTD SVG 1.1//EN" "http://www.w3.org/Graphics/SVG/1.1/DTD/svg11.dtd">
<svg version="1.1" id="Layer_1" xmlns="http://www.w3.org/2000/svg" xmlns:xlink="http://www.w3.org/1999/xlink" x="0px" y="0px"
	 viewBox="0 0 581.4 113.9" enable-background="new 0 0 581.4 113.9" xml:space="preserve">
<g>
	<path fill="#E6E7E8" d="M0,2.3h28.8c2.8,0,5.7,0.1,8.9,0.3c3.1,0.2,5.8,0.5,8.2,1c8.6,1.9,14.8,6.8,18.4,14.7c2,4.4,3,8.9,3,13.4
		c0,2.8-0.4,5.7-1.2,8.7c-1.5,5.3-4.4,9.5-8.6,12.4c0.1,0.1,0.6,0.3,1.4,0.7c2.7,1.6,5,3.7,7,6.2c1.9,2.6,3.4,5.4,4.3,8.6
		c1,3.2,1.4,6.6,1.4,10.3c0,4.5-0.8,8.8-2.4,12.9c-3.5,9.1-9.7,14.9-18.6,17.3c-2.8,0.8-6.3,1.3-10.4,1.6c-4.1,0.2-7.9,0.3-11.4,0.3
		H0V2.3z M22.3,45.6c4.5,0,9.3-0.2,14.5-0.6c5.1-0.3,7.7-3.8,7.7-10.4v-0.2c-0.1-6.7-2.6-10.5-7.4-11.2c-4.8-0.7-9.8-1-14.8-1V45.6z
		 M22.3,90.9c2.5,0,5.2,0,7.9-0.1c2.8,0,5.3-0.2,7.4-0.6c1.5-0.2,2.6-0.5,3.3-0.9v0.1c1.8-0.6,3.3-1.6,4.5-3c0.5-0.5,1-1.3,1.7-2.5
		c1.1-2.2,1.6-4.3,1.6-6.4c0-2.4-0.6-4.7-1.9-6.9c-1.2-1.9-2.7-3.4-4.6-4.5c-1.4-0.6-3-1.1-4.6-1.4c-2-0.3-4.6-0.5-7.6-0.5h-7.8
		V90.9z"/>
	<path fill="#E6E7E8" d="M122,2.3v65.3c0,7.9,1.7,14,5.2,18.4c3.4,4.3,9.3,6.5,17.5,6.5c8.1,0,13.9-2.2,17.3-6.5
		c3.4-4.4,5.1-10.5,5.1-18.3V2.3h22.7v66.8c0,29.6-15.1,44.4-45.2,44.4c-30,0-45-14.8-45-44.4V2.3H122z"/>
	<path fill="#E6E7E8" d="M230.6,77c1.3,4.7,3.2,8.5,5.8,11.2c2.6,2.7,6.6,4.1,12.1,4.1c3.8,0,6.9-1,9.4-3s3.8-5.1,3.8-9.2
		c0-4.2-2.7-7.7-8.1-10.4c-5.4-2.8-9.8-5.1-13.3-7C233.8,59.2,228,55,223,50.1c-4.8-4.6-7.2-10.8-7.2-18.5v-1.3
		c0.3-8.5,3.7-15.8,10.3-21.7c6.4-5.7,13.8-8.6,22.3-8.6h0.9c7.1,0.1,13,1.5,17.9,4s9.1,6.9,12.9,13l-15.3,13.6
		c-1.7-2.7-3.8-5.2-6.2-7.4c-2.3-2.1-5.2-3.1-8.5-3.1h-0.4c-2.8,0.1-5.3,1.1-7.4,2.9c-2.1,1.8-3.2,4.2-3.2,7.3
		c0,2.9,1.8,5.7,5.5,8.2c3.7,2.5,7.1,4.6,10.3,6.3c7.8,4.2,14.9,8.8,21.2,13.8c6.2,4.9,9.2,12.2,9.2,22V81
		c-0.1,9.6-3.5,17.3-10.2,23.1c-6.7,5.8-15.1,9.1-25.1,9.7c-0.7,0-1.5,0.1-2.2,0.1c-6.6,0-13-1.8-18.9-5.3
		c-6.7-3.9-11.6-9.6-14.6-17.1L230.6,77z"/>
	<path fill="#E6E7E8" d="M312.8,2.3h22.6v37.8h44.5V2.3h22.6v108.5h-22.6V61h-44.5v49.9h-22.6V2.3z"/>
	<path fill="#E6E7E8" d="M430.4,2.3h63.2v20.2H453v19.7h40.6v20.7H453V90h40.6v20.9h-63.2V2.3z"/>
	<path fill="#E6E7E8" d="M521.4,2.3h22.7V90h37.3v20.9h-60V2.3z"/>
</g>
</svg>
