<?xml version="1.0" encoding="utf-8"?>
<!-- Generator: Adobe Illustrator 17.1.0, SVG Export Plug-In . SVG Version: 6.00 Build 0)  -->
<!DOCTYPE svg PUBLIC "-//W3C//DTD SVG 1.1//EN" "http://www.w3.org/Graphics/SVG/1.1/DTD/svg11.dtd">
<svg version="1.1" id="Layer_1" xmlns="http://www.w3.org/2000/svg" xmlns:xlink="http://www.w3.org/1999/xlink" x="0px" y="0px"
	 viewBox="347.7 351 500 293.3" enable-background="new 347.7 351 500 293.3" xml:space="preserve">
<g>
	<path fill="#FFFFFF" d="M348.2,453.7h28.7c20.7,0,29.9,10.6,29.9,29.7c0,9.6-4.1,19.8-13.4,23.5c9.8,4.4,15.6,12.2,15.6,26.6
		c0,18.5-8.2,32.5-30.2,32.5h-30.6V453.7z M367.6,499.8h7c7.3,0,12.9-5,12.9-14.3c0-10.4-4.1-15.9-12.6-15.9h-7.3V499.8z
		 M367.6,550.3h8.1c10.3,0,14-5.9,14-17.3c0-11.5-4.4-17.3-15.9-17.3h-6.2V550.3L367.6,550.3z"/>
	<path fill="#FFFFFF" d="M441.8,453.7h19.3v84.9c0,8.2,3.3,12.3,10.3,12.3c7,0,10.3-4.1,10.3-12.3v-84.9H501v84.2
		c0,19.3-11.2,29.9-29.6,29.9c-18.4,0-29.6-10.6-29.6-29.9L441.8,453.7L441.8,453.7z"/>
	<path fill="#FFFFFF" d="M570.5,481.4c-0.8-9.6-5.9-12.5-10.3-12.5c-6.2,0-9.6,4-9.6,11.1c0,19.2,39.2,28.4,39.2,58.9
		c0,18.5-12.5,28.8-30.5,28.8c-17.9,0-28.2-14.3-29-31.1l18.4-2.7c0.8,11.4,5.3,17,11.5,17c6.7,0,11.2-3.6,11.2-10.3
		c0-22.3-39.2-28.2-39.2-60.5c0-17.9,10.9-28.1,29.9-28.1c15.7,0,25.1,11.4,26.8,27.3L570.5,481.4z"/>
	<path fill="#FFFFFF" d="M620,566.2V453.7h19.3v45.8h20.6v-45.8h19.3v112.5h-19.3v-49.8h-20.6v49.9L620,566.2L620,566.2z"/>
	<path fill="#FFFFFF" d="M713.5,566.2V453.7h51.8v16.8h-32.4v29h24.9v16.8h-24.9v33.1h34.6v16.8H713.5z"/>
	<path fill="#FFFFFF" d="M797.3,566.2V453.7h19.3v95.7h30.4v16.8H797.3z"/>
</g>
<g>
	<path fill="#FFFFFF" d="M457.7,622.5c-0.1-0.4-0.4-0.6-0.7-0.6l-1-0.1v-0.4c0,0,0.9-0.4,2.1-0.4c1.3,0,2,0.4,2.2,1.8l1.5,9.1
		c1.1-1.3,3.4-4.4,4.3-6.7l-0.4-2.6c-0.1-0.4-0.4-0.6-0.7-0.6l-0.9-0.1v-0.4c0,0,0.7-0.4,1.9-0.4c1.3,0,2,0.4,2.2,1.8l1.5,9.1
		c1.3-1.5,4.1-5.4,4.4-7.8c-0.7-0.3-1.3-0.9-1.3-1.6c0-1,0.7-1.6,1.6-1.6s1.8,0.6,1.8,1.6c0,2.7-3.1,7.1-6,10.2
		c-0.4,0.4-1.5,1.5-1.9,2.1h-0.4l-1.3-7.6c-1.1,1.9-2.6,3.9-4.2,5.6c-0.4,0.4-1.5,1.5-1.9,2.1h-0.4L457.7,622.5z"/>
	<path fill="#FFFFFF" d="M478.4,629.2c0-4.7,2.7-8.5,7.2-8.5c3.2,0,5,1.6,5,5.3c0,4.7-2.5,8.5-7.1,8.5
		C480.4,634.5,478.4,632.9,478.4,629.2z M488,626c0-2.3-0.6-4.4-2.5-4.4c-2.7,0-4.4,3.4-4.4,7.6c0,2.3,0.7,4.4,2.7,4.4
		C486.4,633.6,488,630.2,488,626z"/>
	<path fill="#FFFFFF" d="M496.1,623.3c0.1-0.7-0.1-1.1-0.9-1.3l-1.3-0.3v-0.4c0.6-0.1,1.9-0.4,3-0.4c1.3,0,2,0.8,1.8,2.5l-0.1,0.9
		c0.9-2,2.1-3.6,3.8-3.6c0.7,0,1.3,0.6,1.3,1.3c0,1-0.6,1.6-1.5,1.6c-0.9,0-1.3-0.6-1.5-1c-0.7,0-1.7,1.4-2.2,2.2l-1.1,9.5h-2.5
		L496.1,623.3z"/>
	<path fill="#FFFFFF" d="M508.3,613.6c0.1-0.7,0-0.7-0.7-0.9l-1.3-0.3v-0.6l2.7-0.3c0.7-0.1,1.8-0.2,2.3-0.6l-0.4,2.7l-2.5,20.6
		h-2.5L508.3,613.6z M512.3,632.3l-1.3-3.2c-0.4-0.9-0.6-1.2-1.3-1.2h-0.3v-0.4c2.7-0.9,4.7-2.5,5.6-3.7c-0.4-0.3-0.9-0.7-0.9-1.5
		c0-1,0.9-1.6,1.8-1.6s1.5,0.6,1.5,1.3c0,0.9-0.3,1.5-1.2,2.3c-0.9,0.9-2.1,1.6-3.7,2.3l2.3,5c0.4,0.8,0.7,1.5,1.5,1.5
		c0.9,0,1.5-0.4,1.6-0.7v0.6c-0.2,0.4-1.2,1.5-2.7,1.5C514,634.5,513,634.1,512.3,632.3z"/>
	<path fill="#FFFFFF" d="M528.5,622.5c-0.1-0.4-0.4-0.6-0.7-0.6l-1-0.1v-0.4c0,0,0.9-0.4,2.1-0.4c1.3,0,2,0.4,2.2,1.8l1.5,9.1
		c1.1-1.3,3.4-4.4,4.3-6.7l-0.4-2.6c-0.1-0.4-0.4-0.6-0.7-0.6l-0.9-0.1v-0.4c0,0,0.7-0.4,1.9-0.4c1.3,0,2,0.4,2.2,1.8l1.5,9.1
		c1.3-1.5,4.1-5.4,4.4-7.8c-0.7-0.3-1.3-0.9-1.3-1.6c0-1,0.7-1.6,1.6-1.6s1.8,0.6,1.8,1.6c0,2.7-3.1,7.1-6,10.2
		c-0.4,0.4-1.5,1.5-1.9,2.1h-0.4L537,627c-1.1,1.9-2.6,3.9-4.2,5.6c-0.4,0.4-1.5,1.5-1.9,2.1h-0.4L528.5,622.5z"/>
	<path fill="#FFFFFF" d="M549.9,631.9c0-0.3,0.1-1,0.1-1.3l0.9-7.2c0.1-0.7-0.3-1.1-1-1.3l-1.2-0.3v-0.4c0.6-0.1,1.9-0.4,3.4-0.4
		c1.3,0,1.5,1.2,1.3,2.5l-0.9,7.2c0,0.3-0.1,1.2-0.1,1.3c0,0.9,0.3,1.3,1,1.3c0.9,0,1.8-0.3,2.1-0.4v0.4c-0.4,0.4-1.5,1.3-3.2,1.3
		C550.8,634.5,549.9,633.6,549.9,631.9z M551.9,614.4c0-1,0.6-1.9,1.6-1.9c0.9,0,1.2,0.6,1.2,1.5c0,1-0.6,1.9-1.6,1.9
		C552.2,615.8,551.9,615.2,551.9,614.4z"/>
	<path fill="#FFFFFF" d="M558.8,631.7c0-0.9,0.1-1.6,0.1-2.3l0.9-7.1h-2.1v-1.2h2.2l0.4-3.7l2.2-0.4h0.3l-0.4,4.1h3.4v1.2h-3.5
		l-0.9,7.1c-0.1,0.6-0.1,1.5-0.1,2.3c0,1,0.7,1.5,1.8,1.5c0.9,0,1.8-0.4,2.2-0.7v0.4c-0.7,0.7-1.9,1.6-3.7,1.6
		C560,634.5,558.8,633.6,558.8,631.7z"/>
	<path fill="#FFFFFF" d="M576.2,631.9c0-0.3,0.1-1,0.1-1.3l0.6-4.5c0-0.3,0.1-1.2,0.1-1.3c0-1.8-0.7-2.3-2.1-2.3c-1.2,0-2.3,1-3,2
		l-1.2,9.9h-2.5l2.5-20.6c0.1-0.7,0-0.7-0.7-0.9l-1.3-0.3v-0.6l2.8-0.3c0.7-0.1,1.7-0.2,2.2-0.6l-0.4,2.7l-1.2,10.1
		c0.9-1.8,2.2-3,4.3-3c2.2,0,3.2,1.3,3.2,3.8c0,0.3-0.1,1.3-0.1,1.6l-0.6,4.5c0,0.3-0.1,1-0.1,1.2c0,0.9,0.3,1.3,1,1.3
		c0.9,0,1.8-0.3,2.1-0.4v0.4c-0.4,0.4-1.5,1.3-3.2,1.3C576.7,634.5,576.2,633.3,576.2,631.9z"/>
	<path fill="#FFFFFF" d="M587.7,641.4c0-1,0.9-1.5,1.6-1.5s1.2,0.3,1.6,1.3c1.8-1.2,3.7-4.1,4.7-6.2l-3.5-12.5
		c-0.1-0.4-0.4-0.7-0.9-0.7l-0.7-0.1v-0.4c0,0,0.9-0.4,2.1-0.4c1.5,0,1.9,0.5,2.2,1.8l2.7,9.9c1.3-1.9,3.2-6,3.4-8.5
		c-0.7-0.3-1.3-0.9-1.3-1.6c0-1,0.7-1.6,1.6-1.6c0.9,0,1.8,0.6,1.8,1.6c0,2.8-3.4,9-5.8,12.1c-1.2,2.1-4.3,8.7-7.5,8.7
		C588.5,643.1,587.7,642.5,587.7,641.4z"/>
	<path fill="#FFFFFF" d="M605.6,629.2c0-4.7,2.7-8.5,7.2-8.5c3.2,0,5,1.6,5,5.3c0,4.7-2.5,8.5-7.1,8.5
		C607.5,634.5,605.6,632.9,605.6,629.2z M615.1,626c0-2.3-0.6-4.4-2.5-4.4c-2.7,0-4.4,3.4-4.4,7.6c0,2.3,0.7,4.4,2.7,4.4
		C613.6,633.6,615.1,630.2,615.1,626z"/>
	<path fill="#FFFFFF" d="M622.5,630.7c0-0.3,0.1-1,0.1-1.3l0.7-5.9c0.1-0.7-0.1-1.3-0.9-1.5l-1.3-0.3v-0.4c0.6-0.1,2.1-0.4,2.8-0.4
		c1.3,0,2.2,0.8,1.9,2.5l-0.7,5.9c0,0.3-0.1,1-0.1,1.3c0,1.8,0.6,2.3,1.9,2.3c1.4,0,2.4-0.7,3.1-1.3c0-0.4,0.1-0.8,0.1-1l1.2-9.3
		l2.7-0.6l-0.4,2.7l-0.9,7.2c0,0.3-0.1,1.2-0.1,1.3c0,0.9,0.3,1.3,1,1.3c0.9,0,1.8-0.3,2.1-0.4v0.4c-0.4,0.4-1.8,1.3-3.4,1.3
		c-1.4,0-2.2-0.8-2.2-2.5c-1,1.3-2.4,2.5-4.3,2.5C623.5,634.5,622.5,633.2,622.5,630.7z"/>
	<path fill="#FFFFFF" d="M639.7,623.3c0.1-0.7-0.1-1.1-0.9-1.3l-1.3-0.3v-0.4c0.6-0.1,1.9-0.4,3-0.4c1.3,0,2,0.8,1.8,2.5l-0.1,0.9
		c0.9-2,2.1-3.6,3.8-3.6c0.7,0,1.3,0.6,1.3,1.3c0,1-0.6,1.6-1.5,1.6c-0.9,0-1.3-0.6-1.5-1c-0.7,0-1.7,1.4-2.2,2.2l-1.1,9.5h-2.5
		L639.7,623.3z"/>
	<path fill="#FFFFFF" d="M664.9,631.9c0-0.3,0.1-1,0.1-1.3l0.6-4.5c0-0.3,0.1-1.2,0.1-1.3c0-1.8-0.7-2.3-2.1-2.3c-1.2,0-2.3,1-3,2
		l-1.2,9.9H657l2.5-20.6c0.1-0.7,0-0.7-0.7-0.9l-1.3-0.3v-0.6l2.8-0.3c0.7-0.1,1.7-0.2,2.2-0.6l-0.4,2.7l-1.2,10.1
		c0.9-1.8,2.2-3,4.3-3c2.2,0,3.2,1.3,3.2,3.8c0,0.3-0.1,1.3-0.1,1.6l-0.6,4.5c0,0.3-0.1,1-0.1,1.2c0,0.9,0.3,1.3,1,1.3
		c0.9,0,1.8-0.3,2.1-0.4v0.4c-0.4,0.4-1.5,1.3-3.2,1.3C665.5,634.5,664.9,633.3,664.9,631.9z"/>
	<path fill="#FFFFFF" d="M673,629.3c0-5.4,3.4-8.7,7.5-8.7c1,0,1.8,0.3,2.3,0.6l2.5-0.6l-0.4,2.7l-0.9,7.4c0,0.3-0.1,1-0.1,1.2
		c0,0.9,0.3,1.3,1,1.3c0.9,0,1.8-0.3,2.1-0.4v0.4c-0.4,0.4-1.6,1.3-3.4,1.3c-1.4,0-2.1-0.7-2.2-2.3c-0.5,0.8-1.8,2.3-4.1,2.3
		C674.8,634.5,673,632.8,673,629.3z M681.4,631.7c0-0.4,0.1-0.9,0.1-1.2l1.1-8.7h-1.4c-3.7,0-5.6,3.4-5.6,7.1c0,2.5,0.7,4,2.8,4
		C679.8,632.9,680.8,632.2,681.4,631.7z"/>
	<path fill="#FFFFFF" d="M697.9,631.9c0-0.3,0.1-1,0.1-1.3l0.6-4.5c0-0.3,0.1-1.2,0.1-1.3c0-1.8-0.7-2.3-2.1-2.3c-1.2,0-2.3,1-3,2
		l-1.2,9.9h-2.5l1.3-10.9c0.1-0.7-0.1-1.1-0.9-1.3l-1.3-0.3v-0.4c0.6-0.1,1.9-0.4,3-0.4c1.3,0,2,0.8,1.8,2.5l0,0.4
		c0.9-1.8,2.3-3,4.3-3c2.2,0,3.2,1.3,3.2,3.8c0,0.3-0.1,1.3-0.1,1.6l-0.6,4.5c0,0.3-0.1,1-0.1,1.2c0,0.9,0.3,1.3,1,1.3
		c0.9,0,1.8-0.3,2.1-0.4v0.4c-0.4,0.4-1.5,1.3-3.2,1.3C698.5,634.5,697.9,633.3,697.9,631.9z"/>
	<path fill="#FFFFFF" d="M706,629.3c0-5.4,3.4-8.7,7.5-8.7c0.9,0,1.6,0.2,2.2,0.5l0.9-7.6c0.1-0.7,0-0.7-0.7-0.9l-1.3-0.3v-0.6
		l2.7-0.3c0.7-0.1,1.8-0.2,2.3-0.6l-0.4,2.7l-2.1,16.9c0,0.3-0.1,1.2-0.1,1.3c0,0.9,0.3,1.3,1,1.3c0.9,0,1.8-0.3,2.1-0.4v0.4
		c-0.4,0.4-1.6,1.3-3.4,1.3c-1.4,0-2.1-0.7-2.2-2.3c-0.5,0.8-1.8,2.3-4.1,2.3C707.7,634.5,706,632.8,706,629.3z M714.3,631.7
		c0-0.4,0.1-0.9,0.1-1.2l1.1-8.7h-1.4c-3.7,0-5.6,3.4-5.6,7.1c0,2.5,0.7,4,2.8,4C712.8,632.9,713.8,632.2,714.3,631.7z"/>
	<path fill="#FFFFFF" d="M721.9,631.5c0-1.3,0.9-1.8,1.6-1.8s1.5,0.4,1.5,1.5c0,0.6-0.4,1.2-0.7,1.5c0.3,0.6,1.2,0.9,1.9,0.9
		c1.9,0,2.8-1.1,2.8-2.5c0-1.2-0.7-1.7-1.2-2.1l-1.8-1.3c-1.2-0.9-2.2-1.7-2.2-3.2c0-2.7,2.2-3.8,4.5-3.8c2.1,0,3.4,0.9,3.4,1.9
		c0,0.9-0.5,1.3-1.2,1.3c-1.2,0-1.5-0.9-1.6-2.2c-0.1-0.1-0.6-0.3-1-0.3c-1.2,0-1.9,1-1.9,2.1c0,1,0.6,1.8,1.3,2.3l1.6,1.2
		c0.7,0.5,2.3,1.5,2.3,3.7c0,2.7-2.5,3.8-5.2,3.8C724,634.5,721.9,633.2,721.9,631.5z"/>
</g>
<g>
	<path fill="#FFFFFF" d="M595.7,368.3c0,0.8,0.5,1,1.1,0.4l11-11.1c0.6-0.6,1.1-1.7,1.1-2.6v-1.8c0-0.8-0.5-1-1.1-0.4l-11,11.1
		c-0.6,0.6-1.1,1.7-1.1,2.6V368.3z"/>
	<path fill="#FFFFFF" d="M595.7,381.5c0,0.8,0.5,1,1.1,0.4l11-11.1c0.6-0.6,1.1-1.7,1.1-2.6v-1.8c0-0.8-0.5-1-1.1-0.4l-11,11.1
		c-0.6,0.6-1.1,1.7-1.1,2.6V381.5z"/>
	<path fill="#FFFFFF" d="M595.7,394.7c0,0.8,0.5,1,1.1,0.4l11-11.1c0.6-0.6,1.1-1.7,1.1-2.6v-1.8c0-0.8-0.5-1-1.1-0.4l-11,11.1
		c-0.6,0.6-1.1,1.7-1.1,2.6V394.7z"/>
	<path fill="#FFFFFF" d="M595.7,407.9c0,0.8,0.5,1,1.1,0.4l11-11.1c0.6-0.6,1.1-1.7,1.1-2.6v-1.8c0-0.8-0.5-1-1.1-0.4l-11,11.1
		c-0.6,0.6-1.1,1.7-1.1,2.6V407.9z"/>
	<path fill="#FFFFFF" d="M591.9,368.3c0,0.8-0.5,1-1.1,0.4l-11-11.1c-0.6-0.6-1.1-1.7-1.1-2.6v-1.8c0-0.8,0.5-1,1.1-0.4l11,11.1
		c0.6,0.6,1.1,1.7,1.1,2.6V368.3z"/>
	<path fill="#FFFFFF" d="M591.9,381.5c0,0.8-0.5,1-1.1,0.4l-11-11.1c-0.6-0.6-1.1-1.7-1.1-2.6v-1.8c0-0.8,0.5-1,1.1-0.4l11,11.1
		c0.6,0.6,1.1,1.7,1.1,2.6V381.5z"/>
	<path fill="#FFFFFF" d="M591.9,394.7c0,0.8-0.5,1-1.1,0.4l-11-11.1c-0.6-0.6-1.1-1.7-1.1-2.6v-1.8c0-0.8,0.5-1,1.1-0.4l11,11.1
		c0.6,0.6,1.1,1.7,1.1,2.6L591.9,394.7L591.9,394.7z"/>
	<path fill="#FFFFFF" d="M591.9,407.9c0,0.8-0.5,1-1.1,0.4l-11-11.1c-0.6-0.6-1.1-1.7-1.1-2.6v-1.8c0-0.8,0.5-1,1.1-0.4l11,11.1
		c0.6,0.6,1.1,1.7,1.1,2.6V407.9z"/>
</g>
</svg>
