<?xml version="1.0" encoding="utf-8"?>
<!-- Generator: Adobe Illustrator 18.1.0, SVG Export Plug-In . SVG Version: 6.00 Build 0)  -->
<svg version="1.1" id="Layer_1" xmlns="http://www.w3.org/2000/svg" xmlns:xlink="http://www.w3.org/1999/xlink" x="0px" y="0px"
	 viewBox="0 0 149 23" enable-background="new 0 0 149 23" xml:space="preserve">
<g>
	<path d="M146.4,1.1h0.5V0.8h-1.4v0.3h0.5v1.4h0.4V1.1z M148.6,1.3v1.2h0.4V0.8h-0.4l-0.5,0.7l-0.5-0.7h-0.4v1.7h0.4V1.3l0.5,0.7h0
		L148.6,1.3z"/>
	<path d="M13.4,16c0,2.6-1.9,3-3.4,3H7.9v-6.1h1.3C10.6,12.9,13.4,12.9,13.4,16 M13.2,7c0,1.9-1.2,3.5-5.2,3.5V4h1.9
		C11.9,4,13.2,5.3,13.2,7 M21.9,16.3c0-4.4-4.3-5.5-5.7-5.5v-0.2c1.4-0.1,4.8-1.6,4.8-4.9c0-4.3-4.6-5-8.4-5H0.2v21.5h13.3
		C16.6,22.2,21.9,21.3,21.9,16.3"/>
	<path d="M49.2,13.3V0.8h-7.8v13.5c0,2.5-0.9,4.3-3.6,4.3c-2.7,0-3.5-1.8-3.5-4.3V0.8h-7.8v12.5c0,6.4,4.8,9.9,11.3,9.9
		C44.4,23.2,49.2,19.7,49.2,13.3"/>
	<g>
		<path d="M75.9,15.5c0-4.8-4.9-6.5-8.3-7.5c-3.8-1.1-6.2-1.3-6.2-2.8c0-1.4,2.1-1.8,3.8-1.8c1.7,0,4.8,0.9,6.6,2.5l3-2.5
			c-2.5-2.3-5.4-3.4-9.7-3.4S54.4,1.6,54.4,7.6c0,4.8,5,6.1,8,7c3.1,0.9,6.1,1.3,6.1,3.2c0,1.5-2.7,1.6-3.8,1.6
			c-2.9,0-6.2-1.8-7.7-3.4L54,18.7c1.4,1.7,5,4.2,10.8,4.2C70.5,22.9,75.9,20.8,75.9,15.5"/>
	</g>
	<polygon points="103.9,22.2 103.9,0.8 96.1,0.8 96.1,9.4 88.1,9.4 88.1,0.8 80.3,0.8 80.3,22.2 88.1,22.2 88.1,13.2 96.1,13.2 
		96.1,22.2 	"/>
	<polygon points="128.4,18.6 128.4,18.4 118.1,18.4 118.1,13.2 127.2,13.2 127.2,9.4 118.1,9.4 118.1,4.6 127.2,4.6 127.2,4.4 
		125.6,0.8 110.2,0.8 110.2,22.2 126.8,22.2 	"/>
	<polygon points="132.6,0.8 132.6,22.2 147.4,22.2 149,18.6 149,18.4 140.4,18.4 140.4,0.8 	"/>
</g>
</svg>
