<?xml version="1.0" encoding="utf-8"?>
<!-- Generator: Adobe Illustrator 18.1.1, SVG Export Plug-In . SVG Version: 6.00 Build 0)  -->
<svg version="1.1" id="Layer_1" xmlns="http://www.w3.org/2000/svg" xmlns:xlink="http://www.w3.org/1999/xlink" x="0px" y="0px"
	 viewBox="0 0 1224 792" enable-background="new 0 0 1224 792" xml:space="preserve">
<g>
	<path fill="#F4A724" d="M23.9,184.6l1,3.8l0.3,14.9l1.7,2.8l2.1,0.3l-1,1.7l-1,8.7l1.4,6.6l-0.3,2.1l-2.4,2.4l-0.7,1.7l0.3,2.8
		l3.1,1.4v3.1l-2.4-1.7l-0.7,4.5l3.1-1.4l2.8,4.8l-0.7,1.7l-1.4,0.3l-2.1-2.8l-2.4-0.3l-2.1,0.7l-0.7,2.1l1.4,1.4l6.2,1.4l0.3,2.4
		l1-1.4l3.5-1.4l33.2,0.7h39.1l2.4,3.1l0.3,3.5l-0.7,6.9l1,3.1v132.3l-1,32.9l3.1,4.8v6.2l0.7,2.1l2.8,3.1l-1.4,3.8l0.7,2.1l2.1-1
		l0.3-2.8l3.1,2.4l1.4-0.7l1.4-2.4l3.8,3.8l3.8-1h3.8l2.1-1.4l3.1,1.7l2.1,0.3l4.2-0.7l3.1-2.1l7.6,3.1l4.2-0.3l1.7-1l3.5,1l9,1
		l1.7,0.7l-1.7,3.8l-4.2,4.2l-1,4.2l-3.1,2.4l-6.9,3.5l-20.4,5.2l-1.7-0.7l-2.8-2.4l-2.1-0.7l-4.2,0.7h-8.7l-12.1,2.1l-2.1,1
		l-2.1-3.8l-3.8,1l-4.2-0.3l-4.2-1.4l-3.8-4.5l-0.3-4.5l0.7-2.8l-2.4-3.8l1-4.2v-4.5l2.1-3.5l-3.1-5.9l0.3-2.4l1.7-1l1-1.7l0.3-9.7
		l-1.4-16.3l0.3-3.8l1.4-3.8l-1-10.7l1.7-4.2l-2.1-4.5l0.7-32.2v-34.3L88,280.2l0.7-4.5l-0.7-3.8l-1.4-1.7l-17.7-0.7H39.9l-6.9-0.7
		l-4.5,1l-8.3,0.3l-3.8,1l-10.4-2.8l-1.4-1l-0.3-4.2l-1.7-4.8l1-1.7l0.7-3.8l-2.1-12.5l1-5.5l1.4-1.7l-2.1-7.6l2.1-5.9l-1.4-2.4
		v-1.4l1.4-2.1l-2.1-3.8l3.5-13.2l3.5-2.1l9-7.6l3.5-1.7L23.9,184.6z M7.7,229.3l0.7,2.1l1.7-0.3l0.3-2.4L7.7,229.3z M16.3,253.2
		l1.4-3.8l-0.3-0.7h-2.4l-0.7,1.7l0.3,2.1L16.3,253.2z M14.9,236.2l0.7,1.4l1.7,0.7l0.7-3.1l-1.7,0.3L14.9,236.2z M28.4,253.9
		l1.7,0.7l2.1-1l1-1.4l-1-1l-3.5,1L28.4,253.9z M59.6,251.8l-1.4-0.7h-2.4l0.7,2.1h2.1L59.6,251.8z M87.3,266.7l1.4-3.1h-3.1
		l0.3,2.1L87.3,266.7z M93.2,330.7l0.7-2.1l-1.4-1l-0.3,2.1L93.2,330.7z M92.5,271.9l1.7,1.7l2.1,0.7l1-0.7l-1-2.4h-2.4L92.5,271.9z
		 M92.5,457.1l1,0.7l1.7-1.4l-1.7-0.7L92.5,457.1z M95.3,287.4v-2.1l-1.4-1l-0.3,2.1L95.3,287.4z M99.8,266.7l2.1,0.3l1.7-2.1
		l-2.4,0.3L99.8,266.7z M99.8,433.9l1,2.4l2.1,0.7l0.7-0.7l-0.7-2.1l-2.4-1L99.8,433.9z M101.5,324.5h2.1l-2.1-1.4V324.5z
		 M105.7,457.1l5.5,0.7l-1-2.1l-1.7-1.4l-1.7,0.3L105.7,457.1z M127.5,462.3l1.7,0.7l1-1.4l-1.7-0.7L127.5,462.3z M260.1,249.4
		l-1.4,4.2l-2.4,3.5l-5.5,5.5l-3.5,4.8l-4.5,0.7l-3.8,1.7l-2.8,2.8l-5.2-2.4l-32.9-0.7h-13.5l-4.2-1l-1.7-1v-13.2l1.4-5.5l1.7-0.7
		h4.2l1.7,0.7l3.8-1.4h15.2l16.6,1h17l8-0.7l8,0.3l2.1,0.7L260.1,249.4z"/>
	<path fill="#F4A724" d="M368.1,186l0.3,9.3l1,3.8l-1.4,4.5l0.3,6.2l2.1,4.2l-0.3,2.4l-1.4,1l-0.7,1.7l2.1,3.8l0.3,3.5l1.4,2.4
		l-1.4,4.2l-2.4,2.8v32.5l0.7,33.6l-1,24.6l1.7,8.3l1,2.1l-1.7,5.2l-0.3,3.8l0.7,8.7l2.1,7.6l-1.7,4.5l0.3,7.6l1.4,9.3v4.5
		l-2.1,11.8l2.1,5.5l-2.1,8.7l0.3,6.6l1,1.7l-2.4,6.2l3.1,2.8l-1.4,2.1v1.7l3.1,7.6l-0.3,2.1l1,1.7l3.5,1.7l14.5,1l3.5,1.4l3.1-1.7
		l4.2-0.3l4.5,0.7l4.5-2.4l1.7,0.7l2.1,3.1l1.7-0.7l2.1-2.4l2.1-0.7l2.1,3.8l6.2-1h12.8l3.5-2.1l-0.7,3.1h40.9l0.7-2.1l1,1l3.5,1
		h11.1l8.7-3.8h2.4l0.7,1.7l-0.7,2.1l1.7-0.7l5.9,1.4l4.5-1.4h33.6l10.4,0.3l1.4,0.7l1.4,1.7l-1.7,3.5l-5.2,6.9l-6.2,6.2l-3.1,1.7
		l-6.6,2.1h-11.8l-16.3-1.4l-12.5,0.3l-2.8,2.4l-5.9-2.4l-1.7,0.7l-0.7,1.7l-3.5-1l-9.7,1.7l-1-1.4l-3.5-1.7l-2.1,1h-8.7l-5.9,1.4
		l-3.1-1.7l-4.2-1h-4.5l-3.8,1l-1.4,1l-17-1.7h-18l-11.1,2.4l-3.1-2.4h-2.1l-3.1,1.7l-3.8-1l-34.6-0.7l-5.5-0.7l-2.1-5.9l-0.3-4.5
		l1.7-5.9l-1.4-4.5l0.7-8.3l-0.7-2.1l-2.4-1.4l3.1-5.2v-16.3l-1-11.8l1-5.5l-0.3-2.1l-2.8-2.4l0.7-2.1l2.4-2.4l-1.7-1.4l-0.3-3.8
		l1.4-4.5l-0.3-3.8l-3.1-11.8l1-3.5l1.4-1.7l-1-2.1l-0.7-3.8l1.7-12.5l-0.7-6.2l1.4-3.8l1-5.9l-1-3.8l-1.4-1.4l1.4-1.4l1-3.8
		l-0.7-3.1l0.7-25.3l-1.7-11.1l1.7-3.1l-0.7-2.1l-1.7-1.4l3.1-4.5l-1-33.6v-15.9l1-15.9l6.6-5.9l2.4-3.8l2.1-0.3l5.5-4.9h1.7
		L368.1,186z M350.5,250l1.4,0.7l0.7-1.7l-1.4-0.7L350.5,250z M352.5,366.7l0.7-1.4l-0.3-1.7l-1.7-0.7l-0.7,1.7l0.3,1.7L352.5,366.7
		z M357,355.7l1.4,0.7l0.7-1.4l-1.4-0.7L357,355.7z M357,387.5l2.1-0.7l1-2.4l-1-1.4l-1,2.4L357,387.5z M362.9,366l1.4,0.7v-1.4
		l-1.4-0.7V366z M363.6,436l0.7,2.1h2.1l1.4-1l0.3-1.7h-2.4L363.6,436z M364.3,335.6h1.7v-1.4h-1.7V335.6z M364.3,452.3l2.1-0.7
		l1-1.7l-1.4-1l-1,1.7L364.3,452.3z M368.1,447.8h2.4l-0.3-1.7l-1.4-1L368.1,447.8z M371.9,456.8l1.7,0.3l1-1.4l-1.4-1L371.9,456.8z
		 M393.4,130.9l3.5,2.1l2.8,2.8l4.8,6.9l5.2,5.9l3.5,2.4l2.1,0.7l-0.7,1.4h-1.7l2.8,5.2l-0.3,2.4l2.1-0.3l1.7-2.8l2.1-0.7l4.8,2.8
		l1,1.7l27.7-18l10.7-7.3l3.8-1.4l3.8-0.3l2.8,1l7.3,4.5l13.8,11.1l3.8,0.7l4.5,4.5l3.5,0.7l3.8,2.4l5.9,6.6l-3.5,6.2l-5.2,3.5
		l-4.8,5.2l-4.2,1.4h-4.2l-8-2.4L472,168.7l-7.6-4.8l-3.1-3.1h-5.9l-1.7-3.5l-1.4-1l-8,2.4l-3.5,2.1l-5.5,5.2l-3.8,1l-20.8,13.9
		l-5.9,1.7l-3.8-0.3l-7.3-3.1l-6.9-5.9v-2.1l-1.7-3.5l-9.3-8l0.3-2.4l-3.1-5.9l-0.3-2.1l1.7-3.5l2.8-3.1v-3.8l3.1-2.4l4.2-1.7
		l4.5-3.8H393.4z M377.8,461.3l0.7,1.7l1.7,0.7l1.4-1l-0.7-1.7l-1.7-0.3L377.8,461.3z M386.8,161.4l2.4-0.3l0.3-1.7l-0.7-2.1l-1.4-1
		l-1,1.4v1.7L386.8,161.4z M392,155.5l1.7,0.3l3.1-2.1l0.3-2.1l-3.1-0.7v2.1l-1.4,0.7L392,155.5z M403.1,456.8h-3.8l1,2.1h1.7
		L403.1,456.8z M400.3,162.8l1.7-0.7l1-3.1l-2.8-0.7l-0.7,2.4L400.3,162.8z M409,463.7h1.7v-1.7H409V463.7z M419.4,463.7l1.7-0.3
		l1.4-1.7l-0.7-1l-1.4,1L419.4,463.7z M572.1,250l-1.7,3.8l-14.2,14.5l-6.6,1.4l-17.7-1.4l-34.3,1.4l-7.3,0.3l-7.6-0.7l-3.8,1.4
		l-1.7-1l-4.2-0.7l-4.8,0.7l-3.1,1.7l-4.2-1.4l-6.2,1.4l-3.5-1.7l-12.1-1l-1.7-1l-1.4-11.1l2.8-4.9l-0.7-2.8l8.7-1.4l8,0.7l1-1.7
		l2.1-0.3l2.4,0.7l1.7,1.4l2.4-1l4.2,0.7l2.1-0.3l1.7-1.4l1.7,0.3l1,1.4l19,0.7l7.6-0.3l1.7-0.7l16.3,1l33.9-1l16.6,2.1L572.1,250z
		 M547.5,351.2l-1.7,4.2l-5.2,6.6l-11.4,8.7h-66.5l-24.6-0.7l-1.4-3.5l-0.3-4.2l0.7-8l1-3.8l8.3-1h29.1l4.5,1l2.8-1.7h15.9l7.6,1.4
		l8,0.3l16.6-1.4l8.3,0.3l6.2,1L547.5,351.2z M441.9,455.4h1.4V454h-1.4V455.4z M461.9,152.4l4.5,1.4l-0.7-2.4L464,150l-1,1.4
		L461.9,152.4z M463.3,461.9l1.7,0.7l1.4-1.4l-1.7-0.7L463.3,461.9z M470.3,148.6l2.1-1l-0.7-1.7l-1.4,1V148.6z M470.3,258h1.4v-1.4
		h-1.4V258z M471.6,159.7l1.7,1.4l2.1-0.3l-0.7-2.1l-2.1-0.3L471.6,159.7z M477.5,155.5l1,0.3l1-2.1l-1.4,0.7L477.5,155.5z
		 M478.2,168.7l2.4,0.7l0.7-2.1l-0.7-2.4h-2.4l0.3,2.1L478.2,168.7z M484.5,162.8l2.8-2.1l-0.7-1.7l-2.1-0.7l-0.7,2.4L484.5,162.8z
		 M485.1,259.7l1.7-0.7l0.3-1.4l-1.4-1l-0.7,1.4V259.7z M494.8,362.9l-2.4,1l0.3,1.4l1.7-1L494.8,362.9z M493.1,165.9h1.7v-1.7h-1.7
		V165.9z M522.2,255.2l-0.3-2.1l-2.4-0.3l0.7,2.1L522.2,255.2z"/>
	<path fill="#F4A724" d="M670,184.6l1,3.8l0.3,14.9l1.7,2.8l2.1,0.3l-1,1.7l-1,8.7l1.4,6.6l-0.3,2.1l-2.4,2.4l-0.7,1.7l0.3,2.8
		l3.1,1.4v3.1l-2.4-1.7l-0.7,4.5l3.1-1.4l2.8,4.8l-0.7,1.7l-1.4,0.3l-2.1-2.8l-2.4-0.3l-2.1,0.7l-0.7,2.1l1.4,1.4l6.2,1.4l0.3,2.4
		l1-1.4l3.5-1.4l33.2,0.7h39.1l2.4,3.1l0.3,3.5l-0.7,6.9l1,3.1v132.3l-1,32.9l3.1,4.8v6.2l0.7,2.1l2.8,3.1l-1.4,3.8l0.7,2.1l2.1-1
		l0.3-2.8l3.1,2.4l1.4-0.7l1.4-2.4l3.8,3.8l3.8-1h3.8l2.1-1.4l3.1,1.7l2.1,0.3l4.2-0.7l3.1-2.1l7.6,3.1l4.2-0.3l1.7-1l3.5,1l9,1
		l1.7,0.7l-1.7,3.8l-4.2,4.2l-1,4.2l-3.1,2.4l-6.9,3.5l-20.4,5.2l-1.7-0.7l-2.8-2.4l-2.1-0.7l-4.2,0.7H766l-12.1,2.1l-2.1,1
		l-2.1-3.8l-3.8,1l-4.2-0.3l-4.2-1.4l-3.8-4.5l-0.3-4.5l0.7-2.8l-2.4-3.8l1-4.2v-4.5l2.1-3.5l-3.1-5.9l0.3-2.4l1.7-1l1-1.7l0.3-9.7
		l-1.4-16.3l0.3-3.8l1.4-3.8l-1-10.7l1.7-4.2l-2.1-4.5l0.7-32.2v-34.3l-0.7-32.9l0.7-4.5l-0.7-3.8l-1.4-1.7l-17.7-0.7H686l-6.9-0.7
		l-4.5,1l-8.3,0.3l-3.8,1l-10.4-2.8l-1.4-1l-0.3-4.2l-1.7-4.8l1-1.7l0.7-3.8l-2.1-12.5l1-5.5l1.4-1.7l-2.1-7.6l2.1-5.9l-1.4-2.4
		v-1.4l1.4-2.1l-2.1-3.8l3.5-13.2l3.5-2.1l9-7.6l3.5-1.7L670,184.6z M653.8,229.3l0.7,2.1l1.7-0.3l0.3-2.4L653.8,229.3z
		 M662.4,253.2l1.4-3.8l-0.3-0.7H661l-0.7,1.7l0.3,2.1L662.4,253.2z M661,236.2l0.7,1.4l1.7,0.7l0.7-3.1l-1.7,0.3L661,236.2z
		 M674.5,253.9l1.7,0.7l2.1-1l1-1.4l-1-1l-3.5,1L674.5,253.9z M705.7,251.8l-1.4-0.7h-2.4l0.7,2.1h2.1L705.7,251.8z M733.4,266.7
		l1.4-3.1h-3.1l0.3,2.1L733.4,266.7z M739.3,330.7l0.7-2.1l-1.4-1l-0.3,2.1L739.3,330.7z M738.6,271.9l1.7,1.7l2.1,0.7l1-0.7l-1-2.4
		H740L738.6,271.9z M738.6,457.1l1,0.7l1.7-1.4l-1.7-0.7L738.6,457.1z M741.4,287.4v-2.1l-1.4-1l-0.3,2.1L741.4,287.4z M745.9,266.7
		l2.1,0.3l1.7-2.1l-2.4,0.3L745.9,266.7z M745.9,433.9l1,2.4l2.1,0.7l0.7-0.7l-0.7-2.1l-2.4-1L745.9,433.9z M747.6,324.5h2.1
		l-2.1-1.4V324.5z M751.8,457.1l5.5,0.7l-1-2.1l-1.7-1.4l-1.7,0.3L751.8,457.1z M773.6,462.3l1.7,0.7l1-1.4l-1.7-0.7L773.6,462.3z
		 M906.2,249.4l-1.4,4.2l-2.4,3.5l-5.5,5.5l-3.5,4.8l-4.5,0.7l-3.8,1.7l-2.8,2.8l-5.2-2.4l-32.9-0.7h-13.5l-4.2-1l-1.7-1v-13.2
		l1.4-5.5l1.7-0.7h4.2l1.7,0.7l3.8-1.4h15.2l16.6,1h17l8-0.7l8,0.3l2.1,0.7L906.2,249.4z"/>
	<path fill="#F4A724" d="M1012.8,184.3l1.4,8.3v32.5l1,16.6l-1.7,3.5l1.7,4.5v15.9l-1,16.6v16.6l2.4,3.8l-0.7,3.8l-1.7,2.8l1.4,6.2
		l-0.3,3.1l-1,1.7l3.1,1.7l-0.3,2.1l-1.4,1.7l-0.3,2.1l0.7,4.5V348l1.4,3.8l-0.3,2.1l-2.8,3.1l0.7,3.5l-0.7,14.9l0.7,2.1l2.4,2.4
		l-1.7,4.5l1,7.6l-1,3.8l-1.4,2.1l1.4,1.4l1.4,4.2l-0.3,4.5l-2.4,6.2l1.4,7.6l-1.4,5.9l0.3,2.1l2.8,2.4l-0.7,1.7l-2.4,2.8l5.5,5.9
		l1.4,4.5l1.7,0.7h7.3l1.4,3.8h32.5l34.3-0.7h33.6l7.6,0.7l3.5-1.7l7.6,1l15.9-1.4l3.5,1.4l1.7-1h8.3l5.5-1.4l6.6,2.4l1.7-1l3.5-0.3
		l8.3,1.7h4.8l7.6,1.7l-4.5,6.9l-5.5,5.9l-10,7.3l-8.3-1l-6.6,1l-2.1,2.4l-2.1-0.7l-2.4-2.4l-1.7,0.7l-1,1.7l-1.7,0.7l-3.1-2.4
		l-2.1-0.7h-33.6l-20.4,0.7l-10-1.4l-4.5,1.4h-65.4l-23.9-1.4l-7.6,1l-4.2-0.7l-3.8-1.7l-1.7-10l-1-1.4l1.4-4.5l-0.7-17.3l0.7-2.1
		l-2.4-3.5l0.3-1.7l1.7-0.7l1-1.4l0.3-2.1l-1-4.8l-2.4-5.9l0.7-1.7l1-0.7l0.7-1.7l-1.4-4.5l1-8l-0.3-8.3l1.4-12.8l-1.4-3.5L990,365
		l0.3-9.3l0.7-3.8l1.7-3.1l-3.1-7.3l2.8-11.8l0.3-8.3l-2.1-5.5v-12.5l-1-5.9l1-2.1l2.1-1l-0.7-1.7l-2.4-2.4l-0.7-1.7l1.7-3.8v-4.2
		l-1-4.8l0.3-1.7l2.1-2.8v-4.5l-2.1-2.1v-4.9l2.8-2.4V203l1.7-3.5l12.8-12.1l2.4-3.1H1012.8z M1000.4,224.4l0.7,2.4l2.4-0.7l0.3-2.4
		h-2.1L1000.4,224.4z M1001.1,284.7l1.7-0.7v-1.4l-1.7-0.7V284.7z M1001.1,371.2l1.7-0.7l0.3-2.4h-2.1V371.2z M1001.1,380.9h1.4
		v-1.7h-1.4V380.9z M1001.1,383.7l1.4,0.7l-1.4-2.1V383.7z M1003.8,408.3l-2.8-0.7l1,2.1L1003.8,408.3z M1003.1,427l0.3-2.1
		l-0.7-2.1l-1.7-1v4.2L1003.1,427z M1001.8,439.4l2.8,1v-2.4l1-2.1l-2.1-1h-2.4l2.1,3.1L1001.8,439.4z M1009,304.8l0.7-1.7l-2.1-1
		v2.1L1009,304.8z M1009,246.9h1.7v-1.7h-1.7V246.9z M1009,278.1l1.7,0.7l0.7-1.4l-1.7-0.7L1009,278.1z M1015.3,449.8l0.3,2.4
		l1.4,0.7h2.4v-2.8l-2.1-0.7L1015.3,449.8z M1022.5,458.8h1.4l0.7-1.4l-1.4-0.7L1022.5,458.8z M1035.3,460.6l1.7,0.3l1-2.1l-2.1,0.3
		L1035.3,460.6z M1058.2,466.5h1.4v-1.7h-1.4V466.5z M1080.7,460.6l1.4,0.7l0.7-1.7l-1.4-0.7L1080.7,460.6z M1218.2,249.7l-3.8,7.6
		l-13.2,12.5l-6.6-0.7l-3.1,2.1l-4.5-2.1h-9l-16.6,2.1l-4.2-0.3l-3.8-1.7h-68.2l-2.1-3.1l-1-5.9l1.4-8.7l1.7-3.1h40.2l1.4-0.7
		l0.7-1.7l7.6,1.7l6.2,0.7l3.5-1.4l3.8,1.4l13.2-2.1l2.1,0.7l4.2-1l2.1,0.3l2.1,1.4l5.9-2.4l1.7,1l3.8,0.3l3.8-0.7l3.8,0.3l3.5,1.7
		l2.1,0.3l7.6-1.4l2.8,1.4l5.9-0.3l3.8,0.7L1218.2,249.7z M1193.6,350.1l-0.3,2.4l-2.1,3.8l-5.5,5.9l-1.4,4.5l-4.5,1l-9.7,4.8
		l-2.1-1l-4.2-0.3l-11.1,1.4l-4.5-1.4h-15.6l-8.3,0.7h-35l-5.2-2.4l-1.4-3.1l-0.3-4.2l1-11.1l2.4-0.7l0.7,1.4l3.1-2.4h9l2.1,0.7
		l6.6-1h34.6l14.5,0.3l2.1-1v-1.7l9,1.4l1.4-1.7h1.7l1.4,1l0.7,2.1l8-0.3l11.1,0.7L1193.6,350.1z M1086.6,355.3l5.2-0.7l-3.1-2.1
		l-1.4,1L1086.6,355.3z M1091.1,459.5l1.7,0.7l1.7-0.3l1-1.7l-3.8,0.3L1091.1,459.5z M1115.7,465.8h1.4l0.7-2.4h-1.4L1115.7,465.8z
		 M1128.8,355.3h2.4l-0.7-1l-1.7-0.3V355.3z M1149.9,360.5h1.4v-1.4h-1.4V360.5z M1151.3,458.1h1.4v-1.4h-1.4V458.1z M1174.5,252.8
		h-3.1l0.7,1.7h1.4L1174.5,252.8z"/>
</g>
<g>
	<path fill="#1D252E" d="M262.8,183.2l1,21.5l1,3.8l-1.7,8.3l1,17.7l-0.3,6.2l-1,3.8l-3.1,4.8h-65.4l-12.5,0.7l-2.4,2.8v3.8h-3.5
		v2.4l2.8,2.4l0.7,2.1l-0.3,4.8l-1,1.7l1.4,16.3v33.2l-0.7,33.2v16.3l1.4,4.5l-0.7,3.8l1.7,5.9l-1.7,5.9l0.7,7.3l-1.4,23.9l1,17
		l-0.3,8l-2.1,6.2h-58.9l-1.4-1.4v-2.8l-1.7-0.3l-2.1,3.1h-2.4l-1.7-7.3V409l-0.7-33.2l0.7-15.2l1-1.7l-1.4-16.6v-56.8l1.4-9.3
		l-1-4.2v-17.7l-2.4-4.8l-32.9-0.7H58.2l-16.3,1l-3.8-0.3l-6.6-1.7l-4.5,0.3L25,237.2l-0.3-17l0.7-17.3L24.6,187l0.7-3.8l6.9-2.1
		l16.6-0.3l17.7,0.7l8.7-0.7l10.4,0.7l3.8-2.1l7.6,1.7h66.5l16.6,0.3l10.4-2.1l14.9,1.7h27l9.7-1l9,1.4l8.3-0.3l1.7,0.7L262.8,183.2
		z M33.6,246.2l1.4,0.7l0.7-1.4l-1.4-0.7L33.6,246.2z M64.1,215.8l1.4,0.7l0.7-1.4l-1.4-0.7L64.1,215.8z M70.7,225.5l1.7,3.1
		l0.7-3.8l-1.4-0.7L70.7,225.5z M72.4,212l1.4-3.8l-1.4-1.4l-1.4,1.7v2.1L72.4,212z M71.7,239l2.1,0.7l-1.4-2.4L71.7,239z
		 M89.4,211.3v-5.2H88l-1.4,3.1l0.7,1.7L89.4,211.3z M93.2,218.9l0.7-1.7l-1.4-1.4l-0.7,1.7L93.2,218.9z M93.9,230l1.4,0.7l0.7-1.4
		l-1.4-0.7L93.9,230z M99.8,207.5l1.7,1l0.7-1.7l-1.7-0.7L99.8,207.5z M99.8,221.7v3.1l3.5-1.4l0.3-1.7l-2.1-0.3L99.8,221.7z
		 M101.5,195.7h1.4v-1.4h-1.4V195.7z M101.5,212l2.1-0.7l0.7-2.1l-2.1,0.7L101.5,212z M105.7,230.7l3.1,1.4l0.7-2.1l-1.4-1.4l-1.4,1
		L105.7,230.7z M110.2,204l-0.7-2.1l-1.4-1l-0.7-2.1l-0.7,2.1l0.7,2.1l1.4,1.4L110.2,204z M114,265.6l1.4-2.1h-2.1L114,265.6z
		 M114,210.6l1.4-0.7l0.7-3.1h-1.4l-0.7,1.4V210.6z M117.8,225.5l-0.7-1.7l-3.1-1.4v2.8l1.7,1L117.8,225.5z M115.3,338.7h1.7v-1.4
		h-1.7V338.7z M121.6,233.1h3.5l-0.7-2.4l-1.7,0.7L121.6,233.1z M125.7,244.2l-1.7-1.4h-2.4l0.7,2.1l2.1,0.7L125.7,244.2z
		 M123.7,273.9v-3.1h-2.1v2.4L123.7,273.9z M125,343.2l-2.8-2.4l1,2.4H125z M130.2,226.2l0.7-1.7V222l-1.4-1l-2.1,1l-1,1.4v1.4
		l1.4,1L130.2,226.2z M126.8,250.7l0.3,1.7l3.8,0.7l-0.3-2.4l-1.7-0.7L126.8,250.7z M129.5,268l-0.7-3.8l1.4-1.4h-2.1l-1.4,3.5
		l0.3,1.4L129.5,268z M127.5,239l2.8,1.4l1-1.7v-2.4l-1-1.7h-2.8l0.3,2.1L127.5,239z M130.2,349.8l-2.1,0.7l1.4,1.4L130.2,349.8z
		 M130.9,294.7v-2.4l-2.1-0.7l0.3,2.4L130.9,294.7z M129.5,209.2l1.4-1l-1.4-1.4V209.2z M135.4,402v-4.2l-1.4-0.3l-0.3,3.8
		L135.4,402z M136.5,203.3H134l1.4,1L136.5,203.3z M134,216.5l2.4-1.4l3.5,0.7l-3.1-2.8l-2.1-1L134,214V216.5z M137.2,246.9l-1-1.4
		l-2.1-0.7l0.7,2.1H137.2z M134,260.4h1.4V259H134V260.4z M134,286.4l0.7,2.4l2.4-0.7l0.7-2.4l-2.1,0.3L134,286.4z M135.4,332.8
		l1-2.4v-1.7l-1.7-1l-0.7,1.7v2.4L135.4,332.8z M134.7,271.5h1.7v-1.4h-1.7V271.5z M134.7,358.8h2.8l1-1.4h-2.4L134.7,358.8z
		 M135.4,230h2.4l-0.7-1.4h-1.7V230z M135.4,243.5l3.8,1.4l-0.7-1.7l-1.7-1L135.4,243.5z M135.4,301.3h1.7v-1.4h-1.7V301.3z
		 M137.9,373.7l-0.3-2.4l-2.1-0.7l0.7,2.1L137.9,373.7z M138.5,316.2l0.7-2.8l-2.8-0.7v2.8L138.5,316.2z M137.9,428h1.4v-1.4h-1.4
		V428z M140.6,239l4.5,1.4l-1-3.1l-1.4-1l-2.1-0.3V239z M142.4,226.2l2.8-0.7l-2.8-4.5v2.4l-0.7,1.4L142.4,226.2z M143,254.5
		l2.1-3.8l-1-1.4l-1.7-0.7l-0.7,4.5L143,254.5z M141.7,308.9l3.5,1l1-1.7l-1.4-1l-2.4,0.3L141.7,308.9z M143,380.9l0.3-2.1l-1.7-1.4
		v2.4L143,380.9z M142.4,206.8l0.7,2.1l1,1l2.1,0.7v-2.4l-1-2.1L142.4,206.8z M142.4,265.6l2.1,0.7l-1.4-2.1L142.4,265.6z
		 M142.4,292.6h2.8l-0.3-2.1l-1.7,0.3L142.4,292.6z M142.4,320.7h2.1l0.7-1.4l-2.1-0.3L142.4,320.7z M143,394.4l2.4-0.3l0.7-2.4
		l-2.4,0.7L143,394.4z M143.7,235.8l1.4,0.7v-1.4l-1.4-0.7V235.8z M143.7,279.1h1.4v-1.4h-1.4V279.1z M145.1,336.3l0.3-2.1l-1.7-0.7
		v2.1L145.1,336.3z M146.2,363.3h-2.4l1,1L146.2,363.3z M144.4,352.2l1.4-1l-1.4-1.4V352.2z M144.4,378.2h1.7v-1.4h-1.7V378.2z
		 M152,229.3l-2.1-0.7l-1.7,0.7l-1,1.7l1.4,1.4l1.7,0.3l1.7-1V229.3z M147.5,244.2l0.3,1.7l1.4,1h2.1l-0.7-2.1l-1.7-1L147.5,244.2z
		 M148.2,270.8l1.4,1.7l-1.4,3.5l2.4-0.3l2.8-3.1l-1.4-1.7l-1.7-0.7L148.2,270.8z M148.2,288.1h1.4v-1.7h-1.4V288.1z M150.3,318.6
		l0.7-1.7l-1-1.7l-1.7-1l0.3,3.8L150.3,318.6z M152.7,218.2l0.3-2.1l-1-1.7l-2.4-0.7l-0.7,2.1l1.4,1.7L152.7,218.2z M148.9,359.5
		l1.7,0.7l1-1l-1.4-1L148.9,359.5z M149.6,331.1l1.7,1l0.7-1.7l-1.7-0.7L149.6,331.1z M154.8,238.3l1.4,1.7l2.4,0.3v-4.5l-1.4-1.4
		l-1.4,1.7L154.8,238.3z M155.5,264.2l3.8,2.8l0.7-1.7l-1-1.7l-1.7-0.7L155.5,264.2z M155.5,281.2l3.8-1.4l-0.7-2.1l-2.1-1l-1,2.1
		V281.2z M158.6,338.7l0.7-1.7l-2.1-2.8l-1.7-0.7l0.3,3.8l0.7,1.4H158.6z M156.6,225.5l3.5-1.4l-0.3-1.7l-1-1l-2.1-0.3l-0.7,2.4
		L156.6,225.5z M159.3,253.9v-4.2l-1-1h-1.7l-0.3,3.1l1,1.7L159.3,253.9z M158.6,366l0.3-1.4l-1.7-1.4l-0.7,2.1L158.6,366z
		 M159.3,295.4l-0.3-1.7l-1.7-0.3l0.3,1.7L159.3,295.4z M162.4,232l1.4-1l0.7-2.4l-2.1,0.7V232z M162.4,400.3l1.7,1.4l2.8,0.3
		l-1-2.1l-2.1-1L162.4,400.3z M166.2,241.7h-3.1l0.3,2.1h2.1L166.2,241.7z M163.8,273.9l2.1-0.7l0.7-1.4l-1-1.4l-2.4-0.3v2.1
		L163.8,273.9z M163.1,385.4l1,0.7l1-2.1l-1.4,0.7L163.1,385.4z M165.2,259.7l1-1.4l-0.7-1.7l-1.7-0.7l-0.3,2.1L165.2,259.7z
		 M164.5,218.9h2.4l-0.7-1.7l-1.7-0.7V218.9z M169.7,225.5l3.8,0.7l0.3-2.8l-1-1l-0.7,1.4l-1.7,0.3L169.7,225.5z M174.2,211.3
		l-0.7-4.5l-2.1,0.7l1,3.5L174.2,211.3z M171.4,264.2h1.4v-1.4h-1.4V264.2z M171.4,279.8h1.4v-1.4h-1.4V279.8z M172.1,236.5l1.4,0.7
		l0.7-1.4l-1.4-0.7L172.1,236.5z M176.6,233.1h2.4l2.1-1l-1-3.5l-3.8,2.8L176.6,233.1z M176.6,215.8h2.4l2.8,2.4l-0.3-2.8l-2.8-2.4
		L176.6,215.8z M176.6,246.2h1.4v-1.4h-1.4V246.2z M178.7,204l2.1,0.3l1-2.1l-2.1,0.3L178.7,204z M178.7,244.2l2.4,2.8l0.7-1.7v-2.4
		h-2.1L178.7,244.2z M185.3,211.3h1.7v-1.4h-1.7V211.3z M191.5,218.9l0.7-1.4l-0.7-1.7l-1.7-0.7l0.3,2.4L191.5,218.9z M198.8,222.3
		l0.7,2.1l3.1-0.3l-1.7-1.7H198.8z M204.7,215.8l1.7,3.1l2.1-0.7l0.7-2.4l-1.4-1.4l-1.4,0.7L204.7,215.8z M205.4,230h1.7v-1.4h-1.7
		V230z M212.3,222.3l1.7,0.3l1-1.7l-2.1,0.3L212.3,222.3z M212.3,236.5h1.4v-1.4h-1.4V236.5z"/>
	<path fill="#1D252E" d="M447.7,181.1l1.4,0.7l-1,1.4l0.3,1.4l2.4-0.3l2.1-3.1h17.3l8,1.4l14.2-1.4H527l17-0.3l30.1,1.7l1,17v31.9
		l0.3,12.1l-2.1,5.2l-1.7-0.3l-3.5,1l-2.8-1.4l-7.6,1.4l-32.5-0.7l-32.5,0.7l-33.6-0.7l-10,0.7l-3.8,2.4l-4.2-0.3l-1,1.7l-1.7-1.4
		l-1.7-0.3l-3.1,2.4l0.7,1.4l1.7-0.3l1.4,0.7l-0.3,4.5l-1,3.5l-2.4,3.1l0.3,1.7l1.7,0.7l1,1.4l-0.3,10l-0.7,1.7l3.1,2.8l5.2,3.1
		l3.5-1.4l3.8,0.7l34.3-0.7l16.6,0.3l9.7,1l15.6-1.4l21.5,0.7l1.7,3.8l1,8.7l-1,21.1l1.4,9.7l-1.4,8l0.3,4.2l-0.7,5.5l-1.4,1.7
		l-17.7,0.7l-16.6-0.7l-6.6-1l-6.2,1.7h-4.8l-3.8-1.7l-1.7,1l-3.5,0.7h-4.5l-2.1-1.7l-10.7,1.7l-3.5-1.7l-4.2,1l-8,0.7h-16.3l-2.1-1
		l-1-2.1l-1.4,3.1l3.5,4.8l1.7,1l-0.3,2.1l-1.7,3.1l1.4,4.5l-2.1,3.1v8.7l-1,1.7l9,8l1.7-3.5l1.7,0.7l5.2-0.3l1.7,1v2.1l1.7-1.4
		l0.7-2.1h114.6l3.8,3.5l-0.7,30.8l0.7,30.5l-8,2.1l-16.6,1l-32.9-1l-3.8,2.1l-3.5-1.4l-13.2,0.7l-4.8-0.3l-3.8-1l-9,1.4l-3.5-1.4
		l-8,1.4l-15.6-1.4l-32.9,0.7l-20.4-0.7l-3.8,2.1l-3.1-1.7h-21.5l-3.5-1l-1-8.7l0.3-4.2l0.7-1.4l-2.4-1.4l1-4.2l-1-12.5l1-12.5
		l-1-3.8l1-3.5v-11.8l-1-3.5l1.4-4.5l-1.4-2.1l1.4-8l-0.7-13.2l1-12.5l-1.7-3.5l1.4-8.7v-67.9l0.3-15.9l-0.7-8l0.3-4.2l1-2.1
		l-1.4-7.3v-34.3l-0.3-6.2l2.1-1l1.4-2.1l2.1-1h33.6l11.1,1.4l8.3-1h20.8L447.7,181.1z M377.8,379.9h1.4v-1.7h-1.4V379.9z
		 M381.3,224.8l-0.7-1.7l-2.1-0.3l0.3,2.1l1,0.7L381.3,224.8z M379.2,254.5l2.1-1l-1.4-1.7L379.2,254.5z M384.4,247.3l2.8,0.3l1.7-1
		l-1.4-1l0.7-2.1l-3.1,2.1L384.4,247.3z M384.4,357.4l0.7,1.7l3.8,0.7V356l-2.4,1.7L384.4,357.4z M385.1,233.8l1.7-0.7l1.4-3.1
		l-2.4-1.4l-0.7,1.4V233.8z M385.1,275.7l3.8-3.1l-3.1-1.4l-0.7,1.7V275.7z M386.8,332.1l2.1-0.7l0.7-2.4l-2.1-0.3l-1.4,1.4
		L386.8,332.1z M388.2,387.2v-1.4l-1.4-0.7l-0.7,1.4L388.2,387.2z M387.5,400l0.7-3.1l-2.1,0.3v1.7L387.5,400z M390.3,310.6l4.5,0.7
		l2.1-0.7l0.3-2.4h-5.9L390.3,310.6z M391,393.7l2.4,0.7l2.1-0.7V391l-3.5,1.4L391,393.7z M392.7,241.4l2.1-0.3l1-1.7l-0.3-2.1
		l-1.4-1.7H392l0.7,3.5V241.4z M392,268.7h2.1l-2.1-1.4V268.7z M392,282.2l2.1-0.7l0.7-2.4H393l-1,1V282.2z M392,365l1.4,2.1
		l1.7-0.3l1-1.4v-2.1l-2.8,0.3L392,365z M392,379.9l2.8,0.7l-0.3-2.1H393L392,379.9z M394.8,407.2l-2.8-1.4l0.3,1.7l1.4,1
		L394.8,407.2z M393.4,352.9l1.7-0.3l1-1.7l-2.1-1.7l-1.4,2.1L393.4,352.9z M540.9,139.2l-4.2,6.6l-14.5,18l-1.4,0.7l-3.8-0.3
		l-28-18.3l-17.3-11.1l-2.1,0.3l-3.8,2.1l-6.9,5.9l-23.2,13.5l-3.5,3.5l-9,4.5l-3.8-1.7l-2.8-2.8l-4.8-6.6l-3.5-2.1l-1-3.1
		l-11.4-13.5l-1.7-3.5l0.3-3.8l1-1.7l4.8-3.5l2.8-3.8l4.5-1.4l12.8-11.1l23.5-17.3l6.9-6.9l4.2-1.4l2.1-2.8l6.9-6.2l5.2-3.5h2.1
		l7.6,4.5L500,88l5.5,5.2l2.4,0.7l2.1,3.5l2.8,2.8l1,2.1l6.2,2.1l3.5,2.8l2.4,3.1l5.2,2.4l3.5,5.2l3.1,1.4l6.9,4.8l2.8,2.8l0.7,2.1
		l-1,4.2l-4.5,4.8L540.9,139.2z M397.2,336.6l-1-2.1l-2.1-1l0.3,2.4l1.4,1L397.2,336.6z M399.3,218.2l1.4,0.7l1-1.4l-1.7-0.7
		L399.3,218.2z M403.8,246.6l-0.3-1.7l-1.7-0.7h-2.4l0.7,2.1l1.7,0.7L403.8,246.6z M400,290.6h2.1l1.4-0.7l0.3-1.7h-3.1v-1.4
		l-1.4-0.7v2.4L400,290.6z M399.3,302.3l2.1-0.7l1-1.4l-2.1,0.7L399.3,302.3z M400.7,315.8l0.7-1.7l-1.4-1.4l-0.7,1.7L400.7,315.8z
		 M402.4,374.7L401,373l-1.7,0.7l1.4,0.7L402.4,374.7z M399.3,385.1l0.7,2.1l2.1,1l1.7-0.3l-0.7-2.4l-2.1-0.7L399.3,385.1z
		 M402.4,400.7v-3.5l-1.7-0.3l-0.7,1.4l0.3,1.7L402.4,400.7z M403.1,416.2l0.7-3.1l-1.7,0.7l-0.3,1.4L403.1,416.2z M405.2,240.7
		l1.7,0.7l3.8-1.4l0.3-1.7l-1-1.7h-3.5l-1.4,1.7V240.7z M411,295.1l-3.8-0.7l-2.1-1v2.1l1.7,1.4h3.5L411,295.1z M405.2,366.4
		l2.1,0.3l1.7-1l-1-1.7l-2.1-0.7l-0.3,1.7L405.2,366.4z M405.9,408.6h2.8l1.7-1l0.7-1.7l-3.1-1.4h-2.1l-0.7,2.1L405.9,408.6z
		 M409,269.4l0.7-2.1l-0.7-2.1l-2.1-1l-1.4,1.7v1.7l1,1.4L409,269.4z M405.9,253.2l3.5-0.7l1.7,0.7l-0.3-1.7l-3.1-2.1l-1.7,2.1
		V253.2z M405.9,323.8l2.1,1.4l2.4-0.3l-0.7-2.4l-1.4-1.4l-0.7,1.7L405.9,323.8z M406.9,281.6l2.1-0.7l0.7-2.4h-1.7l-1,1V281.6z
		 M407.6,310.6l1.7,0.7l1.4-1l0.3-2.1l-2.4,0.7L407.6,310.6z M410.4,338l0.7-2.1l-1-1.4l-2.4-0.3l1,3.5L410.4,338z M411,351.5
		l-1.4-0.7h-2.1l0.3,2.1h2.1L411,351.5z M409.7,395.5l-0.7-3.8l-1.4-0.7l0.3,3.8L409.7,395.5z M408.3,213l3.1-2.8l-1.7-1l-0.7,2.1
		L408.3,213z M408.3,378.8v1.7l0.7,0.7h1.4l0.7-0.7v-1.7l-0.7-0.7H409L408.3,378.8z M408.3,420.7l2.1,1.4l0.3-1.7l-1.7-1
		L408.3,420.7z M412.1,288.8l3.1,1.4l2.1-0.7v-2.4l-1.4-1.7h-2.1l-1.4,1L412.1,288.8z M413.5,304.4h2.8l1.7-1.4l-1-2.4l-3.1-0.7
		l-1.4,0.7l-0.3,1.7L413.5,304.4z M413.5,204.7h2.1l0.7-1.7l-0.7-1.7l-1.4-1l-1.4,2.4L413.5,204.7z M412.8,231h1.4v-1.7h-1.4V231z
		 M413.5,247.3l2.1-0.7l1-1.7l-3.8-0.7v1.7L413.5,247.3z M412.8,273.9l2.1,2.4l3.1-2.4l-3.8-1.4L412.8,273.9z M412.8,343.2l0.7,1.7
		l1.7,0.7l1.7-1l1-2.1l-2.4-2.1l-0.7,2.1L412.8,343.2z M415.5,360.5l-1.4-3.8l-1.4-0.7l1,3.8L415.5,360.5z M416.6,373l-3.1-2.1
		l-0.7,1.7l0.7,1.4l1.7,0.7L416.6,373z M416.6,388.5l0.3-1.7l-1-1.4l-0.3-2.8h-2.1l-0.7,4.2l1.4,1.7H416.6z M414.9,402l-0.7-2.1
		l-1.4-0.7l0.3,2.1L414.9,402z M413.5,262.9h1.4l0.7-1.4l-2.1-0.7V262.9z M413.5,332.1l4.5-0.7l-1.7-3.8l-2.1-0.7l-0.7,3.1V332.1z
		 M418,414.9l-0.7-2.1l-1.7-1l-1.4,0.7l1.7,1.4L418,414.9z M414.9,218.9l1.7-0.3l0.7-1.4v-2.1l-2.4,1V218.9z M414.9,233.8l1.4-1
		l-1.4-1V233.8z M418.7,296.4l1.7-1l1-1.7l-1.4-1l-1,1.4L418.7,296.4z M418.7,335.9v2.1h4.5l-0.3-2.1l-2.1-0.7L418.7,335.9z
		 M421.8,193.6l-2.4,0.7l0.3,1.4l1.7-0.7L421.8,193.6z M419.4,266l1,2.1l1.4,0.3l1.7-1.4l0.3-2.8l-2.4,0.7L419.4,266z M419.4,308.2
		l2.1,3.1l1.7-2.1l-0.7-2.4h-2.1L419.4,308.2z M422.5,325.5l0.7-2.4l-1-2.1l-2.1-0.7l-0.7,2.1l1,2.1L422.5,325.5z M423.2,422.8
		l-1-2.1l-2.1-1.4l-0.7,1.7l0.7,1.7l1.4,1L423.2,422.8z M421.8,255.6l1.4-3.5v-2.8l-2.1,0.7l-1.4,2.1l0.3,2.1L421.8,255.6z
		 M421.8,212.3l1-2.1v-2.1l-2.1-1l-0.7,4.2L421.8,212.3z M423.2,378.2l-0.7-1.7l-2.4-0.3l1,1.7L423.2,378.2z M422.5,394.8l0.7-2.1
		l-0.3-1.7l-2.1-0.7L420,392l0.3,2.1L422.5,394.8z M422.5,435.6l-0.7-1.7l-1.7-0.7l0.7,1.7L422.5,435.6z M420.7,222.7v2.1l2.4,0.7
		l2.1-0.7l-0.7-2.1l-1.7-0.3L420.7,222.7z M422.5,237.6l0.3-2.1l-2.1-1l0.3,2.1L422.5,237.6z M423.2,350.8v-3.1h-2.4l0.7,2.1
		L423.2,350.8z M427,331.4l1.7-1.4v-2.1l-1-1l-1,2.1L427,331.4z M427,118.5l1.4,0.7h2.1v-4.5l-1.7,0.7l-1,1.4L427,118.5z M427,216.8
		l2.1-0.3l0.7-1.4l-2.1-0.3L427,216.8z M429.7,234.5l1.4-1.7l-1.4-3.5l-2.1-0.7l-0.7,1.7l1.4,3.1L429.7,234.5z M427,261.5h1.4v-3.1
		H427V261.5z M427,275.7l1.4-0.7v-2.4l-1.4-0.7V275.7z M427,287.4h1.4v-1.4H427V287.4z M427,343.2l1.7,0.7l1.4-1l0.3-2.4l-2.4,0.7
		L427,343.2z M427,370.9l0.7,2.4l2.1,1.4l1.7-4.5l-2.4,0.3L427,370.9z M427,384.4l0.7,1.7l2.8-0.3L429,384L427,384.4z M428.4,401.4
		h2.1l1-1.4h-3.1l-1.4-0.7L428.4,401.4z M427,413.1l2.1-0.3l1.4-1l-2.4-0.7L427,413.1z M427.7,318.6h2.8v-2.8l-1.4-0.7l-1,1.4
		L427.7,318.6z M427.7,441.5l1.7-0.7l1-1.4h-2.1L427.7,441.5z M430.4,302.3v-2.1l-1.4-1l-0.3,2.1L430.4,302.3z M429,204.7l1.7-0.3
		l0.7-1.7l-0.7-1.7l-1.7-0.7l0.3,2.4L429,204.7z M429,244.2l1.4,0.7v-1.4l-1.4-0.7V244.2z M433.6,111.9h1.4v-1.7h-1.4V111.9z
		 M433.6,125h2.1l1-1.4l-2.1-0.3L433.6,125z M433.6,378.8h1.4v-1.4h-1.4V378.8z M434.2,194.3l1.7,0.7l1.4-0.3l0.7-1.7l-2.4,0.3
		L434.2,194.3z M434.2,236.9v1.4l1.4-0.7l-0.7-1.4L434.2,236.9z M434.2,393l1.7,1.4l2.1-0.7l-0.7-1.7l-2.1-0.3L434.2,393z
		 M434.2,420.7l1.7,0.7l1.4-1.4l-1.7-0.7L434.2,420.7z M435.6,424.6h2.4l-0.7-1.4l-1.7-0.3V424.6z M437.4,227.2l1.4-2.1v-2.4
		l-1.4-1.4v2.8l-1.4,1.7L437.4,227.2z M436.7,325.5l1.7-1l0.3-2.8l-1.4-1.4l-0.7,1V325.5z M437.4,112.6h1.4v-1.7h-1.4V112.6z
		 M437.4,310.6h1.4v-3.1h-1.4V310.6z M440.8,119.2l2.1-0.7l1.4-1.4l0.3-2.4l-2.1,0.7l-1,1.7L440.8,119.2z M440.8,204l3.8,0.7v-2.8
		l-2.4,0.7L440.8,204z M443.2,331.4l-0.3-2.4l-1-1.4l-1,1.4l0.7,1.7L443.2,331.4z M441.9,233.8l2.8-0.7V231l-2.8-1.7l-0.7,2.4
		L441.9,233.8z M442.6,304.4l1.7-3.5l-0.3-1.7h-2.1l-0.7,1.7v2.4L442.6,304.4z M441.9,315.1l1.4-0.7l0.7-1.7l-1.7,0.7L441.9,315.1z
		 M442.6,106.7l2.1-0.3l1-1v-1.7l-1.7-0.7l-1,1.4L442.6,106.7z M444.6,425.9l-1.4-0.7l-0.7,1.7v0.3L444.6,425.9z M445.3,429.7
		l-2.4-1l0.3,0.3L445.3,429.7z M445.3,246.6l-0.3-2.4l-1.7-1.4v2.1l0.7,1.4L445.3,246.6z M444.6,416.9l0.7-3.5l-1.4-1l-0.7,3.5
		L444.6,416.9z M447.7,208.5l1.7,0.7l1-2.1h-2.1L447.7,208.5z M447.7,225.8l2.1,0.7l2.4-1l0.7-2.1l-1.7-1h-1.7l-1.4,1L447.7,225.8z
		 M450.5,311.3l0.3-1.4l-1-1.7l-2.1-0.7v2.1l0.7,1.4L450.5,311.3z M451.6,325.5l3.8-2.1l-6.2-3.1l-1,1.4v1.7l1.4,1.4L451.6,325.5z
		 M449.1,113.3l0.3-2.4l3.5-1.4l-1.4-1l-2.4-0.3l-0.3,3.5L449.1,113.3z M449.1,198.1l2.1-0.7l0.3-1.7l-1-2.1l-1.4-0.7l-0.3,3.8
		L449.1,198.1z M451.6,239.7v-2.1l-1.7-2.1l-0.7,1.7l0.3,1.7L451.6,239.7z M451.6,99.8l0.3-1.7l-2.1-1l0.3,2.1L451.6,99.8z
		 M450.5,128.2l1.4-1.4l-0.3-1.7l-1.7,1.7L450.5,128.2z M449.8,211.6h3.1l-1.7-1.4L449.8,211.6z M451.6,296.4l1.4-1l-1.4-1.4V296.4z
		 M452.2,107.4h1.4l0.7-1.7l-2.1-0.7V107.4z M455,105.7l1.4,0.3l3.1-2.4l-1.4-1v-2.1l-2.1,1l-0.7,1.7L455,105.7z M455,118.5l3.1,2.1
		l1.4-1.7l-1.4-4.2l-1.7,0.7l-0.7,1.4L455,118.5z M458.1,204.7l-0.7-2.1l-2.4-0.7v1.7l1,1H458.1z M455,231.7l3.1,0.7l-0.3-1.7
		l-1.7-0.3L455,231.7z M458.1,304.4l-1-3.5H455v2.1l1,1.4H458.1z M455,316.5l3.5-1.7l0.3-2.1l-2.1,0.3l-1,1.4L455,316.5z M455,414.9
		l2.1-0.7l2.4-2.4l-2.8-0.7l-1,1.7L455,414.9z M458.8,429.7l-1.4-1.7l-2.4-0.7l0.7,1.7l2.1,1L458.8,429.7z M456.8,218.9l0.3-1.7
		l-1.4-1l-0.3,1.7L456.8,218.9z M455.7,90.1l0.3,1.7l1.4,0.7l2.1-2.4l-2.1-0.3L455.7,90.1z M458.8,244.9l-3.1-0.7l0.7,2.1h1.4
		L458.8,244.9z M464.7,209.9h-6.9l4.5,2.1h1.7L464.7,209.9z M458.1,401.4h1.4V400h-1.4V401.4z M459.5,85.6h1.7v-1.4h-1.7V85.6z
		 M461.3,295.7l2.1,0.7l-1.4-2.4L461.3,295.7z M461.9,110.9h2.8v1.7l2.1-0.7l0.3-2.4l-2.1-0.7l-2.1,0.7L461.9,110.9z M465.4,337.3
		l-2.8-0.7l1,2.1L465.4,337.3z M462.6,393l1,1.7l2.4-0.3l1-1.4l-2.1-0.3L462.6,393z M466.4,80.4l-1-2.1l-2.1-0.7l0.7,2.1L466.4,80.4
		z M464.7,99.1l1.7-0.3l1-1.4l0.3-2.1l-3.1-0.7l-0.7,2.1L464.7,99.1z M466.4,126.1l0.7-1.7l-1-1.7l-2.1-0.3l0.7,2.4L466.4,126.1z
		 M464.7,194.3l1.7,0.7l0.7-1.4l-1.7-0.7L464.7,194.3z M465.4,91.8h2.4l-0.7-1.4l-1.7-0.3V91.8z M465.4,310.6l1.7-0.3v-1.7l-1.7-0.3
		V310.6z M469.2,88.7l2.4,3.8l1.4-3.8H469.2z M469.2,105l1.7,1.4l2.1-0.7l-0.7-1.7l-2.1-0.3L469.2,105z M469.2,117.8l2.4-0.7
		l0.7-2.4l-2.4,1L469.2,117.8z M471.6,234.5l1.4-4.5l-2.4,1l-0.7,2.1L471.6,234.5z M470.6,342.5h1.7v-1.4h-1.7V342.5z M473.7,328.6
		l-1.4-1l-1.4,3.1L473.7,328.6z M472.3,332.1l-1.4-1L472.3,332.1z M472.3,132.7h1.4v-1.4h-1.4V132.7z M473,317.2h1.4v-1.4H473V317.2
		z M479.6,113.3l0.7-1.7l-0.3-2.1l-1.7-0.7l-0.7,1.7l0.3,2.1L479.6,113.3z M477.5,209.2h1.4v-1.4h-1.4V209.2z M479.6,99.1l1.7-3.1
		l-2.1,0.3l-0.7,1.7L479.6,99.1z M478.9,295.1l1.4,0.7l1-1.7l-1.7-0.7L478.9,295.1z M478.9,324.8l1.4-1l-1.4-1.4V324.8z
		 M481.3,407.9v-2.8h-2.4v2.4L481.3,407.9z M479.6,79.7l1.7,0.7L482,79l-1.7-0.7L479.6,79.7z M482.7,103.6l5.2-1.4l-1.4-1l-2.1-0.3
		l-1.4,0.7L482.7,103.6z M483.4,90.1l1,1.7h1.7l1-1.7l-2.1-0.3L483.4,90.1z M484.1,117.8l2.4-2.4l-1.7-0.7l-1.4,1.4L484.1,117.8z
		 M485.5,218.2v-3.1h-2.1v2.8L485.5,218.2z M484.1,318.6h1.4l0.7-1.4l-1.4-0.7L484.1,318.6z M489.3,119.9l-0.7-1.7l-1.4-1l-0.7,2.1
		l1,1.4L489.3,119.9z M491.7,97h-2.4l1.4,1L491.7,97z M494.5,393.7l-0.7-1.7l-2.4-0.3l-2.1,0.7l3.5,1L494.5,393.7z M491,196h1.4
		v-1.7H491V196z M491,225.8l2.4-0.3l1-1.4l-1.4-0.7l-1.7,0.3L491,225.8z M491,407.2h1.4v-1.4H491V407.2z M493.8,98.4l0.7-1.7
		l-1.4-1.4l-0.7,1.7L493.8,98.4z M498.3,330.7l2.1-0.7v-2.4l-2.1-0.7l-0.7,1.7L498.3,330.7z M499,429.1h1.4l0.7-1.7l-1.4-0.7
		L499,429.1z M500.4,120.5l2.4-0.7l0.7-2.1l-2.1-0.7l-0.7,1.7L500.4,120.5z M507.3,239.7h-2.4l1.4,1.4L507.3,239.7z M504.9,434.3
		h1.7v-1.7h-1.7V434.3z M505.9,213l1.7,0.3l1-1.7h-2.1L505.9,213z M505.9,405.9l1.7,0.7l1-1.4l-1.7-0.7L505.9,405.9z M508,108.1
		l-0.7-2.4v2.8L508,108.1z M512.5,204.7h1.4l0.7-2.1h-1.4L512.5,204.7z M520.8,209.9h1.4v-1.4h-1.4V209.9z M521.5,194.3l1.4,0.7
		l0.7-1.4l-1.4-0.7L521.5,194.3z M523.6,407.2l-0.3-1.7l-1.7-0.3l0.3,1.7L523.6,407.2z M526,190.8h1.4v-1.7H526V190.8z M531.2,225.8
		l1.4-1l-1.4-1.4V225.8z M531.9,210.9l1.7,1l2.1-1l1-2.1l-1-1.7l-3.1,1.7L531.9,210.9z"/>
	<path fill="#1D252E" d="M909,183.2l1,21.5l1,3.8l-1.7,8.3l1,17.7l-0.3,6.2l-1,3.8l-3.1,4.8h-65.4l-12.5,0.7l-2.4,2.8v3.8H822v2.4
		l2.8,2.4l0.7,2.1l-0.3,4.8l-1,1.7l1.4,16.3v33.2l-0.7,33.2v16.3l1.4,4.5l-0.7,3.8l1.7,5.9l-1.7,5.9l0.7,7.3l-1.4,23.9l1,17l-0.3,8
		l-2.1,6.2h-58.9l-1.4-1.4v-2.8l-1.7-0.3l-2.1,3.1H757l-1.7-7.3V409l-0.7-33.2l0.7-15.2l1-1.7l-1.4-16.6v-56.8l1.4-9.3l-1-4.2v-17.7
		l-2.4-4.8l-32.9-0.7h-15.6l-16.3,1l-3.8-0.3l-6.6-1.7l-4.5,0.3l-2.1-10.7l-0.3-17l0.7-17.3l-0.7-15.9l0.7-3.8l6.9-2.1l16.6-0.3
		l17.7,0.7l8.7-0.7l10.4,0.7l3.8-2.1l7.6,1.7h66.5l16.6,0.3l10.4-2.1l14.9,1.7h27l9.7-1l9,1.4l8.3-0.3l1.7,0.7L909,183.2z
		 M679.7,246.2l1.4,0.7l0.7-1.4l-1.4-0.7L679.7,246.2z M710.2,215.8l1.4,0.7l0.7-1.4l-1.4-0.7L710.2,215.8z M716.8,225.5l1.7,3.1
		l0.7-3.8l-1.4-0.7L716.8,225.5z M718.5,212l1.4-3.8l-1.4-1.4l-1.4,1.7v2.1L718.5,212z M717.8,239l2.1,0.7l-1.4-2.4L717.8,239z
		 M735.5,211.3v-5.2h-1.4l-1.4,3.1l0.7,1.7L735.5,211.3z M739.3,218.9l0.7-1.7l-1.4-1.4l-0.7,1.7L739.3,218.9z M740,230l1.4,0.7
		l0.7-1.4l-1.4-0.7L740,230z M745.9,207.5l1.7,1l0.7-1.7l-1.7-0.7L745.9,207.5z M745.9,221.7v3.1l3.5-1.4l0.3-1.7l-2.1-0.3
		L745.9,221.7z M747.6,195.7h1.4v-1.4h-1.4V195.7z M747.6,212l2.1-0.7l0.7-2.1l-2.1,0.7L747.6,212z M751.8,230.7l3.1,1.4l0.7-2.1
		l-1.4-1.4l-1.4,1L751.8,230.7z M756.3,204l-0.7-2.1l-1.4-1l-0.7-2.1l-0.7,2.1l0.7,2.1l1.4,1.4L756.3,204z M760.1,265.6l1.4-2.1
		h-2.1L760.1,265.6z M760.1,210.6l1.4-0.7l0.7-3.1h-1.4l-0.7,1.4V210.6z M763.9,225.5l-0.7-1.7l-3.1-1.4v2.8l1.7,1L763.9,225.5z
		 M761.5,338.7h1.7v-1.4h-1.7V338.7z M767.7,233.1h3.5l-0.7-2.4l-1.7,0.7L767.7,233.1z M771.8,244.2l-1.7-1.4h-2.4l0.7,2.1l2.1,0.7
		L771.8,244.2z M769.8,273.9v-3.1h-2.1v2.4L769.8,273.9z M771.1,343.2l-2.8-2.4l1,2.4H771.1z M776.3,226.2l0.7-1.7V222l-1.4-1
		l-2.1,1l-1,1.4v1.4l1.4,1L776.3,226.2z M772.9,250.7l0.3,1.7l3.8,0.7l-0.3-2.4L775,250L772.9,250.7z M775.7,268l-0.7-3.8l1.4-1.4
		h-2.1l-1.4,3.5l0.3,1.4L775.7,268z M773.6,239l2.8,1.4l1-1.7v-2.4l-1-1.7h-2.8l0.3,2.1L773.6,239z M776.3,349.8l-2.1,0.7l1.4,1.4
		L776.3,349.8z M777,294.7v-2.4l-2.1-0.7l0.3,2.4L777,294.7z M775.7,209.2l1.4-1l-1.4-1.4V209.2z M781.5,402v-4.2l-1.4-0.3l-0.3,3.8
		L781.5,402z M782.6,203.3h-2.4l1.4,1L782.6,203.3z M780.2,216.5l2.4-1.4l3.5,0.7l-3.1-2.8l-2.1-1l-0.7,2.1V216.5z M783.3,246.9
		l-1-1.4l-2.1-0.7l0.7,2.1H783.3z M780.2,260.4h1.4V259h-1.4V260.4z M780.2,286.4l0.7,2.4l2.4-0.7l0.7-2.4l-2.1,0.3L780.2,286.4z
		 M781.5,332.8l1-2.4v-1.7l-1.7-1l-0.7,1.7v2.4L781.5,332.8z M780.8,271.5h1.7v-1.4h-1.7V271.5z M780.8,358.8h2.8l1-1.4h-2.4
		L780.8,358.8z M781.5,230h2.4l-0.7-1.4h-1.7V230z M781.5,243.5l3.8,1.4l-0.7-1.7l-1.7-1L781.5,243.5z M781.5,301.3h1.7v-1.4h-1.7
		V301.3z M784,373.7l-0.3-2.4l-2.1-0.7l0.7,2.1L784,373.7z M784.7,316.2l0.7-2.8l-2.8-0.7v2.8L784.7,316.2z M784,428h1.4v-1.4H784
		V428z M786.7,239l4.5,1.4l-1-3.1l-1.4-1l-2.1-0.3V239z M788.5,226.2l2.8-0.7l-2.8-4.5v2.4l-0.7,1.4L788.5,226.2z M789.2,254.5
		l2.1-3.8l-1-1.4l-1.7-0.7l-0.7,4.5L789.2,254.5z M787.8,308.9l3.5,1l1-1.7l-1.4-1l-2.4,0.3L787.8,308.9z M789.2,380.9l0.3-2.1
		l-1.7-1.4v2.4L789.2,380.9z M788.5,206.8l0.7,2.1l1,1l2.1,0.7v-2.4l-1-2.1L788.5,206.8z M788.5,265.6l2.1,0.7l-1.4-2.1L788.5,265.6
		z M788.5,292.6h2.8l-0.3-2.1l-1.7,0.3L788.5,292.6z M788.5,320.7h2.1l0.7-1.4l-2.1-0.3L788.5,320.7z M789.2,394.4l2.4-0.3l0.7-2.4
		l-2.4,0.7L789.2,394.4z M789.8,235.8l1.4,0.7v-1.4l-1.4-0.7V235.8z M789.8,279.1h1.4v-1.4h-1.4V279.1z M791.2,336.3l0.3-2.1
		l-1.7-0.7v2.1L791.2,336.3z M792.3,363.3h-2.4l1,1L792.3,363.3z M790.5,352.2l1.4-1l-1.4-1.4V352.2z M790.5,378.2h1.7v-1.4h-1.7
		V378.2z M798.2,229.3l-2.1-0.7l-1.7,0.7l-1,1.7l1.4,1.4l1.7,0.3l1.7-1V229.3z M793.7,244.2l0.3,1.7l1.4,1h2.1l-0.7-2.1l-1.7-1
		L793.7,244.2z M794.4,270.8l1.4,1.7l-1.4,3.5l2.4-0.3l2.8-3.1l-1.4-1.7l-1.7-0.7L794.4,270.8z M794.4,288.1h1.4v-1.7h-1.4V288.1z
		 M796.4,318.6l0.7-1.7l-1-1.7l-1.7-1l0.3,3.8L796.4,318.6z M798.9,218.2l0.3-2.1l-1-1.7l-2.4-0.7l-0.7,2.1l1.4,1.7L798.9,218.2z
		 M795,359.5l1.7,0.7l1-1l-1.4-1L795,359.5z M795.7,331.1l1.7,1l0.7-1.7l-1.7-0.7L795.7,331.1z M800.9,238.3l1.4,1.7l2.4,0.3v-4.5
		l-1.4-1.4l-1.4,1.7L800.9,238.3z M801.6,264.2l3.8,2.8l0.7-1.7l-1-1.7l-1.7-0.7L801.6,264.2z M801.6,281.2l3.8-1.4l-0.7-2.1l-2.1-1
		l-1,2.1V281.2z M804.7,338.7l0.7-1.7l-2.1-2.8l-1.7-0.7l0.3,3.8l0.7,1.4H804.7z M802.7,225.5l3.5-1.4l-0.3-1.7l-1-1l-2.1-0.3
		l-0.7,2.4L802.7,225.5z M805.4,253.9v-4.2l-1-1h-1.7l-0.3,3.1l1,1.7L805.4,253.9z M804.7,366l0.3-1.4l-1.7-1.4l-0.7,2.1L804.7,366z
		 M805.4,295.4l-0.3-1.7l-1.7-0.3l0.3,1.7L805.4,295.4z M808.5,232l1.4-1l0.7-2.4l-2.1,0.7V232z M808.5,400.3l1.7,1.4l2.8,0.3
		l-1-2.1l-2.1-1L808.5,400.3z M812.4,241.7h-3.1l0.3,2.1h2.1L812.4,241.7z M809.9,273.9l2.1-0.7l0.7-1.4l-1-1.4l-2.4-0.3v2.1
		L809.9,273.9z M809.2,385.4l1,0.7l1-2.1l-1.4,0.7L809.2,385.4z M811.3,259.7l1-1.4l-0.7-1.7l-1.7-0.7l-0.3,2.1L811.3,259.7z
		 M810.6,218.9h2.4l-0.7-1.7l-1.7-0.7V218.9z M815.8,225.5l3.8,0.7l0.3-2.8l-1-1l-0.7,1.4l-1.7,0.3L815.8,225.5z M820.3,211.3
		l-0.7-4.5l-2.1,0.7l1,3.5L820.3,211.3z M817.5,264.2h1.4v-1.4h-1.4V264.2z M817.5,279.8h1.4v-1.4h-1.4V279.8z M818.2,236.5l1.4,0.7
		l0.7-1.4l-1.4-0.7L818.2,236.5z M822.7,233.1h2.4l2.1-1l-1-3.5l-3.8,2.8L822.7,233.1z M822.7,215.8h2.4l2.8,2.4l-0.3-2.8l-2.8-2.4
		L822.7,215.8z M822.7,246.2h1.4v-1.4h-1.4V246.2z M824.8,204l2.1,0.3l1-2.1l-2.1,0.3L824.8,204z M824.8,244.2l2.4,2.8l0.7-1.7v-2.4
		h-2.1L824.8,244.2z M831.4,211.3h1.7v-1.4h-1.7V211.3z M837.6,218.9l0.7-1.4l-0.7-1.7l-1.7-0.7l0.3,2.4L837.6,218.9z M844.9,222.3
		l0.7,2.1l3.1-0.3l-1.7-1.7H844.9z M850.8,215.8l1.7,3.1l2.1-0.7l0.7-2.4l-1.4-1.4l-1.4,0.7L850.8,215.8z M851.5,230h1.7v-1.4h-1.7
		V230z M858.4,222.3l1.7,0.3l1-1.7l-2.1,0.3L858.4,222.3z M858.4,236.5h1.4v-1.4h-1.4V236.5z"/>
	<path fill="#1D252E" d="M1220.9,182.5l-0.3,4.8l1.7,5.5l-1,9.4v24.2l0.3,2.4l1.4,1.4l-2.1,8l0.7,6.9l-0.7,1.4l-3.8,1.7l-3.8,0.7
		l-11.8-1l-4.5,1.7l-3.8,0.3l-15.9-1.7l-16.6-0.3l-17.3,1l-16.3-0.7l-5.9-1l-3.8,1l-22.5,0.7l-2.8-1.7v-2.1l-1.4,1.7l-1,4.2
		l-1.4,1.4l-2.1-1l-0.7,0.3l0.7,6.9l-3.5,5.5l-0.3,4.8l1.4,4.2l2.4,4.5l-3.1,2.4l-0.7,2.1l1,2.1l4.8-0.3l3.5,1.7l4.5,1l4.5-0.3
		l1.7-1l16.6,1l33.9-1l25.6,1.4h15.2l1.7,2.8l1,3.8l0.7,13.2l1,3.5l-0.3,1.7l-1.4,1l-0.3,1.7l1.4,7.6l-0.3,16.3l-1.7,10.4l-1.7,1.4
		l-32.5,1h-64.7l-3.1,2.1h-6.6l-2.1,8.3l-2.4,2.8l0.7,3.5v6.2l1,2.1l3.5,2.8l0.7,2.4l-2.1-0.3l-0.7-1.4l-1.7-0.3l-0.3,2.1l1,2.4h4.2
		l4.2-1.7l8,2.1h8l3.5-1l9,1l17-0.7l7.6,0.3l5.9,1.4l7.6-1.7l8.3-0.3l17.7,1.4l8.3-0.3l3.8-1l8,1.4l8.7-0.3l4.2,0.7l2.1,1l1.4,16.3
		v33.6l-0.7,13.5l-3.8,3.1l-16.6-0.7l-33.9,0.7l-17-1l-20.4,1.7l-13.9-1.4l-3.8,2.1l-4.5-2.4l-8,1h-9l-7.6-1l-5.2,2.4l-17-1.7
		l-16.3-0.3l-22.5,0.7l-3.8-2.4l-4.5-0.7l-1-8.7l1-24.9l-1.4-15.6l1-16.6v-133l-1-32.5l0.3-12.1l1-3.8l-0.7-12.5l0.3-3.8l1.7-3.8
		l14.9-1.4l34.3,1l14.2-1.7l4.5,1h16.6l15.2-1.4l11.1,1.7h4.5l4.5-1.4h4.2l4.2,1h24.6l14.9-1l6.2,0.3l4.2,1l4.2-1.4l1-1.7l3.8,3.1
		l13.5-0.3l4.2,1L1220.9,182.5z M1022.2,333.1l1.7-1l0.3-2.1l-1.4-0.7l-0.3,2.1L1022.2,333.1z M1027.4,310.6l0.7,2.4l4.5-1l-0.7-1.7
		l-2.4-0.3L1027.4,310.6z M1028.1,354.6l2.1,0.7l1.7-1.4l-2.4-0.7L1028.1,354.6z M1031.9,285.4l0.7-3.8l-1.7-0.7l-1,3.8
		L1031.9,285.4z M1030.1,339h2.4l-0.3-2.1l-1.4-1l-0.3,1.4L1030.1,339z M1032.6,227.2l0.7-1.4v-2.1l-1.4-1l-0.7,3.5L1032.6,227.2z
		 M1036.4,220.6l0.3-2.1l-2.1-1l0.3,2.1L1036.4,220.6z M1037.1,305.4v-2.1h-2.4l0.7,1.7L1037.1,305.4z M1036.4,320.3l0.7-3.1h-2.4
		l0.3,2.1L1036.4,320.3z M1036.4,234.8l0.7-3.8l-2.1,0.7v2.1L1036.4,234.8z M1035.3,362.9l3.8-1.7v-2.8l-2.1-0.7l-0.7,2.1l-1.4,1.4
		L1035.3,362.9z M1035.3,249l1.7,0.7l0.7-1.7l-1.4-0.7L1035.3,249z M1037.8,391l-0.7-1.4l-1.7-0.7l0.7,1.7L1037.8,391z
		 M1036.4,417.3h1.4l0.7-2.4h-2.1V417.3z M1037.1,291.9l1.7-0.3l0.7-1.7l-0.7-2.1l-1.7-0.3l0.3,2.1L1037.1,291.9z M1041.6,284
		l1.4,0.7l4.2-0.7l0.3-1.7l-1.7-1h-2.1l-1.4,0.7L1041.6,284z M1041.6,326.2l1.7,1l2.4-0.3l-1.4-2.1l-2.1-1.4L1041.6,326.2z
		 M1041.6,340.4l3.5,2.4v-6.2l-1.7,0.7l-1,1.4L1041.6,340.4z M1045.7,369.5l-2.1-1.4h-2.1l3.1,2.8L1045.7,369.5z M1045.7,384.4
		l-4.2-4.5v2.1l2.1,2.4H1045.7z M1041.6,423.9v2.1l1.4,0.7l1-1.4l0.3-2.1L1041.6,423.9z M1042.3,210.9l1.7,3.1l1.7,0.7l-0.3-2.1
		l1.4-3.1l-1.4-0.3l-1.7,0.7L1042.3,210.9z M1043,398.6h1.4l-0.7-1.7l-1.4,1L1043,398.6z M1043,238.6l0.7,3.5h2.1l1-4.5l-2.1,0.7
		L1043,238.6z M1043,353.2l3.1-0.7l1.4-1.7h-2.1l-1.7,1L1043,353.2z M1043.7,394.1v1.4l0.7,0.7l2.4-0.7v-1.4l-2.4-0.7L1043.7,394.1z
		 M1046.8,267.4l-0.3-2.1l-1.4-0.7l-0.3,2.1L1046.8,267.4z M1045,271.2h1.7v-1.4h-1.7V271.2z M1048.8,219.2l1.4,0.3l1.7-1.4l0.7-2.1
		l-2.1,0.3l-1.4,1L1048.8,219.2z M1048.8,248l2.1,1.4l2.4,0.3l1-2.4l-0.3-1.4l-1.7,0.3l-2.1-1.7L1048.8,248z M1048.8,346.3l0.3,1.7
		l1.4,1l2.1,0.3l-1.4-2.1l1.7-3.5l-1-1l-2.1,1.4L1048.8,346.3z M1052,231.7h-2.4l1.4,1.4L1052,231.7z M1049.5,262.9l3.1,1.7l0.7-1.7
		v-2.4l-1.4-1l-1.4,1.7L1049.5,262.9z M1050.2,278.8l2.4-0.3l1-1.4l0.3-2.1l-3.8-0.7l-0.7,2.1L1050.2,278.8z M1049.5,305.4l2.1,0.7
		l2.1-1l1-1.7l-2.1-1l-1,2.1L1049.5,305.4z M1049.5,334.5h2.4l-0.7-1.4h-1.7V334.5z M1052,363.6l1.4-3.5v-2.4h-2.1l-1.4,1.4
		l-0.3,1.7l0.7,1.7L1052,363.6z M1049.5,375.4l1.7,1.4l2.4-0.3l1-1.7l-1.4-0.7h-2.8L1049.5,375.4z M1049.5,401.4l1,2.1l2.1,1
		l0.7-2.1l-1.4-1.7L1049.5,401.4z M1052,320.3l2.1-1.4l-0.3-2.4l-1-1l-2.4-0.3l0.3,4.2L1052,320.3z M1050.2,329.3v1.4l2.4,0.7
		l0.7-0.7v-1.4l-0.7-0.7h-1.4L1050.2,329.3z M1053.3,432.2l-0.7-2.1l-2.4-0.3l0.7,2.1L1053.3,432.2z M1054,290.6v-2.1l-2.8-1.7
		l-0.3,1.7l1,1.4L1054,290.6z M1052,391l2.1-1l0.3-1.7l-2.4-0.7l-0.7,1.7L1052,391z M1055.4,254.2l5.2,2.8l0.7-1.7v-2.4l-1.4-1
		l-0.7,2.1l-2.1-0.3L1055.4,254.2z M1055.4,269.8l1.7-0.3v-1.7l-1.7-0.3V269.8z M1055.4,282.2l1,1.7l3.1,0.7l1.4-1l0.7-2.1l-2.4,0.3
		v-1.7l-1.4-1.4l-1.4,1.7L1055.4,282.2z M1055.4,298.2l1.7-0.3v-1.7l-1.7-0.3V298.2z M1055.4,396.2l2.1,0.7l1-2.1l-2.1,0.3
		L1055.4,396.2z M1056.5,352.2v2.1l1,1.4l1.7,0.3l0.7-4.5L1056.5,352.2z M1056.5,383.7l2.1,0.7l1.4-1.4l0.3-2.4l-1.7-1.4l-1,2.1
		L1056.5,383.7z M1057.2,326.2l2.8,0.7v-3.5l-2.1,0.7L1057.2,326.2z M1057.2,338.3l2.1-1.7l-1.7,0.3L1057.2,338.3z M1059.2,412.8
		l1.4-1.4l0.3-2.1l-0.7-2.1l-1.7-0.7l-1.4,3.8l0.3,1.7L1059.2,412.8z M1059.9,312l0.7-1.4l-0.3-1.7l-1.7-0.3l-0.7,2.4L1059.9,312z
		 M1060.6,213v-2.1h-2.1l0.3,1.7L1060.6,213z M1058.5,227.9l2.1-1l-1.4-1.7L1058.5,227.9z M1058.5,242.1h2.1l1-1.4v-2.1h-2.4
		L1058.5,242.1z M1059.9,370.2l1-3.8l-1.7-0.7l-0.7,3.5L1059.9,370.2z M1059.2,341.1l1.4,0.7l1-1.4l-1.7-0.7L1059.2,341.1z
		 M1061.7,423.9h-2.4l1.4,1.4L1061.7,423.9z M1063,231l0.3,2.1l3.1,1.7l1.7-0.3l0.7-2.1l-3.8-2.1L1063,231z M1063,248l3.1,1.7
		l1.4-3.1l-0.3-1.4l-2.1-0.7l-0.3,2.4L1063,248z M1063,262.9l2.1,1.7l2.1-0.7l1.7-3.8l-2.4-2.1l-2.1-0.3l-0.3,3.5L1063,262.9z
		 M1068.2,318.3h-2.1l-3.1-1.7l0.3,2.4l2.1,1h2.1L1068.2,318.3z M1063.7,333.1l2.1-0.3l1.4-1.4l0.3-2.1l-2.1-0.7l-2.4,2.8
		L1063.7,333.1z M1063,348h1.7l4.2-2.4l-1.7-1h-2.1l-1.7,1L1063,348z M1063,390.3h4.5l-0.3-2.8l-1.4-0.7l-2.1,1.4L1063,390.3z
		 M1063,429.7l2.1,0.7l-1.4-2.1L1063,429.7z M1063.7,291.2l4.5-0.7l-0.3-2.1l-1.4-1.4l-2.1-0.3v2.4L1063.7,291.2z M1064.4,376.8
		l1.7-0.3l1.4-3.1l-3.1-0.7l-0.7,2.1L1064.4,376.8z M1064.4,419.4l2.1-0.3l1-2.1l-0.3-2.1l-2.1-0.7l-1,3.8L1064.4,419.4z
		 M1065.1,217.5l1.7,0.7l0.7-1.4l-1.4-0.7L1065.1,217.5z M1065.1,363.6h1.7v-1.7h-1.7V363.6z M1066.2,276.4l2.4-0.3l0.3-2.4
		l-2.1-0.7l-1.4,1.4L1066.2,276.4z M1071.4,240.7l-2.4-1.4l0.7,2.1L1071.4,240.7z M1068.9,338.3l0.7,2.1l2.4,0.7l1.4-3.8l-2.1-0.3
		L1068.9,338.3z M1068.9,352.2l0.7,2.1l2.4,0.3l1.4-1.4l-2.1-1.4L1068.9,352.2z M1069.6,269.8h4.5l1.4-0.7l-0.3-2.4l-1-1l-2.1-0.3
		l-0.3,1.7l-1.4,1L1069.6,269.8z M1069.6,325.5l4.5,1.4l0.7-1.4v-2.1l-2.1-0.7l-2.4,0.7L1069.6,325.5z M1070.3,224.4l1,2.8h3.5v-3.5
		l-2.1,0.3L1070.3,224.4z M1073.4,370.9l-0.7-4.5h-2.4l0.3,2.4l1,1.4L1073.4,370.9z M1071.4,281.6l2.1,1l2.1-1l-0.7-1.4l-2.4,0.3
		L1071.4,281.6z M1071.4,312l1.7-1l1-2.4l-1.7,0.3l-1,1V312z M1071.4,380.6l2.1,0.7l1.4-1.4l-2.1-0.7L1071.4,380.6z M1073.4,409
		l-1.4-2.4l-0.7,2.1L1073.4,409z M1074.8,255.6l-2.8-0.7l1,2.1L1074.8,255.6z M1072,425.2l1.7,0.3l1-1l-1.7-0.7L1072,425.2z
		 M1075.5,295.1l-2.1-0.7l0.7,1.4L1075.5,295.1z M1073.4,412.8h1.4l0.7-1.4l-1.4-1L1073.4,412.8z M1077.2,289.9h1.4l0.7-2.4h-1.4
		L1077.2,289.9z M1077.9,248l1.4,1.7h1.7l1.4-1.4l0.7-2.4l-4.2,0.7L1077.9,248z M1077.9,276.4l0.3,1.7l1.7,0.7l1.4-1l0.3-2.1h-2.4
		L1077.9,276.4z M1077.9,302.3l2.1,2.4l2.4-3.8l-3.8,0.3L1077.9,302.3z M1077.9,318.3l3.8,2.1l1.4-1.4l-3.8-2.1L1077.9,318.3z
		 M1081,335.2l-0.7-2.4l-1.7-1.4l-0.7,1.7l1,1.4L1081,335.2z M1077.9,348.7l1.7,0.7l1.7-0.7l1-1.7l-2.4-1.4l-1,1.7L1077.9,348.7z
		 M1083.1,403.8l-3.1-2.1l-2.1-0.3l0.3,2.1l1.4,1.4l2.1,0.3L1083.1,403.8z M1083.1,416.2h-3.8l-0.7-1.4l-0.3,1.7l1.4,1.7h2.4
		L1083.1,416.2z M1081.7,218.2l-0.7-1.4l-1.7-0.7l0.7,1.7L1081.7,218.2z M1082.4,202.6h-2.4l1.4,1.4L1082.4,202.6z M1080,292.6
		l2.1-0.7l1-1.7l-1.4-1l-0.7,2.1L1080,292.6z M1085.2,212.3l0.7,2.1l2.4,0.3l-1-2.4H1085.2z M1089,313.1l-0.3-1.7l-1.4-0.7h-2.1
		l0.3,1.7l1.4,0.7H1089z M1085.2,326.2l2.4,0.7l2.1-0.7v-2.1l-2.8-1.7l-1,1.7L1085.2,326.2z M1085.2,337.3v2.8l0.7,1.7l1.7,1
		l1.4-3.8v-2.4l-2.1,0.3L1085.2,337.3z M1086.9,227.9l-1.4-1.7v0.3L1086.9,227.9z M1086.9,397.9l0.7-2.4l-1.4-1.4l-0.7,2.1
		L1086.9,397.9z M1086.2,196.7h1.7l1-1.4l-2.1-0.7L1086.2,196.7z M1086.2,241.4l2.1,0.7l1.4-1.4l-2.1-0.7L1086.2,241.4z
		 M1089.7,410.4l-0.7-1.7l-1.4-1l-1,1.7l1,1.4L1089.7,410.4z M1090.4,219.2l6.9,0.7v-3.1l-4.5-0.3l-1.7,0.7L1090.4,219.2z
		 M1090.4,289.2l1,2.1l2.1,0.7l0.7-2.8l-2.1-0.7L1090.4,289.2z M1090.4,346.3l0.7,2.8l3.8,0.3l1.4-1.7l-0.3-2.1l-3.8-0.7
		L1090.4,346.3z M1094.9,305.4v-2.1l-2.8-1.7l0.7,2.4L1094.9,305.4z M1092.1,330.7h1.4l0.7-2.1h-1.4L1092.1,330.7z M1092.8,390.3
		h2.1l-0.7-2.4l-1.4-1.4l0.3,2.1L1092.8,390.3z M1096.6,401.4h-3.1l0.7,2.1h1.7L1096.6,401.4z M1096.6,334.5l0.7-1.7l-1.4-1.4
		l-0.7,1.7L1096.6,334.5z M1098.7,196.7l2.1,0.7l1-2.1h-2.1L1098.7,196.7z M1098.7,209.5l0.3,4.2l2.8,1.7l-0.3-1.7l-1.4-2.1h3.8
		l-0.3-2.1l-1.4-0.7h-2.1L1098.7,209.5z M1100.1,298.9l0.3-2.1l-1.7-1l0.3,2.1L1100.1,298.9z M1098.7,337.3l0.7,2.4l2.4-0.7l0.7-2.4
		l-2.1,0.3L1098.7,337.3z M1103.2,410.4h-2.1l-2.4-2.1l0.3,2.4l1.4,1.7h1.7L1103.2,410.4z M1101.1,227.9v-1.4l-1.7,0.7L1101.1,227.9
		z M1101.1,326.9l2.1-0.7l-0.7-2.1l-1,1.4L1101.1,326.9z M1106.3,216.8l1.7,3.1l1.7,0.7v-4.5L1106.3,216.8z M1106.3,234.8h2.1
		l-0.7-1.4l-1.4-0.3V234.8z M1106.3,391h2.1l-0.7-1.4h-1.4V391z M1107,403.1l2.1-0.3l0.7-1.4l-2.1-0.3L1107,403.1z M1109.1,207.1
		l0.3-1.7l-1.7-1v2.1L1109.1,207.1z M1110.8,334.5l0.3-2.1l-1-2.4l-1.7-1.4l-0.7,1.7l1.4,3.5L1110.8,334.5z M1108.4,291.9h1.4v-1.4
		h-1.4V291.9z M1111.5,416.2l-2.4-2.1l-0.3,1.4l1,1.4L1111.5,416.2z M1112.9,325.5l2.1-1l1-2.1l-2.4,1L1112.9,325.5z M1113.6,412.8
		l3.1-1l-1-2.4l1-1.7l-2.1,0.3l-1.4,1.4l-0.3,1.7L1113.6,412.8z M1113.6,226.5h2.4l-0.7-1.4h-1.7V226.5z M1114.3,311.3l1.7-1l-1.7-1
		V311.3z M1115,342.8l2.1-0.7l0.3-1.4l-1-1.7l-1.4-0.7l0.3,2.1L1115,342.8z M1116,240.7h1.4v-1.4h-1.4V240.7z M1116.7,212.3h1.4
		l0.7-1.4l-2.1-0.7V212.3z M1119.5,418l4.5,1.4l-1-3.5l-1-1l-1.4,1.4L1119.5,418z M1120.2,220.6l3.8-2.4l0.7-2.1l-3.8,1.4l-1,1.4
		L1120.2,220.6z M1124,333.8l-0.7-2.1l-2.1-0.3l0.7,2.1L1124,333.8z M1130.9,326.9l-0.7-1.4l-1.7-1.4l-1.4,0.7l1.7,1.4L1130.9,326.9
		z M1127.8,226.5l3.8,0.7l-0.3-2.1l-1-1l-1.7-0.3L1127.8,226.5z M1129.9,411.7l0.7-1.7l-0.3-2.1l-1.7-1.4l-0.7,2.1l0.3,2.4
		L1129.9,411.7z M1131.6,310.6l-0.7-2.1h-2.4l0.3,2.1H1131.6z M1128.5,424.6h1.4v-1.4h-1.4V424.6z M1129.9,438.7l1-3.8l-2.1,0.7
		l-0.3,2.1L1129.9,438.7z M1129.2,238.6h1.7v-1.7h-1.7V238.6z M1129.9,297.1h1.7v-1.4h-1.7V297.1z M1134.4,220.6h3.8v-4.5l-2.4,0.3
		l-1,1.4L1134.4,220.6z M1137.5,236.9l-0.7-1.7l-1.7-0.3l0.7,1.7L1137.5,236.9z M1138.9,318.9l-1-2.4l-1.7-1.4l-0.3,1.4l1,1.7
		L1138.9,318.9z M1138.9,232.4l-0.7-1.7l-2.1-0.3l0.7,1.7L1138.9,232.4z M1138.9,415.6l-2.1-0.7v2.1L1138.9,415.6z M1142.7,412.8
		V410l-0.7-1.7l-0.7,1.4v2.1L1142.7,412.8z M1142,425.2h3.8v-2.1l-2.4,0.3L1142,425.2z M1147.9,417.3l2.1-1.7l-1.7,0.3L1147.9,417.3
		z M1151,219.9h-2.4l1.4,1L1151,219.9z M1151,405.2l2.1-0.7l0.7-1.7l-1.4-1.4l-1.7,2.1L1151,405.2z M1156.2,199.8h1.4v-1.7h-1.4
		V199.8z M1156.9,411.7l2.4,0.7l2.1-0.7l-0.3-2.1l-1.7-0.3l-1.7,0.7L1156.9,411.7z M1157.6,213l1,1.7l2.1-0.3l0.7-2.1l-2.1,0.3
		L1157.6,213z M1158.3,227.9h1.7l0.7-1.4h-1.7L1158.3,227.9z M1163.5,417.3h4.5l-0.3-2.1l-1.7-0.3l-1.4,1L1163.5,417.3z
		 M1164.8,432.9l1.7-3.1l-0.7-1.4l-2.1,3.1L1164.8,432.9z M1164.8,219.9l2.1,0.3l1-2.1l-2.1,0.3L1164.8,219.9z M1170.4,214l2.1,0.7
		l-1.4-2.4L1170.4,214z M1194.6,418h-2.1l1,1L1194.6,418z"/>
</g>
<g>
	<path fill="#F4A724" d="M28.9,661.8h-1.3l-1.5-1l-0.3,1.3l0.8,1.3l1.8,0.8h2.1l-0.5,1.5l0.5,3.1l2.3,3.9l0.3,2.8l-0.8,1.3l4.4,2.8
		l-0.5,3.3l0.5,1.5l1-0.3l0.5-1.3l2.8,3.3l0.5,3.3l3.1,1l3.6,4.9h3.9l0.5,2.6l-0.5,1.3l3.1,0.3l8.7,3.1l4.9,3.3l1.5-0.8h2.6l7.5,2.1
		l2.1-0.3l2.3,3.1l1.5,0.3l6.2-2.8l2.8,2.8l2.3-1.3l3.1-0.8h3.1l3.1,1l1.8-1.5l6.7-2.6l5.1-0.3l1.3,0.5l1.3-0.8l3.1-3.6l3.6-0.8
		l4.6-2.1l-3.9,6.2l-2.8,1.5l-10.8,9.5h-1.8l-1-0.8l-2.1,2.8l-1.3,1l-10.8,3.1L87.5,724l-6.4,0.5l-6.4-0.5l-5.9-1.3h-3.6l-5.7-1.5
		l-1.3,0.3l-1-1.3l-3.1-1h-1.5l-2.8-1l-4.9-3.6l-4.4-1.3l-6.2-6.2l-2.1-0.5l-2.3-2.1l-8.2-10l-3.1-4.9l-1.3-6.2l-1-0.8l-3.1-5.1
		l-1-6.7l0.8-4.6l-1.8-2.3l-0.8-3.1v-9.8l-0.8-2.8v-2.6l1.3-8.7l-0.3-1.5l8.7-9l3.9-3.1l1.8,0.8l1,1.3l-0.8,9.8l0.5,12.6l-0.3,4.1
		l2.6,5.1l0.8,3.1V661.8z M15.5,639.6v1l1.3-0.5l-0.8-1L15.5,639.6z M18.9,664.1l-0.3-3.1l-2.6-0.8l1.8,2.8L18.9,664.1z M18.9,672.8
		l-0.5-1.5l-1.5-0.8l0.5,1.8L18.9,672.8z M21.7,669l2.8-0.5l-0.8-1.5l-2.6-1.3l-0.3,1.8L21.7,669z M21.2,657.4l1-0.8l-1-1V657.4z
		 M24.5,689.5v-1.8l-0.8-1l-1.5-0.5l1,2.6L24.5,689.5z M22.7,646.3h1.8l-0.5-1h-1.3V646.3z M23.2,626.3h1.3v-1h-1.3V626.3z
		 M23.2,636.3l1.3-0.8l-1.3-0.8V636.3z M25.6,671.3l0.5,1.3l1.8,1.8l1-1l0.3-1.3l-0.8-1.5l-1.3,0.5L25.6,671.3z M25.6,681.6l1,2.3
		l2.8,0.5l0.5-3.3l-1.5-0.5l-1.5,0.3L25.6,681.6z M29.4,694.9l0.3-1.3l-0.8-1.3l-1.8-0.8l1,2.8L29.4,694.9z M33.3,689.5l1.5-0.5
		v-1.5l-0.8-1l-1.8-0.3l0.5,1.5L33.3,689.5z M36.1,693.9l2.8,1.5l1.5-1l-1.3-2.3l-1-0.8l-1.5-0.3l-0.5,1V693.9z M44.8,700.6
		l-0.3-1.8l-0.8-1.3l-1.8-0.3l-0.5,1.3l0.3,1.3l1.3,0.8H44.8z M44.3,709.9l0.5-1.5l-1-1.3l-0.5,1.8L44.3,709.9z M46.6,705l1.3,0.8
		L50,706l0.5-1.3l-1-2.6l-1.3-0.5l-1.5,1.8V705z M53.9,710.4l0.8-0.5h1.3l-0.3-1.5l-1-1.3l-1.5-0.5l-0.8,1.3l0.3,1.5L53.9,710.4z
		 M57.7,705.5l1.5,0.5l0.5-1.3l-0.3-1.8l-0.8-1.3l-1.3,2.1L57.7,705.5z M60.3,716.5L59,715l-1.3-0.3l0.8,1.3L60.3,716.5z
		 M63.1,709.3l1.8-0.5l1-1.3l-1.3-0.5l-1,0.8L63.1,709.3z M68.3,716l3.9-1.3l-0.8-1.3l-1.3,0.3l-1,1L68.3,716z M74.2,708.3l2.3,0.5
		l-0.5-1.5h-1L74.2,708.3z M79.8,716l1.5-0.3l0.8-0.8l0.3-1.3l-1.5,0.3l-0.8,0.8L79.8,716z M84.2,719.4l1.3,0.3l0.8-1.3l-1-0.8
		L84.2,719.4z M146.7,506.4l-0.3,1.3l1.8,8.7l-1,3.3l0.8,1.3l0.8,3.6L148,528l0.5,15.7l-1.3,7.5l1,2.3l-0.8,3.1v3.1l-0.8,3.1l1,3.1
		l-0.3,5.1l-0.8,1.3l1,2.6l0.3,3.3l-0.5,3.3l-1.3,2.3l1,0.5l0.8,2.6v1.8l-1.8,5.1l1.5,2.6l-0.5,3.6l0.8,9l-0.3,2.8l-1,2.8l0.8,3.3
		l0.8,16.7l-1.5,1l1,2.1l0.5,5.7l-3.9,19.3l-1.8,2.8l-1,3.3l-12.1,14.4l-1.8,0.3l-0.8,1l-1.3-0.3l1.3-2.6l1.5-5.4l1-6.4l2.3-7.7
		l-0.5-3.9l1-2.8l-0.5-2.8l1-5.9v-15.4l-1-5.9l1.5-23.9v-6.7l-1-8.7l1-5.1l-0.5-12.1l1-5.7l-0.3-1.3l-1.3-2.1v-7.7l1-3.3l-1-10
		l0.5-4.9l-1-3.1l0.8-2.8l0.3-9l1-2.3l11.1-10.8L146.7,506.4z M137.2,602.6l1.3,0.5l0.5-1l-1.3-0.5L137.2,602.6z M137.2,614.7v1.3
		l1.3-0.8l-0.8-1L137.2,614.7z M139,613.7h1v-1h-1V613.7z M143.4,548.3l-0.5-1.3l-1.3-0.3l0.5,1.3L143.4,548.3z M141.6,630.1
		l2.3,1.8l0.5-1l-2.1-1.8L141.6,630.1z M141.6,662.8l1.5-0.5l0.3-1.8l-1-1l-0.8,1.5V662.8z M142.9,610.3l1.3-0.5l0.3-1.5l-2.1-0.8
		l0.3,1.5L142.9,610.3z M142.9,651.7l1,0.8l0.5-1.3l-1-0.5L142.9,651.7z"/>
	<path fill="#F4A724" d="M327.8,506.6l1,1l-1,1L327,511l-0.8,6.2l-2.3-1.8l-0.5,1.3l0.5,1.3l1,0.8l-3.6,8.5l-1.8,2.3l-3.3,2.6
		l0.3,3.3l-0.8,2.8l-3.1,5.1l-2.6,7.5l-2.8,1l-1,1l0.5,1.5l-0.3,3.1l-2.1,5.4l-2.8,5.4l-0.8,5.1l-1.5,0.5l-1.3-1l-1.5,2.3l1,2.6
		l-4.6,9.8l-2.6,1.3v3.6l-1.3,2.3l-1,0.8l0.3,3.1l-1,2.6l-3.1,4.9l-0.5,3.3l-2.8,0.5l-1,1l0.3,1.8l1.3,1l-2.3,6.2l-1.5,2.6L274,626
		l-0.3,3.1l-2.3,6.4l-3.9,4.9l0.3,1.8l-1.3,4.1l-1.8,2.6l-1.8,4.6v1.8l-2.1,2.1l-2.3,4.1l-0.3,3.1l-0.8,2.3l-2.8,1.3l-1,1v3.1
		l-1.8,5.9L247,688h-1.8l-2.6,2.8l0.8,1.5l1.5,0.5l-1.5,2.8l-1,6.2l0.5,2.8l0.8,1h10l-3.3,5.4l-4.1,4.4l-6.4,4.6l-1.3-0.5l-9.8,0.3
		l-3.9-1l0.5-3.6l1-3.1l4.4-8l1.3-4.6l1-1.3l1.8-4.1l1-1.3l0.5-4.4l3.3-4.9l5.4-11.6l1.8-2.3v-3.3l2.8-2.8l1-4.9l2.8-3.3v-1.8
		l2.3-5.1v-1.8l11.1-22.4l7.7-15.2v-2.8l2.1-2.3l2.8-6.2l1-1l0.5-3.6l1.8-2.8l1-0.8v-2.6l3.1-5.1l10.3-22.4l3.9-6.4v-1.8l2.3-5.7
		l2.6-3.6l0.3-3.6l3.1-4.9l1.8-4.4V527l6.7-10.5L327.8,506.6z M240.3,703.9h-1.5L238,706l1,1h1l1-1L240.3,703.9z M250.4,675.9h1
		v-1.3h-1V675.9z M259.9,654.8l1.3-0.5l0.3-1.8l-1.3,0.8L259.9,654.8z M270.2,634.2l1.5-2.8l-0.8-1l-1.5,3.1L270.2,634.2z
		 M338.4,661l1.5-0.3l2.3-1.5l3.1,1l9-0.5l4.4,0.5l1.3,0.8l1-0.8l4.9-1l2.8,0.8l1,1l2.6-1.3h6.4l2.8,1.3l2.8-1.5l3.6-0.8l1.3,0.8
		l10.8,1l1.8,0.5l2.1,3.3l-0.3,1.5l2.1,2.1l1.8,2.8l0.8,3.1l-0.3,1.5l1.5,1l1,3.1l2.3,3.6l1.8,4.4l-2.8,4.4h1.3l3.1-1.5v3.6l1.8,3.6
		l2.6,3.3l1,3.1l3.3,1l2.8,1.8l2.6-1.3l3.6-0.5l3.3,0.8l-3.1,5.1l-10.3,8.7l-12.6-0.3l-3.3-0.5l-2.1-5.7l-4.6-7.5l-0.5-3.3
		l-11.1-21.6l0.5-2.3l-1-1.3l-0.8-2.8l-0.8-1l-1.8-0.3v2.8l-2.8-0.8l-5.9-0.3l-2.8-0.8l-5.9,0.8h-26l-2.6,0.5l-4.1-1.5l-9.5,1.5
		l-6.4-1.3l-1.5,0.3l-1.5,1l-3.3-1.3l-5.7,1l-11.8-1.3l-5.1,0.3l-2.8,1.3l-4.4-0.8l-1.5,0.8l-2.8-1.3l-6.9-0.3l-2.6-0.8l1.8-6.4
		l1.3-2.8l2.6-3.3l19.8-1.3l2.3,2.3l1-1l2.6-1h3.1l3.9,2.1l0.5-2.3l6.9,0.8l2.3,1.5l1.3-0.5l1.5-1.8l5.7,0.3l1,0.8l0.5,1.3l0.5-1
		l2.6-1.3h5.1l1.3,0.8L338.4,661z M293.6,665.4l0.5-1.8l-1-1l-0.5,1.8L293.6,665.4z M311.9,665.9h1v-1h-1V665.9z M313.4,664.8h1.8
		l-0.3-1.5l-1-0.8l-0.3,1L313.4,664.8z M327.8,669.7l0.8,1.3l1.5-0.5l0.5-1.3l-1.5,0.3L327.8,669.7z M337.3,522.6l3.1,2.1l1.8,2.3
		l3.1,5.7l3.6,10.3v1.3l1.8,2.6l4.1,9l-1,2.8l2.3,1.8l1.8,2.6l2.6,5.4l1.5,4.6l-1.3,0.3l-3.1,1.8l0.8,1l1.5,0.3l2.6-1.3l1,0.8
		l1.8,4.1v1.8l2.1,2.3l2.8,6.2l1.8,2.6l-1.5,1.8l0.3,1.3l3.6,2.1l-0.3,1.8l0.8,2.8l0.8,1l1.3,0.3l0.8,3.3l2.8,5.4l0.3,1.8l-1.5,2.3
		l1,1l2.8,1l1,2.8l4.4,8l0.8,3.1l0.8,1l1.3,0.5v1.5l2.8,7.2l-0.5,3.1l-5.4,0.8l-9.3-0.5l-3.1-1l1-1l-1.5-0.3l-1.8,0.8l-5.1-10.8
		l-1.8-6.2l-2.1-2.3l-3.1-7.2l0.3-1.8l0.8-1h-1.3l-1.3,0.8l-0.8-3.3l-1.8-3.9l0.3-1.3l-2.8-4.9l-9.8-22.6l-10.3-23.2l-1.3-2.8
		l-2.1-2.8l-1.3-2.8l0.5-1.5l-1.8-2.8l0.5-3.1l2.8-7.2v-3.1l3.9-5.1l0.5-1.5L337.3,522.6z M334,549.1l1,0.8l0.5-1.3l-1-0.5
		L334,549.1z M338.9,544.7l1.8-0.3l0.5-1.3l-1.5,0.3L338.9,544.7z M342.2,559.6l1.3-0.5l1.5-2.3l-1.8,0.3l-0.8,1L342.2,559.6z
		 M342.2,568.6l1.5,2.3l1.3,1v-1.8l1.5-1.5l-1.3-1L342.2,568.6z M345.6,662.5h-1.8l-0.5,2.1l0.8,1h1.3l0.8-1L345.6,662.5z
		 M345.6,549.1l-0.5-1.5l-1.3-1l-0.3,1l0.5,1.3L345.6,549.1z M346.1,560.1l0.5-1.3l-1-0.8v1.3L346.1,560.1z M349.4,554.7l0.3-1.8
		l0.8-1l-1.3-0.5l-1.3,1.3v1.3L349.4,554.7z M348.9,563.5l1,0.8l1-0.8l-1-0.8L348.9,563.5z M351,575.1l-0.3-2.1l-1.3-1l-0.5,1.3
		l0.5,1.3L351,575.1z M355.3,592.8l0.3-1.8l1-0.8l0.5-1.3l-2.8-0.5l-0.8,2.8l0.5,1.3L355.3,592.8z M356.1,572l1-3.3l-1-1l-1.8-0.3
		l-0.5,1.3l0.3,1.8l0.8,1L356.1,572z M354.3,582.3h1.8l0.8-1l0.3-1.5l-3.3-1.3v3.1L354.3,582.3z M356.1,665.4h1v-1h-1V665.4z
		 M359.4,596.7l0.3-1.3l-1-0.8l-0.3,1.3L359.4,596.7z M358.7,586.9l1.3,0.5l2.1-1.5v-1.3l-2.6,1.3L358.7,586.9z M360.5,605.7
		l1.3,0.3l0.8-0.8l-1.3-0.5L360.5,605.7z M361,598l1.3-0.5l0.5-1.3l-0.3-1.5H361V598z M363.8,610.1l0.5,2.8l2.8,0.5l0.5-1.5
		l-0.3-1.3l-1.8-1L363.8,610.1z M364.3,591.3l1,0.8l1.8,0.3V589l-1.5,0.3l-1,0.8L364.3,591.3z M368.7,607.2l1,0.5h2.8l-1.8-2.6
		l-1.5-0.8l-0.5,1.3V607.2z M368.7,617.3l1.5-0.5l0.8-1.8h-1.5l-0.8,0.8V617.3z M369.2,628.3h1.3v-1h-1.3V628.3z M376.4,613.4
		l0.3-1.3l-1.8-2.6l-0.5,1v1.5l0.5,1L376.4,613.4z M374.4,621.1l0.5,2.1l1.8-0.5l1-1.5l-1.5-0.3L374.4,621.1z M374.9,634.2l2.3-0.8
		l0.5-1.3v-1.8l-1.8,0.3l-1.3,1l-0.3,1.3L374.9,634.2z M379.3,628.3l1.3-0.5l0.3-1l-1-0.8l-0.5,1V628.3z M382.6,671.3l-0.5-2.8
		l-1.3-1l-0.3,1.5l0.8,1.5L382.6,671.3z M387.5,665.9l-0.8-1.3l-1.3,0.8L387.5,665.9z M386.5,663.6l1,1.3v-2.3h-1V663.6z
		 M395.2,664.8l1.8,0.8l1.5-0.3l-0.3-1.5l-1-0.5l-1.3,0.3L395.2,664.8z M396.5,675.9l1.5,0.5l0.5-1.3l-0.3-1.5l-1.3-0.5l-0.5,1
		V675.9z M398.5,684.1H397l0.8,1L398.5,684.1z M399.6,690.3v1l1.8,0.5l0.5-0.5l-0.5-1.8h-1L399.6,690.3z M402.4,681.3l1-1l0.8-1.8
		l-1.3-0.5l-1.3,0.5l-0.8,1.3l0.3,1L402.4,681.3z M401.9,669.2h1v-1h-1V669.2z M404.2,691.3v-1.5l-0.8-1.3l-1-0.5l0.5,2.8
		L404.2,691.3z M405.7,696.7l1.5,0.8l1.8-0.3l1-1l-0.5-1.5l-1.3,0.5l-2.6-0.5V696.7z M406.3,705.2l2.3,1.5l0.5-2.3l-1.5-0.3
		L406.3,705.2z M411.9,699.1l1.3,2.8l1.5,0.5l0.3-1l-1-2.8L411.9,699.1z M413,712.4l1.3,0.3l0.8-1.3l-1-0.8L413,712.4z M416.8,707.3
		h1.8l-0.8-1.8l-1-1V707.3z"/>
	<path fill="#F4A724" d="M610.8,709.1l2.3,0.5l1.3-0.8l0.3-2.1l12.6-3.1l11.6-4.1l2.3-1.5l2.3,1.5l1-0.8l1-3.1l1.8-0.5l-0.8,2.3v1.5
		l-1.5,1.3l-1.5-0.3l-0.3,1.3l-1.8,2.6l-5.9,5.7l-3.3,1l-2.1,2.3l-5.4,1.5l-10.5,5.1l-10,2.6h-1.8l-1-1l-2.1,1.5l-3.1,0.8h-3.3
		l-1.5-0.5l-3.9,1.5l-13.4-1l-12.6-1.8l-11.8-2.8l-10.5-4.1l-4.6-2.8h-2.8l-4.4-4.4l-2.6-1.5l-4.6-4.1l-1.5-2.8l-3.6-2.6l-2.1-4.1
		l-4.1-3.6l-0.8-1.3l-0.5-3.3l-2.8-4.6l-4.4-10.8l-2.3-12.1l-1-12.9v-25.5l-0.5-5.9l1-4.6l-0.8-2.6l-0.3-5.9l1-12.9l-0.3-9.3
		l-0.8-2.6l0.8-12.1l-0.8-6.2l1.3-4.1l0.8-0.8l-1.5-2.3l0.8-8.7v-19.8l3.1-5.1l4.1-4.9l6.4-4.4l1,1.5l0.3,3.1l-1.8,4.6l0.8,1l1,5.1
		l-1.3,2.8l1.5,5.4l-1,2.8l0.5,2.3l-1.5,1.5l1.5,5.1v3.1l-1.5,1.8l1.3,8.2l-1.3,2.3l2.1,5.1v12.3l-2.1,3.9h1l1.5-1l-0.5,1.8
		l-0.3,6.7l-1.3,2.6l2.1,6.7l-1,2.8l0.5,8.7l-2.1,2.3l1.8,3.6l0.5,3.1l-0.5,1.5l-1.3,1.5l1,3.1l0.3,4.6l-1.8,3.9l0.5,1.8l2.1,2.3
		v2.1l-0.5,1.5l-2.1,2.3l1.5,2.3l3.3,9.3v5.7l1.3,0.8l1.3,2.3l1.3,4.6l-1.5,0.8l-1.8,2.6l1.5,0.5l2.8-1.5l1,2.6l-0.5,2.8h2.8
		l2.3,3.3v1.5l1.3,1.3l3.1,1.5l1.3,2.8l4.4,4.1l0.5,1.3l2.8,1.3l4.9,5.7l3.3,0.8l0.8,3.1l0.8,1l1.5-0.5h3.1l3.1,0.8l3.1,1.5l4.6,3.6
		l1.5-0.5h3.6l0.5,2.8l1.5-1.8l6.7,1.8l1,1l0.5-1.8l1.3,0.5v1.8l2.8-1l3.1-0.3l2.6,0.8l1.3,1l2.6-1.3l5.1-1l13.4-0.5L610.8,709.1z
		 M501.7,599.5h-1.5l0.8,1L501.7,599.5z M500.2,652.8l2.6,0.5l-0.3-1.5h-1.5L500.2,652.8z M501.7,589.5l0.5-1.5l-1-1l-0.5,1.5
		L501.7,589.5z M500.7,609.5l1.5-0.5l0.5-1.8l-1.5,0.5L500.7,609.5z M500.7,631.7l1.5-0.3l0.5-1.5l-0.5-1l-0.8,1.3L500.7,631.7z
		 M504,662l-3.3-1l0.3,1.8l1,0.8h1.5L504,662z M502.7,538l2.6-2.1l-2.6-0.5l-0.5,1.5L502.7,538z M502.7,568.1h1.3v-1.3h-1.3V568.1z
		 M505,584.6l1.3-0.5l1-2.3l-2.1,1.3L505,584.6z M506.8,626.5l-0.5-1.5l-1.3-0.5l0.3,1.5L506.8,626.5z M505,655.8v1.8l3.1,0.8
		l1.3-0.3l-0.3-1.8l-1-0.8l-1.5-0.3L505,655.8z M505.6,595.6h1.3v-1h-1.3V595.6z M506.8,542.7l0.3-1.3l-1-1l-0.3,1.3L506.8,542.7z
		 M506.1,575.3l1.5-0.3l1-0.8l0.3-1.3l-1.3-0.5l-1.3,1L506.1,575.3z M506.1,604.4l2.3,1l1-0.5v-1.5h-2.8L506.1,604.4z M507.9,669.2
		l0.5-1.3l-0.5-1.3l-1-0.8l-0.5,1.3l0.5,1.3L507.9,669.2z M506.8,648.1h1v-1h-1V648.1z M508.9,563.5V562l-1.5-1.8l0.5,2.8
		L508.9,563.5z M507.4,637.1l1.8-0.3l0.3-1.5l-1-0.8l-0.8,1L507.4,637.1z M512.2,663l-0.3-1.5l-1.3-0.5v1.5L512.2,663z M511.2,674.6
		l1.8-0.3l0.8-2.8l-2.1-1.3l-1,3.1L511.2,674.6z M513.3,684.1l0.5-1.3l-0.5-1.3l-1-0.8l-0.5,1.3l0.3,1.5L513.3,684.1z M512.8,652.8
		h1v-2.3h-1V652.8z M515.6,687.5l0.3,1.5l2.1,1.8l1.5-2.8l-0.5-1.5l-2.1,0.3L515.6,687.5z M519.5,678.7l-0.5-1.5l-1-0.8h-1.8
		l0.5,1.8l1.3,0.8L519.5,678.7z M517.1,688l1.3-0.5l-1,1.5l-0.8-0.5L517.1,688z M521,695.2l2.8,0.5l0.8-2.1l-0.3-1.3l-2.3-0.5
		l-0.8,1.3L521,695.2z M521.8,681.8v1.5l1,0.8h1.5v-1.8l-1-1L521.8,681.8z M526.7,697.5l-0.3,1l1.5,2.6l1.5,0.3l0.5-1.3l-0.5-3.3
		l-1.8,0.3L526.7,697.5z M526.7,689.8l1.8-0.5l1.5,0.5l-0.3-1.8l-1-0.8l-1.5-0.3l-0.3,1.3L526.7,689.8z M531.5,693.7l1.3,0.5v1h1.8
		l1.3-0.5l-0.3-1.8l-2.8-1.5l-0.8,1L531.5,693.7z M531.5,704.7l1.8,0.3l1.3,0.8l1.3-0.5v-1.5l-1-0.8l-2.8,0.8L531.5,704.7z
		 M540,701.4V698l-2.8-0.5l0.5,2.8l0.8,0.8L540,701.4z M537.2,709.1v1.5l1,0.5l1-0.8l1.8-0.3v-1.5l-1.3-0.3l-1.3,0.5L537.2,709.1z
		 M543.1,706.3l1.5-0.3l1-0.8l0.3-1.3l-3.3-1l0.3,2.1L543.1,706.3z M545.4,714.5h-1.5v1.8l1-0.5L545.4,714.5z M551.1,711.1l0.5-3.3
		l-2.8-0.5l-0.5,1.3l0.3,1.5l1,0.8L551.1,711.1z M556.5,716.8l0.5-1.3l-0.3-1.3l-1-1l-1.5-0.3l-0.5,1.3l0.3,1.5l1,0.8L556.5,716.8z
		 M555.5,703.9l1,0.8l0.5-1.3l-1-0.5L555.5,703.9z M557.5,710.6l1.3,0.3l1.5-0.5l1,0.8l0.8-2.1l-1.3-0.5l-2.8,0.8L557.5,710.6z
		 M565.2,716.3l1.5-0.5V714l-1.5-0.5V716.3z M571.9,711.1l-0.3-1l-1.3-0.5l0.3,1.3L571.9,711.1z M585.3,716.3l0.5-1.3l-1-1l-0.5,1.3
		L585.3,716.3z M603.6,710.6l-2.8-0.5l0.5,1.5h1.3L603.6,710.6z M629.5,705.2l-2.3-0.5l0.5,1.3l1,0.3L629.5,705.2z M664.3,506.6
		l1.5,9l-0.5,3.1l-1,1.3l0.5,1.3l1.3,1l0.5,1.5l-0.8,6.4v6.2l-0.8,2.8l-0.8,1l0.8,0.8l1,8l-0.3,1.5l-1.5,1.8l1.8,2.8l-0.8,4.9
		l-2.1,2.3l1.5,2.1l1,2.8v11.3l-1.5,4.9l0.5,1.3l1.8,2.1l-0.8,3.3l-2.6,3.9h2.3l0.5,6.4l-0.5,1.3l-1.3,0.5l1,5.9l0.3,12.6l1,9.5
		l-2.3,5.7l1.3,4.9l-2.6,5.4l0.3,3.6l-1,0.8l-1.3-0.3l-1,1l0.5,1.8l1,1l-4.6,11.6l-3.3,4.9l-2.3,1.8l-0.8-1.8l-1,1v2.8l-2.6,2.1
		l-1.8,0.3l-0.3,1.5l-1.8,1.8l-1.3,0.5l0.3-2.6l1.8-2.8l1.3-0.8l2.3-12.3l3.9-12.9l-1.3-12.3v-24.9l0.5-12.6l-1-15.9l0.8-3.1
		l0.5-24.2v-24.7l-0.3-12.3l3.9-4.6l8.5-8.5L664.3,506.6z M652.7,667.7l1,0.5l0.8-1.3l-1.3-0.5L652.7,667.7z M655,627.3l1.5-2.8
		L655,625l-1,1.3L655,627.3z M654.5,554.2h1v-1h-1V554.2z M656,606.2v-3.1l-1-0.3l-0.5,0.8L656,606.2z M656.6,571.2H655l0.8,1
		L656.6,571.2z M655.5,616.2h1v-1.3h-1V616.2z M657.6,639.9l0.3,1.5l2.1,1.3l0.5-1.5l-0.5-1.8h-1.3L657.6,639.9z M658.9,537.5
		l1.3-0.3l0.5-1.3l-0.5-1.5l-0.8-0.8v1.8l-0.8,1L658.9,537.5z M659.4,579.2l1.3,0.3l0.8-1.3l-1-0.8L659.4,579.2z M661.4,547.5
		l0.3-1.5l-1.8-0.8l0.3,1.8L661.4,547.5z M663.2,625l1,0.5l0.5-1l-1-0.5L663.2,625z"/>
	<path fill="#F4A724" d="M786.2,506.1l-1.8,2.8l1.8,2.3l0.8,2.6l0.3,4.9l-1.3,0.3l-0.8,1l2.1,3.6v4.6l-2.8,0.5l0.8,3.1l2.1,3.3v1.8
		l-0.5,1.3l-1,0.8l-0.5,1.3l1.3,1.5l0.8,2.8v5.7h-2.8l3.1,5.9l0.3,1.8l-2.1,2.3l-0.3,1.3l1.8,8l-2.3,2.1l-1.5,0.8l1,1.3l2.8,1.5
		l-0.5,3.1l1,2.8l-1,0.3l-1.3-0.5l-1,1.5l0.3,1.5l2.1,1v4.6l0.5,1.5l-1.5,0.3l-1.3,2.1l0.8,1.5l1.5,0.5v5.1l-1.5,2.6l2.1,7.2l-0.8,1
		l-1.5,0.5l-0.5,1.3l0.3,1.5l2.1,1.8v3.3l-0.8,2.8l-1.5,2.1l0.5,1.3l1.8,1.5l0.3,2.1l-0.5,3.1l-0.8,1.3l-1.3,0.8l0.5,1.3l1.8,1.5
		l0.3,1.5l-1.8,6.7l0.3,1l1.8,1l0.3,1.5l-0.5,3.6l-0.8,1.5l-1,0.5l2.3,2.3v4.4l-3.6,4.4l2.8,3.3l0.5,3.1l-2.1,3.6l1.5,4.1l-0.3,4.4
		l-0.8,1.3l-1.3,0.8l2.1,4.9v3.1l-1.3,2.6l-1.3,1l3.6,4.9l2.6,1.8l1.5,0.5l5.1-1.5h1.5l1.8,2.1l-7.2,8.5l-4.4,3.3l-5.9,1.8l-8-0.3
		l-1.5-2.8l-1.8-6.2v-3.3l1-2.1l-0.5-24.4l-0.8-9.3l0.3-2.8l1-2.8l-0.3-1.8l-1.3-1l1.5-4.4l-0.5-24.7v-25.2l0.5-6.4l-1-4.9l1-6.7
		v-24.4l-1-9l0.5-24.7l-0.5-10.3l0.5-2.8l1-2.3l10.5-11.1H786.2z M775.7,613.9l0.5-2.1l-1.5,0.8L775.7,613.9z M774.6,645.6l1.5,0.5
		l-1-1.8L774.6,645.6z M775.1,533.1h1v-1h-1V533.1z M775.1,626.8h1.5l-0.3-1l-1.3-0.3V626.8z M775.1,690.3l2.3-1.8l0.5-1.5l-1-0.8
		l-1.8-0.3l0.8,1.5l-0.3,1L775.1,690.3z M777.5,553.7l0.5-1.5l-0.8-1.3l-1.5-0.5l0.8,2.6L777.5,553.7z M775.7,564.3h1V563h-1V564.3z
		 M775.7,604.7l2.3-0.8l-0.8-1.5l-1.5-0.5V604.7z M775.7,624.5l1,0.5l0.8-1l-1.3-0.5L775.7,624.5z M778.5,576.9l0.5,1.5l1.5,0.3
		l0.8-1.8l-1.5-0.5L778.5,576.9z M781.3,619.6l-1-1.3l-1.3-0.5l-0.5,1.3l0.5,1.3l1.3,0.3L781.3,619.6z M780,548.1l1.8-3.9H780
		l-1,3.1L780,548.1z M779,597.4v2.1l1.3,0.5l1.5-0.3l1-0.8v-1l-1-0.8l-1.5-0.3L779,597.4z M779.5,630.6h1l-0.5-1.3l-1,0.5
		L779.5,630.6z M779,652.2l2.3,1l0.5-1.5l-0.3-1.8l-1.5-0.5l-0.8,1L779,652.2z M779,671.5l1-0.3l0.5-1h-1L779,671.5z M779,674.1h1.5
		l-0.3-0.8l-1.3-0.3V674.1z M780,695.2l3.1-1.5l0.3-1.3l-2.6-0.5l-1.3-1l-0.5,1.5l0.3,1.5L780,695.2z M779.5,527.2l1.5-0.3l0.8-1
		l-0.5-1l-1.3,0.8L779.5,527.2z M779.5,610.1l1.5,0.5l1.3-0.8V608h-1.5l-0.8,0.8L779.5,610.1z M780.5,703.4l0.8-0.5l-1.3-1
		L780.5,703.4z M781.8,662.5v-3.3l-1.5,2.8L781.8,662.5z M780.5,682.6h1.8l-0.5-1.3h-1.3V682.6z M781.3,589l1,0.3l0.8-1l-0.8-0.8
		L781.3,589z M781.8,714.5l0.8,0.5l0.8-1.5l-1,0.5L781.8,714.5z M786.7,709.1l0.5-1.3l-1-1l-0.5,1.3L786.7,709.1z M825.6,587.4
		l-1.5,0.8l-0.8,1.5l-4.4-4.4l-5.1-8l-6.4-5.9l-3.1-5.1l-2.6-1.5v-1.3l-1.3-2.3l-0.3-1.5l2.1-2.6l-1.5-2.3l-0.5-3.1l0.5-6.2
		l-0.5-6.2l0.8-5.9l0.8-1.3l2.6,1.5l3.9,4.6l3.6,2.6l1.3,3.1l3.6,5.1l3.1,3.3l2.6,1.8l1.5,2.3l-0.5,1l2.8,2.1l0.5,2.8l3.9,4.6
		l0.5,1.5l2.6,1.8l8.2,9.5l7.5,10.3l-0.8,1.3l0.3,3.1l1.3,0.3l1.3-1.5l1.3,0.3l0.8,1l0.3,1.5l-0.5,1.8l5.7,3.3v3.3l1,1l3.3,1
		l0.5,2.8l8.5,8.7l15.2,19.3l5.1,5.7l-2.8,1.5l-0.5,1.8l1,0.5l4.9-0.3l1.3,1.3l-1,1.5v1l1.5,2.6l1-0.8v-2.6l3.3,4.4l-1.5,2.8l0.8,1
		l3.1-0.5l1,1.3l1,3.6l2.8,1.3l7.7,9.3l2.3,1.8l6.7,10l8.7,10.3l-1,1.5v4.1l1.8-0.3l0.3-2.1l1.8,0.5l2.1,2.3l-1.5,2.1l0.8,1.3
		l1.3,0.5l1.3-1l3.1-0.3l7.7,1.5l1.3-0.3l-3.6,5.4l-6.7,6.4l-1.8,2.6l-3.1-0.3l-6.7,0.5l-3.1-0.3l-2.8-1.8l-2.8-3.3l-1.5-0.5
		l-3.3-5.4l-7.7-10l-6.4-6.7l-3.1-5.4l-5.9-6.7l-1.5-2.8L877,658.2l-3.9-4.9l-4.1-6.7l-2.6-1l-3.1-5.1l-4.1-3.9L858,634l-15.4-18.8
		l-15.2-19.5l-3.6-4.9l0.5-1.3l1-0.5L825.6,587.4z M808.3,553.7l-1.5-2.3l-1.3-0.5v1.8l1,1H808.3z M807.3,564.3l1.3-0.3l0.3-3.1
		l-0.5-1.3h-1.8l0.5,3.3L807.3,564.3z M810.6,556.5v1.5l1.8,0.5l1-0.8v-1.3l-1-0.8L810.6,556.5z M813.7,569.2l-0.5-1l-2.6-0.5
		l0.3,1.3l1.3,0.3H813.7z M816.6,573l1.3-0.3l0.5-1v-1.5l-1.5,0.5l-0.5,1.3L816.6,573z M817.6,563l1.3-0.5l-0.5-1.5l-1.8-0.5v1.8
		L817.6,563z M820.9,578.7l3.1,0.5l1.5-0.5l-0.3-1.8l-1.3-0.8l-2.6,1L820.9,578.7z M822.7,569.2l2.3-1l0.5-1.3l-2.3,1L822.7,569.2z
		 M828.1,574l1.3-0.8l0.5-1.5l-0.5-1.5h-1.8l-0.5,1.3v1.8L828.1,574z M829.4,584.6l0.5-1.5l-0.8-1.5l-1.5-0.8l-0.5,1.5l0.8,1.8
		L829.4,584.6z M831,577.9l2.8,1.3l0.8-1.8l-0.3-1.5l-1.5,0.3l-1,0.8L831,577.9z M831,587.4l0.3,1.5l0.8,1l2.8,0.8l0.5-1.3l-0.3-2.8
		l-1.3-0.3l-0.3,1.3l-0.8,0.3L831,587.4z M834.8,599.5l-0.3-1.5l-1.3-0.5h-1.8l1.8,1.8L834.8,599.5z M837.1,593.6l2.1,0.3l1,1
		l1.3-0.3l-1-1.5l-2.8-1.8l-0.5,1V593.6z M838.7,584.1l1-0.8l-1-0.8V584.1z M841.5,609l1,0.8l2.8-0.3v-2.3l-3.1,0.8L841.5,609z
		 M842.5,587.9l1.8,0.3l1-1.3l-1.5-0.3L842.5,587.9z M844.9,601.3l1-2.6l-0.3-1.3l-1.3-0.5l-0.5,2.8L844.9,601.3z M848.2,605.7
		l3.3-0.5l-0.8-2.8l-1-0.8l-1.5-0.3l-0.5,1l0.5,1.3V605.7z M847.7,614.4h2.6v-1.5l-0.5-1h-1.5l-0.5,1V614.4z M852.6,609l1.8-0.3
		l0.5-1.5l-1.8,0.3L852.6,609z M855.9,619.1l-0.5-1.5l-1.8-0.3l0.8,1.3L855.9,619.1z M858,613.9l1.3-0.8l-1.3-0.8V613.9z M858,626.8
		l1.5-0.8l1.3-3.1l-2.1-0.8l0.3,1.5l-0.5,1.3L858,626.8z M862.6,628.8l1.8,2.3l1.5,1l0.8-1.3l0.3-2.1l-1.3-0.5h-1.8L862.6,628.8z
		 M865.9,619.6l-1.5,0.8l-0.8,1.3l1.3,0.8l2.1-1.8l-1.8-3.1l-1,0.8l1.3,0.3L865.9,619.6z M866.5,639.9l-0.5-1.3l-1.3-0.3l0.5,1.3
		L866.5,639.9z M870.8,626.8l0.5-2.8l-1-0.5h-1.8v1.8l0.8,1L870.8,626.8z M870.3,637.1l1-1V634l-2.3-0.8l-0.3,3.3L870.3,637.1z
		 M874.2,630.6l1,0.5l-0.3-1.3l-0.8-0.5V630.6z M878.6,645v2.1l3.3,0.5l1-1l-1.5-0.3v-2.1l-1.8,0.3L878.6,645z M880.1,637.1h2.3
		l-0.3-2.3l-1-1l-1.5-0.5l0.5,2.6V637.1z M882.9,657.6v-1.5l-0.5-1l-1-0.3l0.3,1.8L882.9,657.6z M884.7,653.3l1.5-0.3l0.8-0.8
		l0.3-1.3l-1-1.3l-1.5-0.3l-0.5,2.6L884.7,653.3z M887.3,663.8l0.8-1.3l-0.8-1.3l-1.3-0.5l-1.3,0.8l1.3,1.8L887.3,663.8z
		 M885.2,639.4l1,0.8l1.8,0.3l-0.8-1.5l-1.3-0.5L885.2,639.4z M889.1,655.3l0.5,1.5l1,1l1.8,0.3l-0.5-3.3l-1.8,0.3L889.1,655.3z
		 M889.6,665.9v1.8l2.6,0.5l1.3-0.5l-0.5-1.5l-1.8-0.8L889.6,665.9z M897.3,663.8l0.5-1.3l-0.5-1.5l-2.3-1.8v3.1l0.8,1.3
		L897.3,663.8z M897.8,672.6v-1.8l-1-1l-0.3,1.5L897.8,672.6z M900.2,668.7h1.8l1-0.5l0.5-1v-1.8l-1.5-0.8l-2.1,1.3l-0.5,1.3
		L900.2,668.7z M901.2,678.7l-0.3-1.3l-1.3-0.5l0.3,1.3L901.2,678.7z M905,672l1.8,0.3l1.5-0.8l-2.3-1.8l-0.5,1.3L905,672z
		 M905,683.6l2.8,0.5l-0.5-1.3l-1.5-0.3L905,683.6z M906.8,681.3h1v-1h-1V681.3z M906.8,693.1h1v-1.3h-1V693.1z M910.2,678.2h1.3
		l1.5-0.8l1-1.5l-1.3-0.5l-1.5,0.3l-0.8,1L910.2,678.2z M911.2,698.5h1.5l1-0.5l0.3-1l-1.3-0.5l-1,0.8L911.2,698.5z M916.1,681.3
		l1.3,1l1,1.8l1-2.8l-2.3-1L916.1,681.3z M916.6,695.2l2.8-1.3l0.5-1.5l-1.8-1.5h-1.5l-0.5,1.3L916.6,695.2z M919.4,705.2l0.5-1.5
		l-1-0.8v1.5L919.4,705.2z M920,697.5l0.3,1.5l0.8,1l2.8,0.8l1.3-2.3l-1.5-0.8l-0.3-1.5l-0.8,1H921L920,697.5z M921.2,688.5l2.1-1.3
		l0.5-1.3l-2.3,1.3L921.2,688.5z M921.8,708.6l2.6,0.3l0.8-0.8l-2.6-0.5L921.8,708.6z M936.2,506.1h3.1l-0.5,5.9l-1.5,2.3l2.1,4.1
		v3.6l-2.1,2.3l1,1l1,4.6l-0.5,3.3l-1.5,2.6l1,0.5l0.8,1.3l0.3,3.1l-2.1,5.1l0.5,1.3l1.5,0.3v5.1l-0.8,2.8l-1.3,1l1,1l1.3,4.4
		l-0.5,2.8l-1.8,2.8l0.8,1.5l1.3,1l0.3,2.1l-0.5,3.1l-1.8,2.1l0.3,1.3l1.8,1.5l0.3,3.3l-0.5,2.8l-1.8,1.5l0.8,1.3l1.3,0.5l0.3,3.6
		l-0.5,2.8l-1.8,1.8l0.3,1.8l1.8,2.1l0.3,2.1l-1.8,5.7l0.8,1.3l1.5,0.3l-0.3,3.3l-0.8,2.8l-1.8,2.3l1,1l1.8,0.5l0.5,3.1l-0.5,3.1
		l-1.5,2.1l-1.3,0.5l1.8,2.6l0.5,1.5l-0.3,3.1l-2.1,4.6l1,1l1.8,0.5l-0.5,3.3l0.3,6.2l-0.8,3.9l-0.8,1l0.8,2.1l0.8,5.9l-0.5,6.9
		l-1,5.7l-8.5-8.5l-3.6-4.9l-2.1-5.9l-0.5-5.9l0.8-12.3v-11.8l-1-10.8l0.5-5.1l1.3-2.3l0.3-12.3l-1-24.7l0.8-12.9l-1.3-8.5l1.3-10
		l-1.3-2.8l1.3-12.9l-0.8-5.9l0.5-2.6l1.5-2.6L936.2,506.1z M926.7,691.8l2.8,1.3l-0.3-1.8l-1.5-0.5L926.7,691.8z M930,704.7
		l-0.5-1.3l-2.8-1l0.5,1.8l1.3,0.8L930,704.7z M926.7,714v1.8l1.3,0.3l1.5-0.8l0.5-1.8h-1.8L926.7,714z M927.2,631.7l1.5-0.5
		l0.3-1.8l-1.5,0.3l-0.5,0.8L927.2,631.7z M929.5,600V598l-1.5,0.5v1L929.5,600z M928.2,547.5l1.8-0.3l0.5-1.5l-1-1l-0.3,1.8
		L928.2,547.5z M934.4,532.6l-0.5-1.5h-1.5l0.5,1.8L934.4,532.6z M933.3,543.2l1.5-1.8v-1.5l-2.1-0.5l-0.5,1.3v1.8L933.3,543.2z
		 M932.3,570.7l0.8,1.5l1.8-0.3l-0.3-1.5l-1.3-0.3L932.3,570.7z M932.3,605.2l1,0.5h1.5l-0.5-1.3l-1.3-0.3L932.3,605.2z
		 M934.9,709.9v-1.8l-1.8,0.5l-0.8,1.3l0.3,1L934.9,709.9z M934.9,614.4l-0.5-1.5l-1-1l-0.5,1l0.5,1.3L934.9,614.4z M933.3,637.1
		l2.1-0.5l-0.8-3.6l-1.8-0.3l0.5,1.8l-0.3,1.5L933.3,637.1z M935.4,646.6l-0.3-1.8l-0.8-1v2.1L935.4,646.6z"/>
	<path fill="#F4A724" d="M1063.2,506.4l-0.3,3.1l-1.3,2.3l2.1,5.9l-0.8,2.6l-1.3,0.5l1.3,2.6l0.3,8.2l0.8,1.8l-2.3-0.5l1.3,2.8
		l0.3,4.9l-1.3,2.6l-1.3,0.8l1,1.3l1.5,0.8l-0.3,4.9l-1.3,2.3l2.8,7.2l-1.3,1l-1.3,2.6l-1.3,1l0.8,1.5l1.8,0.5v3.3l-1.5,4.4l1.5,6.4
		l-1.5,4.1l0.3,1.5l1.3,1.3l1,2.8l-1.3,12.3l0.3,2.6l-1.5,1l2.3,1l-0.5,5.9l-0.8,0.8l1,1.3l0.3,5.1l0.5,1.8l-1.5,2.8l-1.3,0.5
		l2.8,2.8l-0.8,3.9l0.3,1.5l-0.8,1.5l-1.3,0.8l-0.3,1.8l2.8,3.3v2.1l-0.8,1.5l-1.5,0.8l-0.5,1.5l1.8,4.9v2.8l-1.8,2.8l0.8,0.8l1,4.9
		l-0.8,3.3l-1,1v1.8l2.8,4.6v1.8l-0.5,1.3l-1.5,0.5l-0.8,1v1.8l2.3,1.3v15.7l-2.3,2.6l0.5,1.8l3.1,1.3l2.1,2.6l9.3-2.3l0.8,1.5
		l1.5,0.8l5.1-2.1l2.1,0.3l1.5,2.3l2.6-0.3l4.4-1.5l2.8,0.5l1.3,1.3l1.3-1.3l1,1.3l1-1l1.5-0.5h3.9l2.8,1.5l1.5-0.3l2.1-1.5l1.5-0.5
		l1.8,0.5l2.6,1.8l3.3-1l2.8-0.3l3.1,0.5l1.8,0.8l2.8-1.5h4.6l2.3,2.1l3.3-1.3l0.5-1.5l3.3,0.5l3.3-1l0.3,2.1l1,0.8l1.3-0.8l1.8-2.1
		h1.8l3.1,1l1.8,1.8l2.1-1.3l2.8-0.8l5.1-0.3l0.5,2.3l1.3-0.8l0.8-1.3l1.3-0.8l3.3,0.5l1.5-0.5l2.8,2.8l1.3-1l0.5-1.8l7.7,2.1l1,0.8
		l2.6-1.5l1.3-0.3l1.5,0.8l-2.8,5.1l-6.9,5.7l-1.8,2.3l-5.4,1l-24.7,0.5l-1.3,0.3l-12.1-1.8H1127l-2.3,1.3l-24.4-1.3l-24.7,1.3
		l-9-0.8l-4.9,1.3l-12.1-1.8l-0.8-3.1l-0.5-5.9l0.8-15.7l-1.3-2.8l0.5-25l0.8-18.3l-1.3-7.2l1.3-5.9l-1-12.3v-9.5l1-5.4l-1.5-9.5
		l0.3-3.6l1.3-2.8l-1.3-6.7l1.3-12.6l-0.8-8.5l1.3-2.6l0.3-6.2l-1.5-25v-9.3l1-3.1l1.5-2.6l4.6-4.4l4.6-3.6l1.5-1.8L1063.2,506.4z
		 M1050.6,626.3l0.5,1.5l1,0.8l1.3-0.8l0.5-1.5l-1.8-0.3L1050.6,626.3z M1053,587.7l1.5-1.3l-0.5-2.6h-1.8l-1,0.8l0.5,2.1
		L1053,587.7z M1052.2,637.8h1.3l0.5-0.5l-2.3-1.5l-0.5,1L1052.2,637.8z M1053.5,692.1l-0.5-1.5h-1.8l0.5,1.3L1053.5,692.1z
		 M1051.2,699.8l0.5,1.8l1.5-0.5l0.3-1.8h-1.3L1051.2,699.8z M1051.7,552.7l1.8,0.5l-1.3-1.5L1051.7,552.7z M1051.7,574.8l1,0.5
		l1.3-0.5l-0.5-1.3h-1.3L1051.7,574.8z M1051.7,669.5l1.8-0.5v-1.3L1051.7,669.5z M1051.7,710.4l1.3,0.8l1-0.3l-0.3-1.3l-1.3-0.3
		L1051.7,710.4z M1052.2,661.2l1.5,0.3l0.8-1.5l-1.5,0.3L1052.2,661.2z M1054.5,681v-1.5l-1-0.8v1.8L1054.5,681z M1056.3,529
		l1.5-0.5V527l-1-0.8l-0.5,1.3V529z M1056.3,547.3l1,1.5l1.3-0.3l0.3-1.8h-1.5L1056.3,547.3z M1056.3,592.6l1.5,0.5l1.3-0.5l0.3-1.5
		l-2.1,0.5L1056.3,592.6z M1056.3,654.5l0.5,1.3l1,0.3l1.3-0.8l0.3-1.3L1056.3,654.5z M1056.3,674.4l1.5,0.5l1-1l-1.5-0.5
		L1056.3,674.4z M1056.8,537.3l1,2.1l1.5-0.3l-0.3-1.5l-1.3-0.5L1056.8,537.3z M1058.4,603.6l-0.5-3.1l-1-1.3v3.3L1058.4,603.6z
		 M1056.8,645h1.5l1-0.5v-1.8l-1-1l-0.8,1.8L1056.8,645z M1057.8,653.5l0.5-1.3l-1-1l-0.5,1.3L1057.8,653.5z M1058.9,687.2l-1-3.1
		l-0.5-0.3l-0.5,1.3L1058.9,687.2z M1056.8,697l1.5-0.5l0.3-1.5l-1.3-0.5L1056.8,697z M1056.8,704.7l0.5,1.5l1,0.5l1-0.3l-0.3-1.5
		l-1-0.8L1056.8,704.7z M1061.7,692.6l1-0.8l-1-0.8V692.6z M1063.2,710.4l1.3,0.5l0.5-1l-1-0.5L1063.2,710.4z M1068.9,717.1l0.5-1.8
		l-2.1-0.5v1.8L1068.9,717.1z M1076.6,717.6l1,0.5l0.8-1l-1.3-0.5L1076.6,717.6z M1199.3,520.8l-0.8,2.3l-8.5,9l-2.6,1.5l-3.1,0.8
		l-6.4-0.5l-6.7,1h-2.8l-5.9-1l-2.8,0.8l-5.9,0.3l-15.7-1l-2.8,1l-3.3-1l-3.3,1l-13.9-1.5l-1.3,1l-1.8,0.5l-1.8-0.5l-9.5-0.3
		l-3.1-0.8l-1.5,0.8l-6.2,0.5l-6.2-1l-4.9,0.3l-0.8-2.6v-10.6l5.7-1.3h12.1l12.9-1h5.9l2.3,1l4.6-0.3l1.5,0.8l4.9-1.5l2.6,0.8
		l3.1,0.3l12.6-1l15.9,1l12.6-0.8l23.7,1.8L1199.3,520.8z M1181.1,615.7l-1.3,2.8l-3.9,4.6l-0.8,1.5l-3.6,2.3l-5.1,1.5l-12.9,0.8
		l-13.9-0.8h-12.9l-4.1-1l-2.8,1.5l-1.3-0.5l-8.7,0.5l-7.2-1l-4.4,1l-2.8-1l-11.8,0.5l-4.6-0.5l-1.3-5.7l0.3-5.4l1-2.8l1.5,0.3
		l6.4-0.8h24.7l2.6-0.5l22.6,0.8l7.2-1.5l2.8,0.8h18.8l2.3,1l6.2-0.8l3.3,0.3l2.8,1L1181.1,615.7z M1093.9,522.8l0.8,0.8l1.3,0.3
		l-0.5-1.3l-1-0.8L1093.9,522.8z M1098.7,624.2l0.3-1.5l-1.3-0.8v1.5L1098.7,624.2z M1103.1,711.9h1.3v-1.3l-1.3-0.3V711.9z
		 M1104.4,524.7h1.5l-0.5-1l-1-0.3V524.7z M1108.8,622.9l1-0.5l0.3-1.5h-1.3V622.9z M1112.1,525.7l-2.3-0.5l0.3,1.3l1.3,0.3
		L1112.1,525.7z M1110.8,715.8h1.3v-1h-1.3V715.8z M1114.2,616.5l2.8,2.1l-0.8-1.5l0.3-1.3l-1.5-0.3L1114.2,616.5z M1117.5,711.9
		l-1.5-1l0.5,1.5L1117.5,711.9z M1121.4,624.2h1.3l0.3-1l-1-0.8L1121.4,624.2z M1124.2,522.8l1.5,1l0.3-1l-1.3-1L1124.2,522.8z
		 M1124.2,711.4l0.5,1.5h1.8l0.5-1.5l-1.5-0.3L1124.2,711.4z M1129.1,622.4l2.3,1.3l1-0.3l-0.8-1.8l-1.3-1.3l-0.8,0.8L1129.1,622.4z
		 M1131.9,717.1l1.3-0.5v-1.3l-1.3-0.5V717.1z M1132.4,529h1.3v-1h-1.3V529z M1135.3,521.3h1V520h-1V521.3z M1135.3,712.7l2.3,0.5
		l-0.5-1.3l-1.3-0.3L1135.3,712.7z M1143.5,717.1l-3.9-1.3l0.3,1.5l1.3,0.8h1.5L1143.5,717.1z M1140.2,529.5h2.3l0.5-1.5l-0.5-1.8
		l-1-1l-1.3,1l-0.3,1.3L1140.2,529.5z M1151.2,529l1.5-0.3l1-0.8l0.3-1.3l-2.3-1l-0.5,1.3V529z M1151.7,621.9h1.3l-0.8-1l-1,0.5
		L1151.7,621.9z M1152.5,715.8l1,0.8l0.5-1.3l-1-0.5L1152.5,715.8z M1161.8,717.6l1.3-0.5l0.3-1.3l-1-1l-0.5,1.3V717.6z M1163.6,529
		h1v-2.3h-1V529z M1168.5,524.7v-3.3l-1.3,0.3l-0.5,1.3l0.5,1.3L1168.5,524.7z M1170,711.4l-0.5-1.3l-1,0.3L1170,711.4z M1170.8,528
		l0.5,1l1.5-0.3l0.8-0.8l1-2.8l-2.8,1.5L1170.8,528z M1178,712.7l0.8-1.5l-1.5-1.3l-0.5,1.5L1178,712.7z M1178,521.3l1.5,0.5v1.5
		l1.5-0.5v-1.3l-2.1-1.5L1178,521.3z M1183.4,528l1,0.5l0.5-1.3l-1-0.5L1183.4,528z"/>
</g>
<g>
	<path fill="#1D252E" d="M48.2,673.1l2.1-0.5l0.5,1.5l6.9,6.7l0.5,2.8l2.6-0.5l1.8,2.3l8.2,4.4l1,1l1.8-0.5l5.9,2.1h1.8l-1,2.8
		l1.5-0.3l2.3-2.1l4.9,1l1,0.8l5.9-1.3l5.1,0.3l1.3,0.5l2.3-1.5l5.9-1.8l0.8,1l-0.8,1.8l2.1,1l1.3-1.3l-0.5-1.5l0.8-1.3l8-4.1l1-1.3
		l2.8,0.5l0.8-2.6l2.3-2.3l3.1-1.5l6.9-9.3l2.8-5.1l2.8-9l0.5-6.4l1.8-2.3l1.8,0.5l1.5-0.5l-1-1l-2.8,0.5v-9.5h3.1l-0.5-1.5h-2.1
		l-0.8-12.9l1.3-7.2l-1.3-3.9v-15.9l4.1-1l-1-1.3l-1.8-0.8l-1-1.3v-1.5l1.3-3.9l-0.3-1.8l1.3,0.5l1.5-0.5v-1.8l-0.8-1.5l-3.1,1
		l-0.5-1.8l0.5-4.9l1.3-0.8l1.3,0.3l0.3-1l-0.8-1.3l0.5-1.5l-1-0.3l-1,1l-1.3-0.3l0.5-18l-0.5-4.6l2.3-1l-1.3-2.3l-0.8-6.7l1-7.7
		l-0.8-5.7v-14.7h1.8l1,0.5l1-0.8v-1.8l-0.5-1.3l-1.8,0.8l-1.3-0.3v-1.8l2.3-1.5h1.8l2.8,1.3l0.8,1l3.6-2.1l3.1-0.3l1.5,0.5l-0.5,25
		l1,25.7l-0.3,6.4l-0.8,3.3l1,8.7l-1,1l1,6.7l-1,9.3l0.3,5.9l0.8,2.8v2.8l-0.8,2.8l-0.3,6.2l0.5,13.4l-1,3.9l0.8,2.8l0.5,11.8
		l-1.3,11.3l-2.3,0.5l0.8,3.1l-0.3,3.3l-4.9,11.3l-1.5-0.5l-0.8-1l-0.3,1l0.8,1.3l1.3,0.8l-2.6,5.7l-3.6,5.1l-3.9,4.4l-13.4,9.8
		l-0.8-0.8l-0.8-2.6l-1.5,2.8h-0.8l-1.5-1l0.5,1.3l1,0.8l0.5,1.3l-2.3,1.3l-3.1-0.3l-2.8,2.8l-8.7,2.6l-2.1-0.3l-1.3-0.8l-1,1
		l-2.6,1l-5.9,0.8l-1-2.3l-1.5,0.3l-1.8,2.1l-3.1-0.5l-1.3,0.5l-1.3-1l-0.5-1.8l-4.6,1.8h-3.6l-2.8-1.8l-4.1-0.5l-1.3-1l1.5-2.3
		l-0.5-1.5l-3.1,1l-1,0.8l-0.8,1.5l-3.1-1l-2.6-1.5l-3.1-0.8l-1.3-2.6l-2.1-1.8l-2.8-0.8h-1.8l0.5-4.4l-0.5-1l-1.5,0.3l-1.5,1.3
		h-1.8l-1-2.6l0.5-4.1l-1.8,0.3l-0.8,1l-1.3,0.5l-2.8-3.9l1.8-1.8l-0.8-1.3l-3.9-0.3v-1.8l-1-2.8L31,671l-0.8-2.6l0.3-1.5l-2.3-1.5
		l0.5-1.3l1.8-1.5l-1-0.8l-1.8-0.3l-2.1-8.2h1.8l1.3-0.5l0.8-1.3l-1.5-1l-2.8,0.5l-0.8-19.3l0.5-5.9l1.3-4.6h13.1l0.8,3.1l0.8,1.3
		l0.3,3.3l-1.5-0.8h-1.8l-1,1.3l1.5,2.8l3.3-1.8l-0.5,6.4l-2.3,4.1l0.8,1.5l1.5,0.8l0.8,9.3l0.8,1.3l-0.5,2.1l4.9,11.8l2.3,3.9
		L48.2,673.1z M26.1,628.3l0.3,1.8l1.8,2.1l1.8,0.5l0.5-1v-2.8l-2.8-1L26.1,628.3z M27.1,640.9l0.5-1.3l-1-0.8l-0.5,1.3L27.1,640.9z
		 M30.4,624.5l2.3,1.5l0.5,1.3l2.1-1.3l-0.8-3.1l-1.3-0.8l-1.5,1L30.4,624.5z M34.3,637.1l0.3-1.3l-1.3-0.8l-0.5,1.5L34.3,637.1z
		 M40.5,652.5v-2.6l-1.3-0.5l0.3,1.8L40.5,652.5z M40,663.6l0.8-1.3v-1.8l-1.5-0.8v3.1L40,663.6z M43.8,665.9h1v-1h-1V665.9z
		 M49.7,684.1l0.3-1.3l-1.3-1l-0.3,1.5L49.7,684.1z M63.1,699.6l2.1,1.3l1.3-2.3l-2.8,0.3L63.1,699.6z M112.8,705.2l-0.5-1.5
		l-1.5-0.3v1.5l1,0.8L112.8,705.2z M127.2,687h1.3l-0.8-1.3l-1,0.8L127.2,687z M138.2,690.8l2.1-1.3l0.3-1.5l-2.8-0.5v1.8
		L138.2,690.8z M146.7,656.6l2.1,1l-0.3-1.8l-1-0.5L146.7,656.6z M149.3,564l-0.3-1.5l0.8-2.8l-1.5,0.5l-0.8,1.5l0.3,1.5L149.3,564z
		 M148.3,521.1l1.5-0.3l0.8-1.3l-0.5-1.3l-1.3-0.5l-1,1.5L148.3,521.1z M147.7,551.9h1l0.5-1.5h-1L147.7,551.9z M147.7,604.4h1.5
		l0.5-1l-0.3-1.3l-1.3-0.3l-0.5,1V604.4z M148.3,614.4l1.3-0.3l0.3-2.6h-1.5l-0.5,1.5L148.3,614.4z M149.3,626.5l0.5-2.6l-1.8,0.3
		v1.5L149.3,626.5z M148.3,540.3h1.5l0.8-1l-1.5-0.5L148.3,540.3z M149.8,668.7v-1.8h-1.5l0.3,1.3L149.8,668.7z M149.3,677.4l-1,1
		l2.1-1.5L149.3,677.4z M149.8,530.8l0.8-1.5l-1.3-1l-0.3,1.3L149.8,530.8z M154.9,516.7v-2.1l0.5-1.3l-0.5-1.3h-1.8l-0.5,1.3v1.8
		l0.5,1.3L154.9,516.7z M152.6,609h1l0.8-1.3l-1.8-0.5V609z M152.6,639.4l1,1.3l1.8-0.3l-0.5-1.3l-1.3-0.3L152.6,639.4z M153.1,600
		l2.6-1l0.3-1.8l-1.3-0.5l-1.3,0.8l-0.5,1.3L153.1,600z M154.9,527.7v-1.3l-1.3-1l-0.3,1.5L154.9,527.7z M154.4,547.5l1-0.8l-1-0.8
		V547.5z M154.4,557.1l1.5,0.8l1-0.8l-1.5-1L154.4,557.1z M154.9,537h1.5l-1.5-1V537z M155.5,568.1h1v-1.3h-1V568.1z M157,510.5
		l3.3,1.5l1.3-3.9l-1.3-1l-1.5,0.5l-1,1.3L157,510.5z M157.8,574.6h2.6l0.5-1.3v-1.8l-0.5-1.3h-1.5L158,573L157.8,574.6z
		 M158.8,543.2v-0.5l2.1-1.8l-1-1l-1.5,2.1L158.8,543.2z M158.3,603.9l1.5-0.5l0.5,1.3l1.3,0.5l-0.8-2.8l-1-0.5L158.3,603.9z
		 M158.8,521.6l1.3,0.5l1-0.8l0.5-1.5l-1.8,0.5L158.8,521.6z M160.9,551.9l-2.1-2.1v1.8l1,1L160.9,551.9z M158.8,584.1l1,0.5l0.5-1
		l-1-0.5L158.8,584.1z M159.3,637.1l1.5-0.5v-1.8l-1-1l-1,1.8L159.3,637.1z M159.3,533.1h1v-1h-1V533.1z M159.3,616.2h1l0.5-1.3
		l-1-0.5L159.3,616.2z M159.3,647.6h1l0.5-1l-1-0.5L159.3,647.6z M160.9,624.5h-1v0.8L160.9,624.5z"/>
	<path fill="#1D252E" d="M342.7,504.3l0.8,3.1l1,0.8l1.3-0.3l0.3-2.6l1.5,0.5l0.8,1.3l0.5,5.9l2.6,1.3l1.5,2.6l1.3,4.6l1.8,2.1
		l-0.8,3.3l-0.8,1l3.1,0.3l1.3,1l-0.8,3.3l0.3,1.3l2.6,0.8l3.6,8.2l0.5,2.8l-0.8,2.8l0.8,1h1.8l1.3,0.5l0.5,3.1l1.3,2.3l1.5,0.3v1.8
		l3.9,8l0.8,2.6l-0.3,3.1h2.3l6.9,16.2l0.3,4.9l2.8,1l3.3,9.3l1.5,2.6l2.3,2.1l0.5,3.3l1,2.8l2.8,4.9l2.3,5.4l0.5,3.3l2.8,3.6
		l0.3,2.1l2.3,2.8l1.8,6.2l5.4,10.8l3.3,9l-0.8,1.3l-1.5,0.3l4.1,2.6l1.3,2.3l-0.8,1.3l3.1,3.3l2.6,5.7l2.6,4.1l-1.3,1.8l2.3,0.5
		l1.8,5.9l4.1,7.5l1.8,5.9l-2.3,1.5h-3.1l-2.8-0.8l-1-0.8l-2.8,1.5h-1.5l-2.6-1.3l-2.3-2.1l-1.3-2.6l2.1-2.8l-1.3-2.8h-3.1l-1.8-6.2
		l-4.1-8.7l-0.8-4.4l-2.6-1.5l-0.3-1.5l-2.6-2.8v-1.8l-1-2.6l-1.8-1.8l-2.6-1l-14.7-1.3l-1.5-3.3l-1.3,1l-2.1,2.8h-6.2l-0.3-1.3
		l1-1.3l-1.5,0.5l-2.3-1l-0.8,1l-0.5,2.8l-4.9-0.8l-1-2.6h-2.8l-1,0.8v1.8l-5.1,0.5l-1.5-0.5l0.5-2.1h-2.6l0.3-1.8l-1.3,0.5
		l-0.8,2.8l-6.7,0.5l-1-3.9l-1.5,2.1l-2.3,1.3h-5.1l-0.8-1.8l-1.3-0.8l-1.3,0.3l-1,2.3h-6.7l-1-2.6l-1-0.8l-1.3,0.5l-1,2.8l-6.9-0.3
		l-2.6-1.3l-0.5,1l-2.6,0.8l-3.3-0.3l-2.8-3.3l-1,1l0.8,1.3l-0.3,1h-12.3l-7.7,0.5l-5.7,10.3l-2.6,7.5l-2.6-0.5l-1.3,0.5l0.5,1.3
		l1.8,1l-5.1,11.1l-3.3,2.8l0.8,4.4l-0.8,1.5l-2.1-2.1l-1.5,0.5l-1.8,2.1l0.3,1.3l1.5,0.3l1,0.8l-0.5,1.8l-1,0.5l-3.1-1l-1-0.8
		l-1.5,0.8l-0.5,1.5l-5.9-1l-3.6-1.8l3.6-8.5l1.8-2.1l2.8-1v-7.7l2.8-2.8v-2.8l3.1-5.1l0.8-2.6l2.3,0.5l1.5-2.1l-1.5-2.8l5.1-11.6
		l2.1-2.3l-0.5-2.1l5.9-11.3l1-1l3.1-8.7l1.8-2.1l1.3-0.8l-0.3-3.1l3.9-8.5l0.3-1.5h2.8l1.5-0.8v-1.5l-1.5-1.5l0.5-3.1l5.4-10.3
		l1.3-4.4h3.3l0.5-2.8l-0.8-0.5h-1.5l3.6-9l1.5-2.6h1.5l1.8-1.8l-1.3-3.3l2.6-5.9l3.3-5.7l5.7-7.2l-0.5-1.3l-1-0.8l6.2-11.3l1.5-5.9
		l1.5,0.5l1.5-0.3l0.8-1.3l-1-3.3l1-2.8l3.1-5.1l2.6-5.7l0.5-3.6l2.6,0.5l1.8-2.1l-2.3-1.8l1.3-2.8l1.5-0.5l2.1,2.3l1.8,0.5l1-0.5
		v-2.8l5.7-0.5H342.7z M242.2,701.9l2.3,1.3l1.5,0.3l0.8-2.1l-0.5-1.5l-1-0.8H244l-1,1L242.2,701.9z M248.8,686.2h1v-2.1h-1V686.2z
		 M249.9,697.3l0.8-3.1l-1.3-0.8l-0.5,1.3v1.8L249.9,697.3z M253.2,681.8l1.3-0.5v-1l-1.3-0.5V681.8z M253.2,689.5l1,2.3l1.5-0.5
		l1.3-2.3l-1.3-0.5l-1.3,0.3L253.2,689.5z M261.4,685.2l-0.5-1.5h-1.5l0.5,1.3L261.4,685.2z M267.6,671.3l0.3-1.5l-2.6-2.3v1.3
		l1,1.3L267.6,671.3z M270.4,643.2h1v-1.3h-1V643.2z M282,632.7l1.5,0.5l-1-1.5L282,632.7z M333.5,534.7l-1,1l-3.1,5.7h-1.5l0.3,3.1
		l-1.3,2.8l-2.8,1.3l1.8,1.5l-6.2,12.3l-2.3-0.5l-0.3,1.5l1.5,3.3l-1.5,2.3l-2.3,5.9l-2.6,3.3l-1.3,0.5l1,3.3l-3.3,4.9l-4.4,11.8
		h-2.8l1,2.6l-2.1-0.5l0.8,1.5l-0.3,3.6l-1.3,0.5l-1.3-0.3l-0.8,0.8l1.3,0.8l-0.3,2.6l-1.5,2.3l-2.1,5.7l-2.8,3.9l-1.3,0.8l1.3,1
		l-1.8,3.3v2.3l-4.6,8.2l-1.3,4.4l0.5,2.8h14.4l7.7-0.5v2.3l1,0.5l1.5-1.8l1.3-0.5l1.3,0.5l3.6-0.5l1.5,0.5l-0.8,2.8l0.3,1l1.3,0.8
		l1-1.3v-3.9l12.3,0.3l25.7-0.8l13.4,1l-1.8,2.1v1.8l1.5-0.8l1.5-2.3l0.3-1.3l12.1-1l4.6,0.5l1.5-1.5l-0.3-4.4l0.8-1.3l-1.8-2.1
		l-4.6-11.6l-2.8-5.1l1-0.5l0.5-2.8h-3.3l-1.5-2.6l-1.3-4.9l-2.1-4.1l1.3-0.5l0.5-1l-1.3-0.8l0.5-1.8l-1-0.8l-0.5,1.3l-1,0.3
		l-1.3-2.6l0.5-2.8l-3.9-4.6l-6.4-14.1l0.5-2.3l-3.6-4.4l-3.6-8.5l1.3-2.1l-0.3-1.8l-1.5-0.5L353,555l-4.1-9.8l3.1-0.3l0.3-1.3
		l-1.5-0.3l-2.3,0.8l-2.8-5.4l-4.1-9.8l-1.8-2.3l-2.3-1.8l-3.6,6.2l-0.3,1.5V534.7z M286.4,607.7l1-2.8l-1.5-0.5l-0.5,2.6
		L286.4,607.7z M299.3,584.6l-2.8-0.5l0.5,1.3l1.3,0.3L299.3,584.6z M300.3,654.3l1.3-0.5l0.8-1.3l-0.5-1l-0.8,1.3L300.3,654.3z
		 M300.8,578.9l0.3,1.5l2.3,1.5l1.3-0.3l-1.5-2.6l-1-0.5L300.8,578.9z M304.1,592.8l0.5-1V589l-2.1,1.3l-1.3-1.3l-0.5,1.5l0.5,1.3
		l1.3,0.8L304.1,592.8z M301.8,571.2l1.3-0.8l0.3-1.5l-1.5-0.5V571.2z M307,585.6l0.5-1.5l-1.3-0.8l0.3,1.5L307,585.6z M310.8,547.5
		l0.3,1.5l1.3,0.5h1.8l1-2.6l-1.5-0.5l-1,0.8L310.8,547.5z M312.4,560.1l0.3-1.3l-1.3-0.8l-0.5,1.5L312.4,560.1z M310.8,569.2v1
		l1-0.5l-0.5-1.3L310.8,569.2z M321.9,653.8l0.8,1.5l1.8,0.5l0.8-2.8h-2.1L321.9,653.8z M322.4,547.5h1.5l-0.3-1l-1.3-0.3V547.5z
		 M329.6,648.6l0.3-1.3l-1.5-0.8l0.3,1.5L329.6,648.6z M339.4,650.9v-4.4h-1.5l-0.5,2.6l0.8,1.3L339.4,650.9z M342.2,652.5l0.3,1.5
		l2.1,1.8l1-3.3l-1.8-0.3L342.2,652.5z M348.9,650.4l1.5-3.3l-1.8-0.5l-1,1v1.5L348.9,650.4z M356.6,547.5h-2.8l0.3,1.5l1.3,0.5
		l1.3-0.5V547.5z M356.1,655.3l1-2.6l-1-0.8l-0.8,1.8L356.1,655.3z M358.4,552.9l2.1,2.1l1.8,0.3l-0.5-1.5l-2.6-1.5L358.4,552.9z
		 M358.4,563l0.3,1.8l1.3,1l2.8-2.3h-2.1l-1.3-0.8L358.4,563z M359.4,648.1l0.3,1.8l1,0.5l1-0.3l0.8-1.3l0.3-1.8l-1.5,0.5
		L359.4,648.1z M364.8,655.8l1.8-0.3l0.5-1.8h-1.5l-0.8,0.8V655.8z M365.6,582.3l1.8-0.3l0.3-1.3l-1.5-2.3l-0.5,2.6V582.3z
		 M371,565.8l2.3-2.3l-1.8-0.5l-1.5,0.8l-0.3,1L371,565.8z M376.7,653h1l-0.5-1l-1.3,0.5L376.7,653z M379.3,585.1h3.3l-0.3-1.8
		l-1.8-0.5l-0.8,1.3L379.3,585.1z M385.9,612.1l-1-1l0.3,2.1l1.8,0.3l1.5-2.8l-1.5-1v1.8L385.9,612.1z M386.5,603.4l1.8-3.9
		l-2.8-0.5l0.8,1.5l-0.5,1.5L386.5,603.4z M389.8,616.5l3.9,1.3l-0.5-2.8l-2.6,0.8L389.8,616.5z M390.3,607.7h2.1l0.8-1h-2.1
		L390.3,607.7z M392.1,626.5h1v-1h-1V626.5z M397.5,622.7h1.3v-1h-1.3V622.7z M407,641.4l1.3,0.5l0.8-1l-1.3-0.5L407,641.4z
		 M413,680.3l0.8,1.5l1.3-0.5l0.3-1.5H414L413,680.3z M416.3,685.2h1.3v-1h-1.3V685.2z M420.9,681.3l1.3,0.5h2.1l1.5-0.5l-0.5-1.8
		l-1.3-1l-0.5,1.5H422L420.9,681.3z M422,690.8l0.3,1.3h2.8l0.8-0.8l-1-0.8h-1.3L422,690.8z M424,702.9l1.8-1l-0.5-1.8l-1-1.3
		l-1.8-0.3l-0.5,2.8l0.8,1L424,702.9z M428.6,697.3l0.8-0.8l0.3-1.3l-0.5-1.3l-1.3-0.5l-0.8,0.8l-0.3,1.5l0.5,1.3L428.6,697.3z
		 M433.5,703.4l1.5-3.3l0.5,1.5v-1.5l-1-1.3l-1.5-0.3l-0.8,1.5l0.5,2.1L433.5,703.4z"/>
	<path fill="#1D252E" d="M526.4,504.6l1,9l-1,5.9l1.5,3.3l-0.8,6.2l0.5,12.6l-0.3,5.9l-1,4.1l0.8,0.8l0.8,2.8v1.8l-1.5,4.1l1,2.8
		l0.5,3.3l-0.3,3.1l-1.3,2.8l1,1.3l1,3.1l-0.3,3.3l-0.5,1.3l-1.3,1l1,2.6l-0.3,6.2l-0.8,1l1.3,4.1l-1.3,5.9l0.8,2.8l0.3,6.2
		l-0.5,6.4l0.8,11.1l-0.3,3.1l-1,3.1l1.5,2.1l0.5,3.1l-0.3,3.1l-0.8,1l1.3,1l1.5,2.3l0.3,3.6l3.3,8.5l-0.8,2.8l1.3,0.5l1.5-0.5
		l2.1,4.6l8.2,8.7l6.2,4.9l1,2.8l3.1,0.3l2.6,0.8l0.3,1.5l1.8,1.8l1.8-1l8.7,3.1l4.9,3.1l0.8,1l1-2.8l5.4,1l1.3,0.8l0.5,1.5l2.3-1.3
		l3.3-0.5l3.1,0.5l2.3,1.3l2.6-1l6.9-0.8l3.1,0.3l2.8-1.8l2.1,0.3l7.5-2.3l1.5,0.5l2.6-2.1l1.8,0.3l10-6.7l0.3,1.5l0.8,0.8l2.8-0.5
		l-2.1-1.8l3.9-4.4h2.6l0.5-0.8l-0.5-1.3l1.5-0.5l1.8-2.3l2.3,1v-3.3l6.2-10l2.1-6.4l1.3-0.5l1-1.3v-6.2l1.5-12.1v-5.9l1-2.3
		l0.3-5.4l-1-10l0.3-3.3l0.8-0.8l1.5-0.3l-1.5-2.1l1-1.3l-2.3-1l0.8-3.6l0.3-4.4l1.8,1.3l1-2.3l-1-1l-1,0.5l-1.3-7.2h2.1l1.3-0.5
		l-0.3-1.8l-0.8-1L664,581l0.5-12.1l-0.5-4.6l2.6-0.5l0.8-1.5l-0.5-1.5l-2.8-1.3V554h2.1l1.3-0.8l-0.5-2.6l-2.8,1v-7.2l1-3.6
		l1.3-0.8l-1-0.5l-1-2.1l-0.5-2.8l0.5-7.2l-0.3-6.7l2.3,0.5l0.5-2.8l-1-0.5l-1.3,0.5l-1-0.5l0.5-3.6l2.1-3.9l1.3-0.8l-0.5-1.5
		l-1.3-0.8l-1.5,0.5l0.3-2.1l1-1.3l1.8,0.3l2.8,1.5h1.8l2.3-1.3l3.1-0.8l1.8,0.3l0.8,2.8l0.3,9.5l-1,5.4l1.3,6.4v17.5l0.5,7.7
		l-1.8,2.6l1.3,2.8l0.5,3.3l-0.5,3.3l-1.8,2.3l1.3,2.3l0.5,12.6l0.5,1.5l-1,2.8l0.8,2.6l0.3,6.2l-0.8,13.1l1.3,6.2l-1.3,2.1
		l-0.3,1.3l1.5,6.2l-0.5,2.8l-1,1l0.8,4.9l-1,8.2l0.3,3.6l-1.5-0.5l-1.8-1.8l-1.8,1.5l4.4,2.8l-0.5,3.6l-3.9,4.6l0.5,3.1l-0.3,3.1
		l-1,3.1l-1.5,2.6l-2.3,2.1l-1.3,0.5l0.3,2.1l-0.5,1.3l-3.9,2.8l0.5,1.8l-2.1,4.4l-2.6-0.3l-1.3,0.8l0.3,2.8l-0.8,1l-3.3-1.3l-0.8,1
		l-1,4.9l-1,1.3l-2.8-1l-1.3,1l0.3,3.3l-3.1,0.8l-1.3-0.8l-1.8,2.3l-5.1,3.6l-5.9,1.8h-3.1l-2.1,1.8l-2.8,1.3l-6.7,1l-2.3-1.3
		l-2.6,1.3l-5.7,1.3l-12.3,0.3l-0.5-1.8l-1-1l-1.5,1l-0.8,1.8l-15.4-1.8l-7.2-2.1l-1-1.3v-2.1h-1.8l-1.3,1.8l-1.3,0.5l-2.1-1.5
		l-0.3-1.3l-3.1,0.3l-5.1-2.1l0.3-1.3l-1.5-2.6l-1.5,1h-2.3l-1.5-1l1-2.6l-0.5-1.5l-1-0.8l-1.3,0.8l-0.5,2.1l-9.5-7.7l-5.9-6.7
		l0.5-2.3l-2.8-0.8l-1.3-1.3l-0.8-1.8l0.5-1.3l1.8-2.1l-1.3-0.5l-2.6,0.5l-3.9-8l-1.3-4.6l3.3,0.5l-1.5-2.8l-2.8,1.8l-0.5-6.4
		L512,644l0.8-1.5l1.5-0.8l-2.8-3.9l0.5-4.1l-0.5-1.3l2.3,0.5l-0.3-3.1l0.8-0.8l-0.8-1l-2.6-0.5l0.8-1.5l-0.3-5.1l1.5-0.3l1.3-1
		l-1.3-2.1h-1.5v-6.2l1.5-0.5l0.8-1.5l-1-1.5l-1.3-0.8v-3.3l0.8-2.6l2.1-1.3l-2.6-1.3l-0.8-4.4l2.1-5.9l0.8-1l-2.8-1.3l-0.3-3.9
		l0.8-2.8l1.5-2.6l-0.8-0.5l-1.3,0.5v-11.3l0.5-6.4h2.3l-0.5-1.8l1-0.5l-2.8-1.5l0.3-1.5l-0.5-4.9l0.5-1.3l1.3-1l-2.1-4.9v-4.6
		l1.3,0.8h1l1-1.3l-1.3-0.5H511l0.3-6.7l-0.8-12.1h2.6l1.3-0.8v-2.6l-0.8-1l-2.6-0.8l0.3-3.1l1.8-2.3l2.6-1.5l2.8-0.3l2.8,0.8l1.3,1
		l1.5-0.3l1-1L526.4,504.6z M511.5,524.7l0.8-1.3h-0.8V524.7z M515.8,510.8l2.6,0.5l1.3-0.5v-2.1l-1-1l-1.3,0.3l-1,1.3L515.8,510.8z
		 M516.4,552.2h1.3l-0.8-1l-1,0.5L516.4,552.2z M515.8,647.3l1.5-0.8l0.8-1.5l-1.8-0.5l-0.5,1.3V647.3z M517.6,532.4l-0.3-1.3
		l-1-0.5l0.3,1.3L517.6,532.4z M516.9,564.3l1-1.3l-0.3-1.3l-1,1.3L516.9,564.3z M516.9,519.5l2.8,1.3V519l-1-0.8l-1,0.3
		L516.9,519.5z M516.9,541.1l1.3,0.5l0.5-1l-1-0.5L516.9,541.1z M518.2,573.3l1.5-0.3v-1.5l-1-0.5l-0.3,1.3L518.2,573.3z
		 M519.2,616.5l0.5-3.3l-1.5-0.5v2.8L519.2,616.5z M518.7,625.7l0.3,1.3l0.5-1.8l-0.8-1V625.7z M522,516.9h2.1l0.8-1.5v-1.5
		l-0.8-1.5l-1.5,0.3l-1,1.3v1.5L522,516.9z M524.9,630.6l-0.5-1.3l-2.8-0.3l0.3,1.3l1.3,0.5L524.9,630.6z M522,558.9l1-0.8l1-2.6
		l-1.8,0.5l-0.5,1.5L522,558.9z M523.6,581l0.5-2.3H522l0.3,1.8L523.6,581z M522,607.5l1,1.3l1.8,0.5l-0.3-1.8l-1.3-0.5L522,607.5z
		 M522.5,528l1.8-0.3l0.5-1.5l-1.8-0.5l-0.5,1V528z M523.1,535.2l1.5,0.3l0.8-1.5l-1.5,0.3L523.1,535.2z M523.6,547.8h1.5l0.8-1
		l-1-0.5L523.6,547.8z M524.1,599.8l1.5-0.5l0.3-1.8h-1.8V599.8z M526.4,656.9l3.3,0.5l-0.5-1.5l-1.8-0.3L526.4,656.9z M532.6,684.4
		l1.5-0.3l1.8-2.1l-1-1.3h-1.3l-1,0.8l-0.5,1.3L532.6,684.4z M536.9,689.3h2.1l0.3-2.8l-1.3-0.5l-0.5,1.5L536.9,689.3z M543.6,683.9
		h1v-1h-1V683.9z M554.2,694.9l1.3,0.5l1.3-0.5l-0.5-1.5l-1.3,0.3L554.2,694.9z M559.1,699.8l2.8,1.3l0.5-3.1l-1.3-1l-1,1.5
		L559.1,699.8z M566.3,694.9h1l0.5-1.8h-1.5V694.9z M574,703.7l0.8,1.5l1.5,0.8l1.5-0.5l-1-2.8l-1.5,0.5L574,703.7z M580.2,700.3
		l1.8,0.5l1.3-1l-0.8-1.3l-1.3-0.8l-0.3,1.5L580.2,700.3z M614.4,697.8l-1.8,0.5l-0.3,0.8l1.5-0.5L614.4,697.8z M619.3,703.2h-1.5
		l0.8,1L619.3,703.2z M628.3,703.2l1-0.8l-1-0.8V703.2z M635.5,701.1l0.3-1.8l-1-1l-0.3,1.8L635.5,701.1z M661.4,661.2l-0.5-1.5
		l-1.8-0.3l0.8,1.3L661.4,661.2z M659.6,674.4l1.5-0.5l-0.5-1L659.6,674.4z M663,646.8h1v-1h-1V646.8z M665.8,637.3l1.5-2.6h-2.8
		l0.3,1.8L665.8,637.3z M665.3,543.4h1.5l-0.5-1l-1-0.3V543.4z M665.3,616.5l2.1-1.3v-1.5l-1.3,0.3l-0.8,1V616.5z M666.3,531.1
		l1-0.8l-1-0.8V531.1z M666.3,625.7h1v-2.1h-1V625.7z M671.2,578.7l-0.8-1.3l-1.8-0.3l0.3,1.5l1.3,0.5L671.2,578.7z M669.2,662.8
		l1.5-0.5h2.3l-1.5-2.1l-1.3-0.8l-1.5,2.3L669.2,662.8z M671.2,516.9l0.5-3.9l-2.1-0.8l-0.5,1.3v1.8l0.8,1L671.2,516.9z
		 M670.7,526.2l-1-1.5l-0.5,1.3L670.7,526.2z M669.2,556.5l0.5,1.8l1.3-0.5l0.8-1.3l-1.3-0.3L669.2,556.5z M670.2,524.1h1v-1.3h-1
		V524.1z M670.2,546.3l1.5-1.3l-1.3,0.3L670.2,546.3z M670.2,599.8h1v-1h-1V599.8z M671.2,620.9l0.5-2.6l-1-0.8l-0.5,2.6
		L671.2,620.9z M674,509l0.5,1.3l2.3,1l-0.8-2.6l0.8-1.3l-1.5,0.8L674,509z M674.6,624.7l1,0.3l1.3-0.5l0.5-1.5l-1.8,0.5
		L674.6,624.7z M675.1,521.3l1.5-0.3l0.8-1.3l-0.5-1.3l-1.3-0.5l-0.8,1.5L675.1,521.3z M675.1,532.9l2.8-1l0.5-1.3l-0.3-1.3
		l-1.3-0.8l-1.5,2.3L675.1,532.9z M675.1,573.3l0.5,1.3h1.3l0.5-1.3l-1-0.3L675.1,573.3z M675.1,582.5h1.3l0.5-1l-1.8-0.5V582.5z
		 M676.9,616.5l0.3-3.3l-0.8-0.5l-0.8,0.8l-0.5,1.5l0.3,1L676.9,616.5z M677.4,562.7l-0.3-1.8l-0.8-1l-0.3,1.5L677.4,562.7z
		 M676.9,595.4l1.5-0.5v-1.5l-1-1l-1,0.3l0.3,1.5L676.9,595.4z"/>
	<path fill="#1D252E" d="M791.6,701.4l-1.3,1l-0.8,1.5l0.5,1.8l-1.8-0.3l-1.3-0.8l-1.3-2.3l1.5-2.8v-2.1l-0.8-1l-1.3-0.3v-6.4
		l2.1,0.5l-0.3-3.6l-0.5-1l-1.3-0.5v-5.9l3.1-1.3l-0.5-1.5l-2.6-3.3l0.5-3.1l1.5-4.1l-0.8-1l-1-3.1v-5.1l0.8-1.3l-0.8-1.5l-0.3-2.8
		l2.1-7.2l-2.1-0.5v-1.8l1-2.8l-0.5-1.5l1.5-0.5l1-1l-0.5-1.3l-2.6-1l0.3-3.3l1.3-4.1l1-0.8l-1.5-2.3l-0.5-3.3l0.3-3.3l1.3-2.6
		l-1.3-2.3l-0.5-3.1l0.8-2.8l1-0.8l-0.3-2.1l-1.3-1l1-6.2v-3.9l-1-1l0.5-6.2l0.5-1l-1-3.3l0.3-3.1l1.3-4.6l-0.5-1.5l-1-0.8l0.3-3.6
		l1-4.1l-0.3-1.5l-1-1.3v-3.6l1-2.6l1-1l-1.5-2.6l-0.8-3.1l1-4.9l0.8-1l-0.5-1.3l-2.3-1.5l0.8-2.8l1.5-2.8l0.3-2.6l-0.5-1.3l-1.3-1
		l0.3-3.3l2.3-3.1l-1-0.8l-1.5-2.6v-5.7l1.3-0.5l0.8-1v-2.1l-1-0.8l-0.5-1.5l1.5-0.8h1.3l2.6,1.3l4.4-0.5l2.3-1.3l3.9,1.8l1,2.6
		l3.3,2.3l3.3,5.7l3.6,3.9l0.3,2.3l-0.5,1.5l1.3-0.3l1.5-1l0.5,1.3l2.8,3.3l-1.8,2.1v1.8l1.5-0.5l0.5-1l1.3-0.8l5.7,7.7l1,3.3
		l4.6,3.6l0.8,1.3v1.8l4.1,2.8l0.8,1l-0.3,1.5l0.8,1l2.6,0.8l1.5,4.4l8.2,9.3l10.5,13.4l-2.3,2.8l1.8,0.8l2.8-1.8l0.8,3.1l-0.3,3.3
		l1,0.5l2.8-0.5l0.8,1l0.3,3.3l0.5,1.3l2.8-1l2.1,3.3l0.3,1.5l2.3,1.5l1.8,2.1l0.3,1.8l1,1.3l1.8,0.5l3.3,5.1l12.6,15.2l-0.8,1.8
		l0.3,1.5l2.1-1l1.5,2.6l1.3,0.8l-1.5,2.3l1.3,1.3h1.5l1.5-0.8l1.5,2.6l-1,3.3l1,1.8l2.8-1.8l0.5,1.3l1.8,2.1l0.5,1.3l-0.5,1.5
		l0.8,0.5h3.1l1,2.6v1.8l4.1,3.1l9.8,13.1l2.3,1.3l3.1,0.8l1.8-1.8l1-2.8l-0.5-14.1l1-1l-1-0.8v-6.4l2.6-1.5l0.8-1.3l-0.5-1.3
		l-2.8-0.8l0.5-5.7h1.8l1-1l-0.3-1.8l-1.3-1h-1.8v-7.7l3.3-1l-0.8-1l-2.6-1.3l0.3-4.1l0.8-2.8l1.8-3.6l-2.6-1.3l-0.8-1.3v-1.8
		l1.3-3.3l1.3-1l-0.8-1.5l-1.3-0.8l0.5-1.5l-0.5-5.1h2.8l-2.3-5.9l0.3-3.3l1.3-2.8l-0.8-1.3l-0.5-2.8v-14.2l2.6-1.5l-2.1-2.1l-1-3.1
		l1-6.4l0.8-1.3l-2.1-2.1l1.3-3.9l-0.3-1.8l1.8,0.5v-2.1l-2.8-3.3l0.8-1.5l-0.3-3.6l2.8-2.1l-0.8-1l-2.6-1.3l-0.3-1.8l0.8-2.8
		l2.8-2.6l-0.8-1.8l-1.3-0.8l-0.8-1.3l-0.3-1.8l1-2.8l2.1-1.8l3.1-0.8l3.1,0.8l1.5,1l3.9-1l0.8,0.5l0.3,1.3l-1,1.8l1.5,6.2l-0.5,2.8
		l-1,1l1.5,6.4l0.8,1.3l-0.5,1.5l-1.8,1.8l1.8,4.1v3.3l-1.3,4.6l0.8,0.8l0.5,1.5l-0.3,3.9l-1.5,2.8l1.3,2.8l0.3,3.3l-0.8,3.1
		l-0.8,1.3l1.5,6.4l0.8,1.3l-2.3,2.1l1.8,5.9l-0.8,3.3l-0.8,0.8l-0.3,1.8l0.8,0.8l1.5-0.3v7.2l-2.3,1.5l2.1,5.1l0.3,3.1l-2.3,1.3
		l1.8,5.7v4.9l-1.8,2.6l1.8,2.6v2.8l-1.8,4.6l0.5,1.5l2.3,1.3l-0.5,3.6l-2.3,4.1l1.3,0.8l0.8,1.3l0.3,3.3l-1.3,3.1l-1,0.8l0.3,1.5
		l2.1,2.3l0.3,1.5l-2.1,6.9l1.8,2.1l-1.3,6.9l-1,0.8l1.3,2.6l0.8,3.3l0.8,1.3l-0.8,1l-0.5,2.6l0.5,6.4l-0.5,3.1l-1,1.3l1,1.3
		l0.8,4.4l-1.3,2.8l-1,1l1.5,3.9l-1,2.6l-2.3,1.3l0.5-1.8l-0.5-1.5H948l-1,0.5l1.3,3.3l-7.2-0.5l-0.5-3.3l-3.9-0.5l-1.5-2.3l0.3-1.5
		l-5.9-3.9v-2.3l-8.2-9l-3.6-5.1l-4.1-4.4l-2.3-1.8l-1-3.3l-2.8-3.3v-5.7l-1.5,0.3l-1.8,2.1l-1.5-3.3l0.3-1.5l-4.6-3.3l-0.8-3.3
		l-3.9-1.8v-2.6l-1-1.3l-2.8-1l-3.3-5.1l-2.8-1.5l-6.9-10.3l-12.3-15.7l2.3-0.5l-2.3-2.8l-0.5,1.8l-1.5-0.5l-0.8-1l-0.3-4.4
		l-0.8-1.3l-2.8,0.3l-2.1-1.5l0.5-2.6l-3.9-2.3l-0.5-1.8l-2.1-2.1l-1.3-2.8l-1.3-0.3l-2.1-1.8l-5.9-7.7l-1.3-0.8v-2.1l-2.8-1.8
		l-2.6-4.1l-0.3-1.8l1.3-1l1.5,0.5l-0.5-2.3h-2.1l-1.8,2.3l-4.6-4.6l-1.5-2.8l-0.5-2.6l-4.4-3.3l-11.8-14.9L805,536l-2.3-0.5l-1,2.6
		l-0.3,10.3l-0.8,2.6l1,3.3l-1.5,2.1l1.3,4.4v3.1l-1.3,3.1v1.5l1.5,1.8l-0.5,9.3l1,5.1l-2.1,3.3l0.8,1l0.8,3.1v3.3l-0.5,1.5l-1,1
		l1.5,5.9l-0.5,6.2l1,6.2l-0.8,1.5l-1.3,1l0.8,1.3l0.5,6.2l-1.3,4.9l0.5,1.5l1.5,0.5l-1,6.2l-1,0.5l0.8,0.5h1.3l-0.8,9.3l-1.3,2.3
		l0.8,0.5h1.3l-0.5,1.8l0.5,3.3l-1.8,2.6l-0.3,1.8l0.5,1.5l1.5,0.8l-0.5,3.3l-1.5,4.4l1.3,2.8l0.8,3.3l-0.3,1.5l-1.8,2.8l1.5,2.6
		l0.3,3.3l-0.8,3.1l-1,1.3l1,1.3l0.8,3.1v2.8l-2.6,5.7h-4.9l-1,0.5l0.3-2.6l-0.5-1.5L791.6,701.4z M789.5,557.1v1l0.5,0.5h1l0.5-0.5
		l-0.5-1.8h-1L789.5,557.1z M790.6,620.1l1-1l1,0.3l0.8-1l-1.5-0.8l-1.5,0.5l-0.8,1L790.6,620.1z M791.1,652.5l0.5-2.6l-1.5-0.5
		l-0.5,1.3l0.3,1.3L791.1,652.5z M789.5,680.8v1l1-0.5l-0.5-1L789.5,680.8z M790.1,569.2h1v-1h-1V569.2z M790.1,674.1h2.1l-0.3-1.5
		l0.5-1l-0.3-1.3l-1.3,0.8l-0.5,1.3L790.1,674.1z M790.1,694.7l2.6,0.3l1.3-0.8l-0.5-1.5l-2.8-1.3l-0.5,1.5V694.7z M792.9,663v-1.8
		l-0.5-1.3l-1.3-0.8l-0.8,1.3v1.3l0.8,1L792.9,663z M793.4,600v-1.5h-1.8l0.5,1.3L793.4,600z M795.5,511l0.5-2.6l0.8-1.3l-1.3,0.8
		l-0.5,1.5L795.5,511z M794.9,560.1v1.3l0.5,0.5h1.3l0.5-0.5v-1.3l-0.5-0.5h-1.3L794.9,560.1z M794.9,574l1.8,0.5l-1.3-1.5
		L794.9,574z M796.2,647.6l1-1l-0.5-1.5l-1.3-0.8l-0.5,1.3l0.3,1.3L796.2,647.6z M794.9,697.5l0.3,1.8l2.6,1.5l0.5-3.1l-0.8-1
		l-1.3-0.3L794.9,697.5z M795.5,616.2h2.3l-1-2.3l-1.3-0.5V616.2z M795.5,625.5l1.8,0.5l-1-1.5L795.5,625.5z M797.3,690.3l1-1.3
		v-1.8l-1.5-0.8l-0.8,3.1L797.3,690.3z M798.3,605.2v-2.1l-1-0.8v2.1L798.3,605.2z M818.4,543.2l0.8-1l0.3-1.8l-1.8-0.5l-0.5,1.3
		l0.3,1.3L818.4,543.2z M826.6,563l0.8,0.8l1.3,0.3l1-3.1l-1-1.3l-1.3,0.5l-0.5,1.3L826.6,563z M827.6,552.9l1.5-0.5l0.8-1.5
		l-1.8,0.5L827.6,552.9z M832,557.6h1.8l1-0.5l-1.8-0.5L832,557.6z M837.6,564h1v-1h-1V564z M845.9,567.3l-0.8-1l-1.5-0.5l-0.5,1.3
		l0.8,1.3l1.3,0.3L845.9,567.3z M846.9,574l2.3,0.5l-0.8-1.5l1.3-2.3l-1.8,0.3l-0.8,1.3L846.9,574z M847.4,584.1l1.3-0.3v-1.3
		l-1.3-0.3V584.1z M868.5,612.9l2.3,1l1-0.5l-1-1.3l-1.3-0.5L868.5,612.9z M879.6,614.4h1.3l0.5-1h-1.3L879.6,614.4z M884.5,620.1
		l1.3,0.5l-0.3-1.3l-1-0.5V620.1z M886.8,631.7l0.5-2.3l-1.5,0.8L886.8,631.7z M891.2,626.5l-0.8-1.8l-1.3-0.8l0.5,1.8L891.2,626.5z
		 M894.5,631.1l1,0.5l0.8-1.3l-1.3-0.5L894.5,631.1z M913.8,667.7v-1.8l-1.5-0.5l0.3,1.8L913.8,667.7z M941.1,625l1,0.5l0.5-1
		l-1-0.5L941.1,625z M942.1,509.5l1.5-0.3l0.3,1.8l2.1-1l-1.3-2.3l-1.5-0.5l-0.5,1L942.1,509.5z M942.1,520.5l2.3-1.5l0.5-1.3h-1.8
		l-1,1V520.5z M942.1,529.8v1.8l0.8,1l1.5,0.5l0.5-4.4l-1.5,0.5L942.1,529.8z M943.9,542.7l-0.3-1.5l-1-0.8l-0.3,1.5L943.9,542.7z
		 M944.4,602.8l-1.3-3.1l-0.5,2.8L944.4,602.8z M944.9,700.9l0.3-1.3l-0.5-1l-1.5-0.5l-0.5,1.3l0.8,1L944.9,700.9z M945.4,584.6
		l0.3-1.5l-0.8-1.3l-1.8-0.5l1.3,2.6L945.4,584.6z M943.9,627.3l1.5-0.8l0.5-1.5l-1-1l-0.5,1.8L943.9,627.3z M945.9,550.9l-1.5-0.5
		l0.5,1L945.9,550.9z M944.4,637.1h1v-1h-1V637.1z M945.9,644.8l-1.5,0.8l0.8,0.8L945.9,644.8z M944.9,657.6h1v-2.3h-1V657.6z
		 M947,512.8l0.3,1.5l1.3,0.5l-0.3,1l1.8-0.3l0.3-1.3l-0.5-1.5l-1.3-0.8L947,512.8z M947,547l1.3-0.8l2.6,0.3l-0.8-1.5l-1.3-0.5
		l-1.3,0.5L947,547z M947,567.3l1.3,0.8l0.5-1.3l-1-0.5L947,567.3z M948.8,579.2l1.3-1.8l-3.1-1v1.5l0.5,1L948.8,579.2z
		 M948.3,525.4l1.3-1l-0.8-1.8l-1,1.5L948.3,525.4z M947.7,607.7l1.3,0.5l0.8-1l-1.5-0.3L947.7,607.7z M949.3,632.2l0.8-3.9
		l-1.3-0.5l-0.5,3.3L949.3,632.2z M951.6,652.5l-0.3-1.5l-1.5-0.5l-0.3,1.5L951.6,652.5z M949.8,568.6h1l0.8-1.8h-1.8V568.6z
		 M949.8,640.4h1.8l-0.5-1h-1.3V640.4z M951.6,692.9h-1.5l-0.3,0.8L951.6,692.9z"/>
	<path fill="#1D252E" d="M1097.7,503.8l0.8,3.3l1.3,1l1-0.8l-0.5-3.1l2.8-0.3l4.6,0.8l2.1,1.8l2.1-1.8l1.5-0.5l5.9-0.5v1l-1.3,1.3
		l0.5,1.5l1.5-1h1l1.3,1l-0.5-3.3l7.2-0.5l0.8,3.1l1,1.3l1.5-2.3v-2.1l4.4,0.5l1.8-0.5l1.3,1l0.3,1.8l2.6-1.5l3.1-0.8l5.4-0.5
		l-1,2.8l1,0.3l1.3-0.8l1,1l1-2.8l6.4,0.3l5.4-0.5l5.9,0.3v2.6l0.5,1.3l2.1-2.1l0.3-1.8l16.7-0.8l5.7,0.5l3.6,1.3l-0.3,2.1l0.8,1.3
		l-1,1h-1.8l-1,1.3v1.5l0.8,1l2.6-0.5v6.2l-12.9,1.8l-6.2-0.3l-2.6-1l-2.8,0.8h-22.1l-2.8,1l-1.3-0.8l-3.1-0.5l-6.4,0.5l-4.6-1
		l-4.4,1.8l-5.7-1h-25.5l-4.4,1l-7.5-1.3l-6.4,1.3l-2.6,1.5l-1.8,2.3l0.3,6.4l-0.5,4.1l-0.8,1l1.5,4.1l-0.3,4.4l-1.8,2.1l2.1,7.5
		l-0.3,1.5l-1.8,2.1l1.3,2.3l0.8,3.3l-0.3,3.1l-1.8,2.3l2.8,6.7l-0.8,1.5l-1.5,1l1.5,5.7l-0.3,2.8l-1.3,2.6l2.1,5.9l2.3,3.6h7.2
		l-0.5,1.8l0.5,1.5l2.8-3.9h3.3l2.8,0.8l1,0.8l1.3-0.8l2.8-0.3l5.4,0.5l1.5,0.8l0.8,1.3l1.5,0.8l1-3.9l5.4,0.5l-0.3,1.3l3.1,2.6
		l0.5-1.3l-0.5-1.5l2.8-1.3l6.7-0.3l-0.5,1.5l-1.3,0.5l0.8,1.5l1.5,0.8l1.5-0.5l1.8-3.9h4.4l0.8,3.1l1,1l1.5,0.3l1-1l0.5-3.3h6.7
		v3.3h2.8l1-3.3l3.3,0.5l3.3-0.5l0.3,3.3l1.3,1l1.8-0.8l0.5-3.1l6.7-0.5l-0.5,1.8l0.3,1.3l3.1,1.3l1-0.8v-1.8l0.5-1.3h3.3l2.1,1.5
		l1,2.6v6.4l-1,4.4l-25.7,0.5h-23.9l-21.1-0.5v-2.3l-0.5-1.5h2.3l-0.8-1h-1.8l-1.3,0.5l0.5,4.4l-25,0.5l-3.3-0.5l-1.5,0.8l-1.3,2.3
		l-0.3,2.8l0.8,6.7l-0.3,3.3l-1.8,2.8l1.8,2.6l0.3,1.8l-0.5,3.3l-1,1l1,3.1l0.5,4.6l-1,2.6l-1,0.8l1.3,2.8l0.5,3.6l-0.8,3.1l-1,1
		l1.3,2.1l0.8,2.6l-0.5,19.8l2.3,2.1h25l9,0.3l2.1,1.5l1-1l2.8-1l5.9,2.1l2.6-1.5l4.6-0.5l2.6,1.3l0.8,1.3l1.3-1l0.5-1.8l2.8,0.5
		l3.1-0.5l1.3,2.6l1.5,0.3l0.8-1l-0.8-1.8l6.7,0.5l2.6,1.3l0.8,1l2.6-1.8l2.8-0.8l3.9,0.3l1.3,2.3l1.3-1.3l2.3-1l3.6-0.5l2.6,2.8
		l3.1-0.3l0.8-2.6l2.3,1l2.8-0.5l0.5,1.5l1.5,0.8h1.5l1.3-0.8l0.5-1.5l3.6,0.3l5.4,2.6v5.7l-1.8,0.3l-1.5,2.3l0.5,1.3l2.8,1
		l-3.3,2.3l-1-1l-2.6-0.3l-6.2,1.3l-2.8-0.8l-1.3-1l-4.4,1.8l-12.6,0.5l-1.8,0.5l-0.5-1.8l-1-1l-1.5,0.5l-0.3,1l-1,0.8l-3.1-0.8
		l-11.8-0.3l-4.4-1.3l-3.6,2.3h-3.6l-1.8-2.3h-2.1l-3.3,2.8l-4.1-1.5l-2.8-0.3l-5.9,1.3l-5.4-2.8l-1,0.8l0.5,1.5l-2.1,0.3l-7.5-2.1
		l-2.3,2.3l-1.5-0.8l-3.1-0.5l-6.7,0.5l-2.8-0.3l-2.8-1.3l-2.8,1.3l-4.9,0.3l-2.8-1.5l-4.6,1l-1.5-1l2.3-2.1l-1-1l-1.5-5.4v-13.6
		l2.6-0.5l-0.5-1l0.5-1.3l-2.3-2.1l-0.8-2.8l1.5-2.8l1.5-1v-1l-3.3-3.3l-0.5-1.8l2.1-5.9l-1.8-4.9l0.3-1.8l2.1-1.5l1.3-0.3l-0.8-2.6
		l-1-1l-1.5-0.3v-5.9l3.3-1.3l-0.5-1.8l-2.1-2.1l-0.8-1.5l0.5-4.4l1-1.8l-1-2.1l1-2.8l-1-4.9l1-1.8l-1-5.4l-0.3-12.6l0.5-11.1
		l0.5-2.8l-0.8-5.1l1.3-3.3l1-1l-2.3-2.3l0.5-1.8v-2.8l0.5-1.3l1.3-1.3l-1.5-2.6l-0.8-3.1v-3.1l2.3-0.5l-2.3-5.7v-3.9l2.8-1v-2.1
		l-0.8-1.5l-2.1-2.1v-17l2.3-1l-2.1-2.3l-0.3-1.8l0.8-3.3l0.8-1.3l1.3-0.8l-0.8-1.5l-1.3-0.8l-0.8-1.5l0.3-1.8l0.8-1l1.3-0.5h2.1
		l-0.5,1.5l1,2.3l2.3-1.3v-2.6h6.7l1.5,0.5l0.5,1l1.3,0.8l0.5-2.3l15.9-0.5H1097.7z M1064,597.2h1v-1h-1V597.2z M1066.1,558.1
		l0.5,2.1l1.8-0.3l0.8-1l0.3-1.5h-1.8L1066.1,558.1z M1066.1,665.4h1v-1.3h-1V665.4z M1067.1,549.6h1.8l1-0.5l-0.3-1.5l-0.8-1
		l-1.8-0.3l-0.5,1.8L1067.1,549.6z M1068.9,697.3l0.3-1l-0.5-1.5l-1.5-0.8l-0.5,1.5l0.5,1.5L1068.9,697.3z M1067.1,652.5h1.3v-1
		h-1.3V652.5z M1071.2,564.5l1.3,1l1.8,0.3v-2.3l-1-0.8l-1.3,0.5L1071.2,564.5z M1071.2,606.2l2.1,0.5l-1-1.5L1071.2,606.2z
		 M1071.2,660.2l2.6,1.3l-0.8-1.8l0.3-1.3l1-1.5l-2.6,1.8L1071.2,660.2z M1071.2,668.7l1,0.5l0.5-1.3l-1-0.5L1071.2,668.7z
		 M1073.8,543.7l-0.8-1l-0.8,0.5L1073.8,543.7z M1072.8,555.3h1v-1h-1V555.3z M1072.8,650.4l1.5-1.3l-1.3,0.3L1072.8,650.4z
		 M1073.3,573.5h1v-1.3h-1V573.5z M1073.3,702.4l1.5-0.3l0.8-1h-1.5L1073.3,702.4z M1073.8,637.6l1.3,0.5l0.5-1l-1.3-0.5
		L1073.8,637.6z M1073.8,640.4h1.3v-1h-1.3V640.4z M1074.3,680.3h1.3V679h-1.3V680.3z M1083.3,702.4h1.8l1-0.5l-2.3-1.8l-0.5,1
		V702.4z M1088.7,518.7h1.3l0.3-1l-1-0.8L1088.7,518.7z M1089.2,507.7h1.3v-1h-1.3V507.7z M1092.6,607.2l2.8,0.5l-2.3-2.8l-0.3,1
		L1092.6,607.2z M1094.9,513.1v-1.8l-1.8-0.3l0.3,1.5L1094.9,513.1z M1096.4,701.9l-1.5,0.5l0.5,0.8L1096.4,701.9z M1101.6,613.4
		l0.5-1.3l-0.5-1.3l-2.3-1.3l-1.5,2.8l1,1l0.8-1.5l1.5-0.8v1.3L1101.6,613.4z M1098.2,518.2l1.3,0.5l2.6-1l-0.5-1.5l-1.3-0.8
		l-0.3,1.3l-1,0.5L1098.2,518.2z M1098.7,601.6v1.3l1-0.8l-0.5-1L1098.7,601.6z M1099.3,696.2v1l1-0.5l-0.5-1L1099.3,696.2z
		 M1105.9,606.7h1v-1.3h-1V606.7z M1108.8,516.4l0.5,2.3l2.6-0.8l0.8-1l-2.6-1L1108.8,516.4z M1111.3,694.7l-2.1-1.3l0.3,1.5l1,0.5
		L1111.3,694.7z M1114.2,607.2l1.3,0.5l0.5-1l-1.3-0.5L1114.2,607.2z M1117.5,701.9l-0.3-1.8l-0.8-1.3l-1.8-0.3l1.8,2.3
		L1117.5,701.9z M1118.5,612.6l2.8-0.5l1.8-2.1h-3.9l-0.3,1.3L1118.5,612.6z M1120.4,697.3l2.1-2.6h-3.1v1.8L1120.4,697.3z
		 M1120.4,518.7h1.8l1-1l-2.3-1.3l-0.5,1V518.7z M1125.8,702.9l0.5-1.3l-1.5-2.6l-0.5,1.3l0.5,1.5L1125.8,702.9z M1126.3,605.4
		l1.8,0.8l-1-1.8L1126.3,605.4z M1129.1,612.1l1.8-0.8l1-1.3l-2.3-0.5L1129.1,612.1z M1130.9,697.3l1.3-0.5l0.8-2.8l-2.1-0.5
		l0.3,2.3L1130.9,697.3z M1131.4,516.9h1.5v-1.5h-1.5V516.9z M1139.6,610.6l0.5,2.8h1.8l1.3-0.5l0.8-2.3l-1.8,0.3l-1.3-0.5
		L1139.6,610.6z M1142,515.9l-1.3-0.5v1L1142,515.9z M1145.3,606.2l0.5,1.5h1.5l0.8-0.8l0.3-1.5h-1.8L1145.3,606.2z M1151.2,516.9
		l0.5,1.5l1.5,0.3l0.8-1l-1.3-1L1151.2,516.9z M1151.2,693.9v1.3l0.5,0.5h1.3l0.5-0.5v-1.3l-0.5-0.5h-1.3L1151.2,693.9z
		 M1151.7,613.4l1.5-0.3l0.8-1h-1.5L1151.7,613.4z M1153,611.1h1v-1h-1V611.1z M1164.1,613.4l-1-1.3l-1.3,0.5l1,0.5L1164.1,613.4z
		 M1162.3,610.6l1.3,0.5l1-1l-1.3-0.5L1162.3,610.6z M1162.8,518.7l1.5-0.5l0.3-1.8l-1-1l-1,1.5L1162.8,518.7z M1165.1,695.7
		l-0.5-1.5l-1.8-0.3l0.3,1.5l1,0.8L1165.1,695.7z M1170.5,607.2v-2.3l-1.3-0.5h-1.8l1.8,2.8H1170.5z M1169,701.1l1.5,0.8l-0.3-1.3
		l-0.8-0.5L1169,701.1z M1171.3,611.6l0.8,1l3.1,0.8l0.5-2.8l-0.5-1l-3.3,0.5L1171.3,611.6z M1173.9,517.7l-0.5-1.3l-1-0.5v1.5
		l0.8,0.8L1173.9,517.7z M1174.6,517.7h1v-2.3h-1V517.7z M1176.7,607.2l1.3,0.5l2.8-1l0.3-1.3l-1.3-0.8l-2.6,1L1176.7,607.2z
		 M1184.9,518.7l-0.3-1.3l-0.8-0.8l-1.5-0.3v1.5l1,0.8H1184.9z M1185.7,507.7l0.5-1.3l-1.5-1.8l-1.8,0.3l0.5,1.3l1,0.8L1185.7,507.7
		z M1183.4,696.7l1.3-0.3l0.5-1.3l-0.5-1.3l-1.3-0.5l-0.5,1.5L1183.4,696.7z M1187.7,702.9l1.5,0.3l2.3-1.3l-1.3-2.3l-1-0.8
		l-1.5-0.3l-0.5,1.3v1.8L1187.7,702.9z M1190.1,512.6l1.3-0.5l0.3-1.5l-2.1-0.5L1190.1,512.6z M1192.6,505.4l0.3,1.8l1,0.8l1.5,0.3
		l0.5-1v-1.8l-1.5-0.5L1192.6,505.4z M1192.6,515.9l0.3,1.5l1,1l1.5,0.3l0.5-2.8l-1.5-0.5L1192.6,515.9z M1193.4,697.3l1-0.5l1-2.8
		h-2.1l-0.5,1.8L1193.4,697.3z"/>
</g>
</svg>
